<?xml version="1.0" encoding="UTF-8" standalone="no"?>
<!-- Created with Inkscape (http://www.inkscape.org/) -->

<svg
   xmlns:dc="http://purl.org/dc/elements/1.1/"
   xmlns:cc="http://creativecommons.org/ns#"
   xmlns:rdf="http://www.w3.org/1999/02/22-rdf-syntax-ns#"
   xmlns:svg="http://www.w3.org/2000/svg"
   xmlns="http://www.w3.org/2000/svg"
   xmlns:sodipodi="http://sodipodi.sourceforge.net/DTD/sodipodi-0.dtd"
   xmlns:inkscape="http://www.inkscape.org/namespaces/inkscape"
   id="svg4155"
   version="1.1"
   inkscape:version="0.91 r13725"
   xml:space="preserve"
   width="370.53271pt"
   height="275.15018pt"
   viewBox="0 0 463.16588 343.93772"
   sodipodi:docname="grundstruktur-der-flexiblen-automation.svg"><metadata
     id="metadata4161"><rdf:RDF><cc:Work
         rdf:about=""><dc:format>image/svg+xml</dc:format><dc:type
           rdf:resource="http://purl.org/dc/dcmitype/StillImage" /><dc:title></dc:title></cc:Work></rdf:RDF></metadata><defs
     id="defs4159" /><sodipodi:namedview
     pagecolor="#ffffff"
     bordercolor="#666666"
     borderopacity="1"
     objecttolerance="10"
     gridtolerance="10"
     guidetolerance="10"
     inkscape:pageopacity="0"
     inkscape:pageshadow="2"
     inkscape:window-width="1920"
     inkscape:window-height="1145"
     id="namedview4157"
     showgrid="false"
     inkscape:document-units="pt"
     units="pt"
     fit-margin-top="0"
     fit-margin-left="0"
     fit-margin-right="0"
     fit-margin-bottom="0"
     inkscape:zoom="0.9795131"
     inkscape:cx="304.77457"
     inkscape:cy="84.761782"
     inkscape:window-x="0"
     inkscape:window-y="240"
     inkscape:window-maximized="1"
     inkscape:current-layer="g4163" /><g
     id="g4163"
     inkscape:groupmode="layer"
     inkscape:label="Linke - 2015 - Grundlagen zur Automatisierung"
     transform="matrix(1.25,0,0,-1.25,-73.949985,456.66374)"><g
       id="g4605"
       transform="matrix(1.0365566,0,0,1.0365566,-2.1626898,-13.355268)"><g
         id="g4239"
         transform="translate(416.47501,173.32899)"><path
           d="m 0,0 -17.406,-16.059999 0,8.033999 -126.305,0 0,16.0530004 126.305,0 0,8.0270006 L 0,0"
           style="fill:#ececec;fill-opacity:1;fill-rule:nonzero;stroke:none"
           id="path4241"
           inkscape:connector-curvature="0" /></g><g
         id="g4243"
         transform="translate(416.47501,173.32899)"><path
           d="m 0,0 -17.406,-16.059999 0,8.033999 -126.305,0 0,16.0530004 126.305,0 0,8.0270006 L 0,0 Z"
           style="fill:none;stroke:#131413;stroke-width:0.30000001;stroke-linecap:round;stroke-linejoin:round;stroke-miterlimit:10;stroke-dasharray:none;stroke-opacity:1"
           id="path4245"
           inkscape:connector-curvature="0" /></g><path
         d="m 359.44901,162.19 22.73699,0 0,22.273 -22.73699,0 0,-22.273 z"
         style="fill:#ffffff;fill-opacity:1;fill-rule:nonzero;stroke:none"
         id="path4247"
         inkscape:connector-curvature="0" /><path
         d="m 359.44901,162.19 22.73699,0 0,22.273 -22.73699,0 0,-22.273 z"
         style="fill:none;stroke:#131413;stroke-width:0.5;stroke-linecap:round;stroke-linejoin:round;stroke-miterlimit:10;stroke-dasharray:none;stroke-opacity:1"
         id="path4249"
         inkscape:connector-curvature="0" /><text
         y="-171.084"
         x="362.70599"
         transform="scale(1,-1)"
         style="font-variant:normal;font-weight:normal;font-size:7.48649979px;font-family:Arial;-inkscape-font-specification:ArialMT3;writing-mode:lr-tb;fill:#131413;fill-opacity:1;fill-rule:nonzero;stroke:none"
         id="text4251"><tspan
           x="362.70599 368.11124 373.10474"
           y="-171.084"
           sodipodi:role="line"
           id="tspan4253">CAQ</tspan></text>
<path
         d="m 300.62,162.19 22.738,0 0,22.273 -22.738,0 0,-22.273 z"
         style="fill:#ffffff;fill-opacity:1;fill-rule:nonzero;stroke:none"
         id="path4255"
         inkscape:connector-curvature="0" /><path
         d="m 300.62,162.19 22.738,0 0,22.273 -22.738,0 0,-22.273 z"
         style="fill:none;stroke:#131413;stroke-width:0.5;stroke-linecap:round;stroke-linejoin:round;stroke-miterlimit:10;stroke-dasharray:none;stroke-opacity:1"
         id="path4257"
         inkscape:connector-curvature="0" /><text
         y="-171.084"
         x="304.29401"
         transform="scale(1,-1)"
         style="font-variant:normal;font-weight:normal;font-size:7.48649979px;font-family:Arial;-inkscape-font-specification:ArialMT3;writing-mode:lr-tb;fill:#131413;fill-opacity:1;fill-rule:nonzero;stroke:none"
         id="text4259"><tspan
           x="304.29401 309.28751 314.69275"
           y="-171.084"
           sodipodi:role="line"
           id="tspan4261">BDE</tspan></text>
<g
         id="g4263"
         transform="translate(228.80701,254.425)"><path
           d="m 0,0 6.059,-6.0640001 -3.0309999,0 0,-34.8599999 -6.0600002,0 0,34.8599999 -3.032,0 L 0,0"
           style="fill:#ffffff;fill-opacity:1;fill-rule:evenodd;stroke:none"
           id="path4265"
           inkscape:connector-curvature="0" /></g><g
         id="g4267"
         transform="translate(228.80701,254.425)"><path
           d="m 0,0 6.059,-6.0640001 -3.0309999,0 0,-34.8599999 -6.0600002,0 0,34.8599999 -3.032,0 L 0,0 Z"
           style="fill:none;stroke:#131413;stroke-width:0.30000001;stroke-linecap:round;stroke-linejoin:round;stroke-miterlimit:10;stroke-dasharray:none;stroke-opacity:1"
           id="path4269"
           inkscape:connector-curvature="0" /></g><g
         id="g4271"
         transform="translate(200.283,213.50101)"><path
           d="m 0,0 -6.0630002,6.059 3.0320003,0 0,34.705 6.063,0 0,-34.705 L 6.065,6.059 0,0"
           style="fill:#ffffff;fill-opacity:1;fill-rule:evenodd;stroke:none"
           id="path4273"
           inkscape:connector-curvature="0" /></g><g
         id="g4275"
         transform="translate(200.283,213.50101)"><path
           d="m 0,0 -6.0630002,6.059 3.0320003,0 0,34.705 6.063,0 0,-34.705 L 6.065,6.059 0,0 Z"
           style="fill:none;stroke:#131413;stroke-width:0.30000001;stroke-linecap:round;stroke-linejoin:round;stroke-miterlimit:10;stroke-dasharray:none;stroke-opacity:1"
           id="path4277"
           inkscape:connector-curvature="0" /></g><g
         id="g4279"
         transform="translate(190.909,265.035)"><path
           d="m 0,0 -57.775002,0 0,-77.839996 -3.032997,0 6.064999,-5.764 6.059002,5.764 -3.027001,0 0,71.780996 L 0,-6.059 0,0"
           style="fill:#ffffff;fill-opacity:1;fill-rule:evenodd;stroke:none"
           id="path4281"
           inkscape:connector-curvature="0" /></g><g
         id="g4283"
         transform="translate(190.909,265.035)"><path
           d="m 0,0 -57.775002,0 0,-77.839996 -3.032997,0 6.064999,-5.764 6.059002,5.764 -3.027001,0 0,71.780996 L 0,-6.059 0,0 Z"
           style="fill:none;stroke:#131413;stroke-width:0.30000001;stroke-linecap:round;stroke-linejoin:round;stroke-miterlimit:10;stroke-dasharray:none;stroke-opacity:1"
           id="path4285"
           inkscape:connector-curvature="0" /></g><g
         id="g4287"
         transform="translate(133.10699,165.446)"><path
           d="m 0,0 0,-23.951 45.501999,0 0,-3.032 5.760002,6.063999 -5.760002,6.064001 0,-3.031999 -39.4379989,0 L 6.0640001,0 0,0"
           style="fill:#ffffff;fill-opacity:1;fill-rule:evenodd;stroke:none"
           id="path4289"
           inkscape:connector-curvature="0" /></g><g
         id="g4291"
         transform="translate(133.10699,165.446)"><path
           d="m 0,0 0,-23.951 45.501999,0 0,-3.032 5.760002,6.063999 -5.760002,6.064001 0,-3.031999 -39.4379989,0 L 6.0640001,0 0,0 Z"
           style="fill:none;stroke:#131413;stroke-width:0.30000001;stroke-linecap:round;stroke-linejoin:round;stroke-miterlimit:10;stroke-dasharray:none;stroke-opacity:1"
           id="path4293"
           inkscape:connector-curvature="0" /></g><g
         id="g4295"
         transform="translate(373.51801,161.965)"><path
           d="m 0,0 -5.7480001,0 0,-12.133 -52.9730009,0 0,12.133 -5.753997,0 0,-12.133 -36.000002,0 0,-6.064001 137.198,0 0,-3.031999 6.053001,6.064 L 36.723,-9.1009998 36.723,-12.133 0,-12.133 0,0"
           style="fill:#ffffff;fill-opacity:1;fill-rule:evenodd;stroke:none"
           id="path4297"
           inkscape:connector-curvature="0" /></g><g
         id="g4299"
         transform="translate(373.51801,161.965)"><path
           d="m 0,0 -5.7480001,0 0,-12.133 -52.9730009,0 0,12.133 -5.753997,0 0,-12.133 -36.000002,0 0,-6.064001 137.198,0 0,-3.031999 6.053001,6.064 L 36.723,-9.1009998 36.723,-12.133 0,-12.133 0,0 Z"
           style="fill:none;stroke:#131413;stroke-width:0.30000001;stroke-linecap:round;stroke-linejoin:round;stroke-miterlimit:10;stroke-dasharray:none;stroke-opacity:1"
           id="path4301"
           inkscape:connector-curvature="0" /></g><text
         y="-144.93401"
         x="316.578"
         transform="scale(1,-1)"
         style="font-variant:normal;font-weight:normal;font-size:5.34759998px;font-family:Arial;-inkscape-font-specification:ArialMT3;writing-mode:lr-tb;fill:#131413;fill-opacity:1;fill-rule:nonzero;stroke:none"
         id="text4303"><tspan
           x="316.578 319.55179 322.5256 325.49939 326.6871 329.66089 330.8486 332.33578 335.30957 338.28339 341.25717 344.23099 347.4989 351.36093 354.33472 355.8219 358.79568 361.7695 363.25665 364.44437 367.41818 370.0925"
           y="-144.93401"
           sodipodi:role="line"
           id="tspan4305">begleitenderDatenfluss</tspan></text>
<path
         d="m 59.310001,165.218 30.317,0 0,16.219 -30.317,0 0,-16.219 z"
         style="fill:#ffffff;fill-opacity:1;fill-rule:nonzero;stroke:none"
         id="path4307"
         inkscape:connector-curvature="0" /><path
         d="m 59.310001,165.218 30.317,0 0,16.219 -30.317,0 0,-16.219 z"
         style="fill:none;stroke:#131413;stroke-width:0.30000001;stroke-linecap:round;stroke-linejoin:round;stroke-miterlimit:10;stroke-dasharray:none;stroke-opacity:1"
         id="path4309"
         inkscape:connector-curvature="0" /><path
         d="m 59.310001,149.227 30.317,0 0,16.22 -30.317,0 0,-16.22 z"
         style="fill:#ffffff;fill-opacity:1;fill-rule:nonzero;stroke:none"
         id="path4311"
         inkscape:connector-curvature="0" /><path
         d="m 59.310001,149.227 30.317,0 0,16.22 -30.317,0 0,-16.22 z"
         style="fill:none;stroke:#131413;stroke-width:0.30000001;stroke-linecap:round;stroke-linejoin:round;stroke-miterlimit:10;stroke-dasharray:none;stroke-opacity:1"
         id="path4313"
         inkscape:connector-curvature="0" /><path
         d="m 59.310001,133.158 30.317,0 0,16.22 -30.317,0 0,-16.22 z"
         style="fill:#ffffff;fill-opacity:1;fill-rule:nonzero;stroke:none"
         id="path4315"
         inkscape:connector-curvature="0" /><path
         d="m 59.310001,133.158 30.317,0 0,16.22 -30.317,0 0,-16.22 z"
         style="fill:none;stroke:#131413;stroke-width:0.30000001;stroke-linecap:round;stroke-linejoin:round;stroke-miterlimit:10;stroke-dasharray:none;stroke-opacity:1"
         id="path4317"
         inkscape:connector-curvature="0" /><path
         d="m 59.310001,116.938 30.317,0 0,16.221 -30.317,0 0,-16.221 z"
         style="fill:#ffffff;fill-opacity:1;fill-rule:nonzero;stroke:none"
         id="path4319"
         inkscape:connector-curvature="0" /><path
         d="m 59.310001,116.938 30.317,0 0,16.221 -30.317,0 0,-16.221 z"
         style="fill:none;stroke:#131413;stroke-width:0.30000001;stroke-linecap:round;stroke-linejoin:round;stroke-miterlimit:10;stroke-dasharray:none;stroke-opacity:1"
         id="path4321"
         inkscape:connector-curvature="0" /><path
         d="m 59.310001,181.36099 30.317,0 0,16.22 -30.317,0 0,-16.22 z"
         style="fill:#ffffff;fill-opacity:1;fill-rule:nonzero;stroke:none"
         id="path4323"
         inkscape:connector-curvature="0" /><path
         d="m 59.310001,181.36099 30.317,0 0,16.22 -30.317,0 0,-16.22 z"
         style="fill:none;stroke:#131413;stroke-width:0.30000001;stroke-linecap:round;stroke-linejoin:round;stroke-miterlimit:10;stroke-dasharray:none;stroke-opacity:1"
         id="path4325"
         inkscape:connector-curvature="0" /><path
         d="m 59.310001,197.65601 30.317,0 0,16.218 -30.317,0 0,-16.218 z"
         style="fill:#ffffff;fill-opacity:1;fill-rule:nonzero;stroke:none"
         id="path4327"
         inkscape:connector-curvature="0" /><path
         d="m 59.310001,197.65601 30.317,0 0,16.218 -30.317,0 0,-16.218 z"
         style="fill:none;stroke:#131413;stroke-width:0.30000001;stroke-linecap:round;stroke-linejoin:round;stroke-miterlimit:10;stroke-dasharray:none;stroke-opacity:1"
         id="path4329"
         inkscape:connector-curvature="0" /><path
         d="m 59.310001,213.72501 30.317,0 0,16.219 -30.317,0 0,-16.219 z"
         style="fill:#ffffff;fill-opacity:1;fill-rule:nonzero;stroke:none"
         id="path4331"
         inkscape:connector-curvature="0" /><path
         d="m 59.310001,213.72501 30.317,0 0,16.219 -30.317,0 0,-16.219 z"
         style="fill:none;stroke:#131413;stroke-width:0.30000001;stroke-linecap:round;stroke-linejoin:round;stroke-miterlimit:10;stroke-dasharray:none;stroke-opacity:1"
         id="path4333"
         inkscape:connector-curvature="0" /><g
         id="g4335"
         transform="translate(184.84599,173.32899)"><path
           d="m 0,0 -15.162,-16.059999 0,8.033999 -110.374,0 0,16.0530004 110.374,0 0,8.0270006 L 0,0"
           style="fill:#ececec;fill-opacity:1;fill-rule:nonzero;stroke:none"
           id="path4337"
           inkscape:connector-curvature="0" /></g><g
         id="g4339"
         transform="translate(184.84599,173.32899)"><path
           d="m 0,0 -15.162,-16.059999 0,8.033999 -110.374,0 0,16.0530004 110.374,0 0,8.0270006 L 0,0 Z"
           style="fill:none;stroke:#131413;stroke-width:0.30000001;stroke-linecap:round;stroke-linejoin:round;stroke-miterlimit:10;stroke-dasharray:none;stroke-opacity:1"
           id="path4341"
           inkscape:connector-curvature="0" /></g><text
         y="-171.40401"
         x="98.187798"
         transform="scale(1,-1)"
         style="font-variant:normal;font-weight:normal;font-size:6.41720009px;font-family:Arial;-inkscape-font-specification:ArialMT3;writing-mode:lr-tb;fill:#131413;fill-opacity:1;fill-rule:nonzero;stroke:none"
         id="text4343"><tspan
           x="98.187798 102.1087 104.24564 107.8136 111.38156 114.59016 118.15813 121.72609 123.86301 125.647 128.85559 132.06419 135.2728 137.05678 140.62474"
           y="-171.40401"
           sodipodi:role="line"
           id="tspan4345">Transportsystem</tspan><tspan
           x="61.44997 65.730888 69.299492 72.868095 74.652718 78.221321 79.646584 81.071846 82.497101 86.065712 89.634315 93.202919"
           y="-240.7348"
           sodipodi:role="line"
           id="tspan4347">Bauteillager</tspan><tspan
           x="61.44997 65.730888 69.299492 70.724754 74.293358 76.07798 77.862602 81.431206 84.999809 86.425072 89.993675 93.562279 97.13089"
           y="-233.03479"
           sodipodi:role="line"
           id="tspan4349">Palettenlager</tspan><tspan
           x="61.44997 67.508453 71.077057 73.214622 76.423866 79.63311 83.201714 86.770317 90.338921 91.764183 95.332787 98.90139 102.46999"
           y="-108.93578"
           sodipodi:role="line"
           id="tspan4351">Werkzeuglager</tspan><tspan
           x="61.44997 65.730888 69.299492 71.437057 73.574631 74.999886 78.209129 81.777733 83.562363 87.130966 90.69957 94.268173 97.477417 98.902679 102.47128 106.03989 109.60849"
           y="-101.23514"
           sodipodi:role="line"
           id="tspan4353">Vorrichtungslager</tspan></text>
<path
         d="m 190.909,254.425 75.792,0 0,15.158 -75.792,0 0,-15.158 z"
         style="fill:#ffffff;fill-opacity:1;fill-rule:nonzero;stroke:none"
         id="path4355"
         inkscape:connector-curvature="0" /><path
         d="m 190.909,254.425 75.792,0 0,15.158 -75.792,0 0,-15.158 z"
         style="fill:none;stroke:#131413;stroke-width:0.5;stroke-linecap:round;stroke-linejoin:round;stroke-miterlimit:10;stroke-dasharray:none;stroke-opacity:1"
         id="path4357"
         inkscape:connector-curvature="0" /><text
         y="-259.758"
         x="210.08"
         transform="scale(1,-1)"
         style="font-variant:normal;font-weight:normal;font-size:7.48649979px;font-family:Arial;-inkscape-font-specification:ArialMT3;writing-mode:lr-tb;fill:#131413;fill-opacity:1;fill-rule:nonzero;stroke:none"
         id="text4359"><tspan
           x="210.08 214.24324 218.40648 220.06924 222.15123 224.64499 228.80823 232.55223 236.71547 240.87871 245.04195"
           y="-259.758"
           sodipodi:role="line"
           id="tspan4361">Leitrechner</tspan></text>
<path
         d="m 184.84599,133.158 87.918,0 0,80.34301 -87.918,0 0,-80.34301 z"
         style="fill:#ffffff;fill-opacity:1;fill-rule:nonzero;stroke:none"
         id="path4363"
         inkscape:connector-curvature="0" /><path
         d="m 184.84599,133.158 87.918,0 0,80.34301 -87.918,0 0,-80.34301 z"
         style="fill:none;stroke:#131413;stroke-width:0.5;stroke-linecap:round;stroke-linejoin:round;stroke-miterlimit:10;stroke-dasharray:none;stroke-opacity:1"
         id="path4365"
         inkscape:connector-curvature="0" /><text
         y="-204.62399"
         x="190.51801"
         transform="scale(1,-1)"
         style="font-variant:normal;font-weight:normal;font-size:7.48649979px;font-family:Arial;-inkscape-font-specification:ArialMT3;writing-mode:lr-tb;fill:#131413;fill-opacity:1;fill-rule:nonzero;stroke:none"
         id="text4367"><tspan
           x="190.51801 195.92401 200.08725 206.32425 210.4875 212.98125 214.644 218.388 222.132 226.29524 232.53824 237.53249 239.61447 243.77773 247.94096 252.1042 254.59796 258.7612 262.92444"
           y="-204.62399"
           sodipodi:role="line"
           id="tspan4369">NumerischeSteuerung</tspan><tspan
           x="203.21886 208.21236 212.37485 214.45609 216.9491 218.6111 222.77359 226.9361 230.67934 234.42259 238.16583 241.90909 243.99034 248.15283"
           y="-186.65564"
           sodipodi:role="line"
           id="tspan4371">Antriebssystem</tspan><tspan
           x="208.00497 214.24123 218.40372 222.14697 225.89023 229.63347 233.37672 237.11998 239.20122 243.36371"
           y="-141.73515"
           sodipodi:role="line"
           id="tspan4373">Messsystem</tspan></text>
<path
         d="m 190.42799,158.92799 75.792,0 0,15.158 -75.792,0 0,-15.158 z"
         style="fill:#ffffff;fill-opacity:1;fill-rule:nonzero;stroke:none"
         id="path4375"
         inkscape:connector-curvature="0" /><path
         d="m 190.42799,158.92799 75.792,0 0,15.158 -75.792,0 0,-15.158 z"
         style="fill:none;stroke:#131413;stroke-width:0.5;stroke-linecap:round;stroke-linejoin:round;stroke-miterlimit:10;stroke-dasharray:none;stroke-opacity:1"
         id="path4377"
         inkscape:connector-curvature="0" /><text
         y="-164.261"
         x="205.653"
         transform="scale(1,-1)"
         style="font-variant:normal;font-weight:normal;font-size:7.48649979px;font-family:Arial;-inkscape-font-specification:ArialMT3;writing-mode:lr-tb;fill:#131413;fill-opacity:1;fill-rule:nonzero;stroke:none"
         id="text4379"><tspan
           x="205.653 211.05901 216.465 218.95876 225.19576 229.35901 233.103 236.847 241.01024 242.67299 246.83624"
           y="-164.261"
           sodipodi:role="line"
           id="tspan4381">NC-Maschine</tspan></text>
<g
         id="g4383"
         transform="translate(190.42799,197.778)"><path
           d="M 0,0 75.796997,0"
           style="fill:none;stroke:#131413;stroke-width:0.5;stroke-linecap:round;stroke-linejoin:round;stroke-miterlimit:10;stroke-dasharray:none;stroke-opacity:1"
           id="path4385"
           inkscape:connector-curvature="0" /><g
           id="g4387"
           transform="translate(0.31,-46.426998)"><path
             d="M 0,0 75.796997,0"
             style="fill:none;stroke:#131413;stroke-width:0.5;stroke-linecap:round;stroke-linejoin:round;stroke-miterlimit:10;stroke-dasharray:none;stroke-opacity:1"
             id="path4389"
             inkscape:connector-curvature="0" /><g
             id="g4391"
             transform="translate(0,30.315001)"><path
               d="M 0,0 75.796997,0"
               style="fill:none;stroke:#131413;stroke-width:0.5;stroke-linecap:round;stroke-linejoin:round;stroke-miterlimit:10;stroke-dasharray:none;stroke-opacity:1"
               id="path4393"
               inkscape:connector-curvature="0" /></g></g></g><g
         id="g4395"
         transform="translate(372.78601,184.463)"><path
           d="m 0,0 0,80.571999 -100.326,0 0,3.031997 -5.759,-6.063995 5.759,-6.058998 0,3.031997 36.646,0 0,-18.192001 -57.283,0 0,-21.223999 -3.031,0 6.063,-5.76 6.065,5.76 -3.032,0 0,15.16 51.218,0 0,-50.257 5.761001,0 0,74.513 51.8589991,0 0,-74.513 L 0,0"
           style="fill:#ffffff;fill-opacity:1;fill-rule:evenodd;stroke:none"
           id="path4397"
           inkscape:connector-curvature="0" /></g><g
         id="g4399"
         transform="translate(372.78601,184.463)"><path
           d="m 0,0 0,80.571999 -100.326,0 0,3.031997 -5.759,-6.063995 5.759,-6.058998 0,3.031997 36.646,0 0,-18.192001 -57.283,0 0,-21.223999 -3.031,0 6.063,-5.76 6.065,5.76 -3.032,0 0,15.16 51.218,0 0,-50.257 5.761001,0 0,74.513 51.8589991,0 0,-74.513 L 0,0 Z"
           style="fill:none;stroke:#131413;stroke-width:0.30000001;stroke-linecap:round;stroke-linejoin:round;stroke-miterlimit:10;stroke-dasharray:none;stroke-opacity:1"
           id="path4401"
           inkscape:connector-curvature="0" /></g><path
         d="m 191.186,349.922 75.793,0 0,15.159 -75.793,0 0,-15.159 z"
         style="fill:#ffffff;fill-opacity:1;fill-rule:nonzero;stroke:none"
         id="path4403"
         inkscape:connector-curvature="0" /><path
         d="m 191.186,349.922 75.793,0 0,15.159 -75.793,0 0,-15.159 z"
         style="fill:none;stroke:#131413;stroke-width:0.5;stroke-linecap:round;stroke-linejoin:round;stroke-miterlimit:10;stroke-dasharray:none;stroke-opacity:1"
         id="path4405"
         inkscape:connector-curvature="0" /><text
         y="-355.58099"
         x="195.015"
         transform="scale(1,-1)"
         style="font-variant:normal;font-weight:normal;font-size:6.41720009px;font-family:Arial;-inkscape-font-specification:ArialMT3;writing-mode:lr-tb;fill:#131413;fill-opacity:1;fill-rule:nonzero;stroke:none"
         id="text4407"><tspan
           x="195.015 199.64886 203.21747 205.00209 208.57069 210.70827 214.27687 217.84547 221.41408 226.76025 230.32886 233.89746 237.1067 238.53197 242.10057 243.52582 245.31046 248.87906 252.44766 256.01627 259.58487"
           y="-355.58099"
           sodipodi:role="line"
           id="tspan4409">Unternehmensleitebene</tspan></text>
<g
         id="g4411"
         transform="translate(228.80701,269.58499)"><path
           d="m 0,0 -6.0640001,6.0640001 3.032,0 0,10.3589999 6.0600002,0 0,-10.3589999 3.0309999,0 L 0,0"
           style="fill:#ffffff;fill-opacity:1;fill-rule:evenodd;stroke:none"
           id="path4413"
           inkscape:connector-curvature="0" /></g><g
         id="g4415"
         transform="translate(228.80701,269.58499)"><path
           d="m 0,0 -6.0640001,6.0640001 3.032,0 0,10.3589999 6.0600002,0 0,-10.3589999 3.0309999,0 L 0,0 Z"
           style="fill:none;stroke:#131413;stroke-width:0.30000001;stroke-linecap:round;stroke-linejoin:round;stroke-miterlimit:10;stroke-dasharray:none;stroke-opacity:1"
           id="path4417"
           inkscape:connector-curvature="0" /></g><path
         d="m 190.909,286.26001 75.792,0 0,15.158 -75.792,0 0,-15.158 z"
         style="fill:#ffffff;fill-opacity:1;fill-rule:nonzero;stroke:none"
         id="path4419"
         inkscape:connector-curvature="0" /><path
         d="m 190.909,286.26001 75.792,0 0,15.158 -75.792,0 0,-15.158 z"
         style="fill:none;stroke:#131413;stroke-width:0.5;stroke-linecap:round;stroke-linejoin:round;stroke-miterlimit:10;stroke-dasharray:none;stroke-opacity:1"
         id="path4421"
         inkscape:connector-curvature="0" /><text
         y="-291.91299"
         x="198.834"
         transform="scale(1,-1)"
         style="font-variant:normal;font-weight:normal;font-size:6.41720009px;font-family:Arial;-inkscape-font-specification:ArialMT3;writing-mode:lr-tb;fill:#131413;fill-opacity:1;fill-rule:nonzero;stroke:none"
         id="text4423"><tspan
           x="198.834 203.11491 205.25249 208.82109 212.38969 215.9583 219.16754 220.95216 222.37743 225.94603 229.51463 232.72388 234.14914 237.71774 239.14301 240.92763 244.49623 248.06483 251.63344 255.20204"
           y="-291.91299"
           sodipodi:role="line"
           id="tspan4425">Produktionsleitebene</tspan></text>
<g
         id="g4427"
         transform="translate(229.086,301.42001)"><path
           d="m 0,0 -6.065,6.059 3.0329999,0 0,10.358 6.0640002,0 0,-10.358 3.0310001,0 L 0,0"
           style="fill:#ffffff;fill-opacity:1;fill-rule:evenodd;stroke:none"
           id="path4429"
           inkscape:connector-curvature="0" /></g><g
         id="g4431"
         transform="translate(229.086,301.42001)"><path
           d="m 0,0 -6.065,6.059 3.0329999,0 0,10.358 6.0640002,0 0,-10.358 3.0310001,0 L 0,0 Z"
           style="fill:none;stroke:#131413;stroke-width:0.30000001;stroke-linecap:round;stroke-linejoin:round;stroke-miterlimit:10;stroke-dasharray:none;stroke-opacity:1"
           id="path4433"
           inkscape:connector-curvature="0" /></g><path
         d="m 191.186,318.09399 75.793,0 0,15.158 -75.793,0 0,-15.158 z"
         style="fill:#ffffff;fill-opacity:1;fill-rule:nonzero;stroke:none"
         id="path4435"
         inkscape:connector-curvature="0" /><path
         d="m 191.186,318.09399 75.793,0 0,15.158 -75.793,0 0,-15.158 z"
         style="fill:none;stroke:#131413;stroke-width:0.5;stroke-linecap:round;stroke-linejoin:round;stroke-miterlimit:10;stroke-dasharray:none;stroke-opacity:1"
         id="path4437"
         inkscape:connector-curvature="0" /><text
         y="-323.74701"
         x="204.289"
         transform="scale(1,-1)"
         style="font-variant:normal;font-weight:normal;font-size:6.41720009px;font-family:Arial;-inkscape-font-specification:ArialMT3;writing-mode:lr-tb;fill:#131413;fill-opacity:1;fill-rule:nonzero;stroke:none"
         id="text4439"><tspan
           x="204.289 208.56992 212.13852 213.92314 216.06071 217.48598 221.05458 224.62318 227.83243 229.25769 232.82629 234.25156 236.03618 239.60478 243.17339 246.74199 250.31059"
           y="-323.74701"
           sodipodi:role="line"
           id="tspan4441">Betriebsleitebene</tspan></text>
<g
         id="g4443"
         transform="translate(229.086,333.24899)"><path
           d="m 0,0 -6.065,6.0640001 3.0329999,0 0,10.3580009 6.0640002,0 0,-10.3580009 3.0310001,0 L 0,0"
           style="fill:#ffffff;fill-opacity:1;fill-rule:evenodd;stroke:none"
           id="path4445"
           inkscape:connector-curvature="0" /></g><g
         id="g4447"
         transform="translate(229.086,333.24899)"><path
           d="m 0,0 -6.065,6.0640001 3.0329999,0 0,10.3580009 6.0640002,0 0,-10.3580009 3.0310001,0 L 0,0 Z"
           style="fill:none;stroke:#131413;stroke-width:0.30000001;stroke-linecap:round;stroke-linejoin:round;stroke-miterlimit:10;stroke-dasharray:none;stroke-opacity:1"
           id="path4449"
           inkscape:connector-curvature="0" /></g></g></g></svg>