<?xml version="1.0" encoding="UTF-8" standalone="no"?>
<svg
   xmlns:dc="http://purl.org/dc/elements/1.1/"
   xmlns:cc="http://creativecommons.org/ns#"
   xmlns:rdf="http://www.w3.org/1999/02/22-rdf-syntax-ns#"
   xmlns:svg="http://www.w3.org/2000/svg"
   xmlns="http://www.w3.org/2000/svg"
   xmlns:sodipodi="http://sodipodi.sourceforge.net/DTD/sodipodi-0.dtd"
   xmlns:inkscape="http://www.inkscape.org/namespaces/inkscape"
   width="367.62222pt"
   stroke-miterlimit="10"
   font-weight="normal"
   height="135.87851pt"
   font-style="normal"
   font-size="12"
   id="svg2"
   version="1.1"
   inkscape:version="0.91 r13725"
   sodipodi:docname="horizontale-integration.svg"
   style="font-style:normal;font-weight:normal;font-size:12px;font-family:Dialog;color-interpolation:auto;fill:#000000;fill-opacity:0;stroke:#000000;stroke-width:1;stroke-linecap:square;stroke-linejoin:miter;stroke-miterlimit:10;stroke-dasharray:none;stroke-dashoffset:0;stroke-opacity:0;color-rendering:auto;image-rendering:auto;shape-rendering:auto;text-rendering:auto">
  <metadata
     id="metadata406">
    <rdf:RDF>
      <cc:Work
         rdf:about="">
        <dc:format>image/svg+xml</dc:format>
        <dc:type
           rdf:resource="http://purl.org/dc/dcmitype/StillImage" />
        <dc:title />
      </cc:Work>
    </rdf:RDF>
  </metadata>
  <sodipodi:namedview
     pagecolor="#ffffff"
     bordercolor="#666666"
     borderopacity="1"
     objecttolerance="10"
     gridtolerance="10"
     guidetolerance="10"
     inkscape:pageopacity="0"
     inkscape:pageshadow="2"
     inkscape:window-width="1920"
     inkscape:window-height="1057"
     id="namedview404"
     showgrid="false"
     units="pt"
     inkscape:document-units="pt"
     fit-margin-top="0"
     fit-margin-left="0"
     fit-margin-right="0"
     fit-margin-bottom="0"
     inkscape:zoom="1.6944889"
     inkscape:cx="235.32895"
     inkscape:cy="-3.4917624"
     inkscape:window-x="1366"
     inkscape:window-y="23"
     inkscape:window-maximized="1"
     inkscape:current-layer="g216" />
  <!--Generated by the Batik Graphics2D SVG Generator-->
  <defs
     id="genericDefs">
    <defs
       id="defs1">
      <clipPath
         id="clipPath1"
         clipPathUnits="userSpaceOnUse">
        <path
           id="path9"
           d="m -7,-7 88,0 0,58 -88,0 0,-58 z"
           inkscape:connector-curvature="0" />
      </clipPath>
      <clipPath
         id="clipPath2"
         clipPathUnits="userSpaceOnUse">
        <path
           id="path12"
           d="M 0,0 0,40 70,40 70,0 Z"
           inkscape:connector-curvature="0" />
      </clipPath>
      <clipPath
         id="clipPath3"
         clipPathUnits="userSpaceOnUse">
        <path
           id="path15"
           d="m -7,-7 78,0 0,78 -78,0 0,-78 z"
           inkscape:connector-curvature="0" />
      </clipPath>
      <clipPath
         id="clipPath4"
         clipPathUnits="userSpaceOnUse">
        <path
           id="path18"
           d="m -27,-27 78,0 0,78 -78,0 0,-78 z"
           inkscape:connector-curvature="0" />
      </clipPath>
      <clipPath
         id="clipPath5"
         clipPathUnits="userSpaceOnUse">
        <path
           id="path21"
           d="m -7,-7 110,0 0,58 -110,0 0,-58 z"
           inkscape:connector-curvature="0" />
      </clipPath>
      <clipPath
         id="clipPath6"
         clipPathUnits="userSpaceOnUse">
        <path
           id="path24"
           d="M 0,0 0,40 92,40 92,0 Z"
           inkscape:connector-curvature="0" />
      </clipPath>
      <clipPath
         id="clipPath7"
         clipPathUnits="userSpaceOnUse">
        <path
           id="path27"
           d="m -7,-7 206,0 0,47 -206,0 0,-47 z"
           inkscape:connector-curvature="0" />
      </clipPath>
      <clipPath
         id="clipPath8"
         clipPathUnits="userSpaceOnUse">
        <path
           id="path30"
           d="m 433.679,652.5106 116.3842,0 0,276.4706 -116.3842,0 0,-276.4706 z"
           inkscape:connector-curvature="0" />
      </clipPath>
      <clipPath
         id="clipPath9"
         clipPathUnits="userSpaceOnUse">
        <path
           id="path33"
           d="m 424.0008,687.9435 206,0.008 -0.002,47 -206,-0.008 0.002,-47 z"
           inkscape:connector-curvature="0" />
      </clipPath>
      <clipPath
         id="clipPath10"
         clipPathUnits="userSpaceOnUse">
        <path
           id="path36"
           d="M 177,0 0,0 0,17 177,17 177,0 Z"
           inkscape:connector-curvature="0" />
      </clipPath>
      <clipPath
         id="clipPath11"
         clipPathUnits="userSpaceOnUse">
        <path
           id="path39"
           d="m -7,-7 194,0 0,47 -194,0 0,-47 z"
           inkscape:connector-curvature="0" />
      </clipPath>
      <clipPath
         id="clipPath12"
         clipPathUnits="userSpaceOnUse">
        <path
           id="path42"
           d="m 433.1374,652.5032 117.5757,0 0,276.4706 -117.5757,0 0,-276.4706 z"
           inkscape:connector-curvature="0" />
      </clipPath>
      <clipPath
         id="clipPath13"
         clipPathUnits="userSpaceOnUse">
        <path
           id="path45"
           d="m 792.0012,686.9948 194,0.0106 -0.003,47 -194,-0.0106 0.003,-47 z"
           inkscape:connector-curvature="0" />
      </clipPath>
      <clipPath
         id="clipPath14"
         clipPathUnits="userSpaceOnUse">
        <path
           id="path48"
           d="M 165,0 0,0 0,17 165,17 165,0 Z"
           inkscape:connector-curvature="0" />
      </clipPath>
      <clipPath
         id="clipPath15"
         clipPathUnits="userSpaceOnUse">
        <path
           id="path51"
           d="m -95,-14 285,0 0,42 -285,0 0,-42 z"
           inkscape:connector-curvature="0" />
      </clipPath>
      <clipPath
         id="clipPath16"
         clipPathUnits="userSpaceOnUse">
        <path
           id="path54"
           d="m -97,-14 291,0 0,42 -291,0 0,-42 z"
           inkscape:connector-curvature="0" />
      </clipPath>
      <clipPath
         id="clipPath17"
         clipPathUnits="userSpaceOnUse">
        <path
           id="path57"
           d="m -59,-14 177,0 0,42 -177,0 0,-42 z"
           inkscape:connector-curvature="0" />
      </clipPath>
      <clipPath
         id="clipPath18"
         clipPathUnits="userSpaceOnUse">
        <path
           id="path60"
           d="m -120,-14 360,0 0,42 -360,0 0,-42 z"
           inkscape:connector-curvature="0" />
      </clipPath>
      <clipPath
         id="clipPath19"
         clipPathUnits="userSpaceOnUse">
        <path
           id="path63"
           d="m -77,-14 231,0 0,42 -231,0 0,-42 z"
           inkscape:connector-curvature="0" />
      </clipPath>
      <clipPath
         id="clipPath20"
         clipPathUnits="userSpaceOnUse">
        <path
           id="path66"
           d="M 0,0 207,0 207,104 0,104 0,0 Z"
           inkscape:connector-curvature="0" />
      </clipPath>
      <clipPath
         id="clipPath21"
         clipPathUnits="userSpaceOnUse">
        <path
           id="path69"
           d="m 124,54 0,14 -77,0 0,-14 z m 62,25 0,14 -120,0 0,-14 z M 0,0 l 0,104 207,0 0,-12 -17,0 0,-14 17,0 0,-78 z"
           inkscape:connector-curvature="0" />
      </clipPath>
      <clipPath
         id="clipPath22"
         clipPathUnits="userSpaceOnUse">
        <path
           id="path72"
           d="M 0,0 104,0 104,168 0,168 0,0 Z"
           inkscape:connector-curvature="0" />
      </clipPath>
      <clipPath
         id="clipPath23"
         clipPathUnits="userSpaceOnUse">
        <path
           id="path75"
           d="m 0,0 0,66 47,0 0,14 -47,0 0,88 104,0 0,-89 -53,0 0,-14 53,0 0,-65 z"
           inkscape:connector-curvature="0" />
      </clipPath>
      <clipPath
         id="clipPath24"
         clipPathUnits="userSpaceOnUse">
        <path
           id="path78"
           d="M 0,0 234,0 234,189 0,189 0,0 Z"
           inkscape:connector-curvature="0" />
      </clipPath>
      <clipPath
         id="clipPath25"
         clipPathUnits="userSpaceOnUse">
        <path
           id="path81"
           d="m 162,41 0,14 -77,0 0,-14 z m 62,25 0,14 -120,0 0,-14 z m -49,47 0,14 -97,0 0,-14 z M 0,0 l 0,189 234,0 0,-110 -6,0 0,-14 6,0 0,-65 z"
           inkscape:connector-curvature="0" />
      </clipPath>
      <clipPath
         id="clipPath26"
         clipPathUnits="userSpaceOnUse">
        <path
           id="path84"
           d="m 0,0 0,66 46,0 0,14 -46,0 0,88 104,0 0,-10 -10,0 0,-14 10,0 0,-63 -53,0 0,-14 0,-14 53,0 0,-53 z"
           inkscape:connector-curvature="0" />
      </clipPath>
      <clipPath
         id="clipPath27"
         clipPathUnits="userSpaceOnUse">
        <path
           id="path87"
           d="M 0,0 158,0 158,104 0,104 0,0 Z"
           inkscape:connector-curvature="0" />
      </clipPath>
      <clipPath
         id="clipPath28"
         clipPathUnits="userSpaceOnUse">
        <path
           id="path90"
           d="m 106,59 0,14 -59,0 0,-14 z M 0,0 0,104 158,104 158,0 Z"
           inkscape:connector-curvature="0" />
      </clipPath>
    </defs>
  </defs>
  <g
     style="fill:#ffffff;fill-opacity:1;stroke:#ffffff;stroke-opacity:1;text-rendering:geometricPrecision"
     id="g92"
     transform="matrix(0.6946754,0,0,0.6946754,0.3473377,0.3473377)">
    <rect
       style="stroke:none"
       id="rect94"
       y="0"
       height="244"
       width="661"
       x="0" />
    <rect
       style="fill:none;stroke:#000000"
       id="rect96"
       height="243"
       width="660"
       transform="translate(-389,-527)"
       y="527"
       x="389" />
    <text
       style="font-weight:bold;fill:#000000;stroke:none"
       id="text98"
       xml:space="preserve"
       font-weight="bold"
       transform="translate(-389,-527)"
       y="543"
       x="396">sd</text>
    <text
       style="fill:#000000;stroke:none"
       id="text100"
       transform="translate(-389,-527)"
       y="543"
       xml:space="preserve"
       x="420">Horizontal VMR-Integration</text>
    <line
       style="fill:none;stroke:#000000"
       id="line102"
       y2="550"
       y1="550"
       x2="585"
       x1="389"
       transform="translate(-389,-527)" />
    <line
       style="fill:none;stroke:#000000"
       id="line104"
       y2="540"
       y1="527"
       x2="591"
       x1="591"
       transform="translate(-389,-527)" />
    <line
       style="fill:none;stroke:#000000"
       id="line106"
       y2="550"
       y1="540"
       x2="585"
       x1="591"
       transform="translate(-389,-527)" />
  </g>
  <g
     style="font-size:14px;font-family:sans-serif;fill:#ffffff;fill-opacity:1;stroke:#ffffff;stroke-opacity:1;text-rendering:geometricPrecision"
     id="g176"
     transform="matrix(1.2295755,0,0,0.11809482,-497.56914,64.308325)"
     font-size="14">
    <path
       style="fill-rule:evenodd;stroke:none"
       inkscape:connector-curvature="0"
       id="path178"
       clip-path="url(#clipPath8)"
       d="m 441.0237,829.6025 0,-100.5835 100,-0.0377 0,100.5831 -100,0.0381 z" />
  </g>
  <g
     style="font-size:14px;fill:#000000;fill-opacity:1;stroke:#000000;stroke-opacity:1;text-rendering:geometricPrecision"
     id="g180"
     transform="matrix(0.6946754,0,0,0.6946754,56.411,149.75257)"
     font-size="14">
    <text
       style="stroke:none"
       id="text182"
       clip-path="url(#clipPath10)"
       y="13"
       xml:space="preserve"
       x="0">a) Local Discovery Server</text>
  </g>
  <g
     style="font-size:14px;fill:#000000;fill-opacity:1;stroke:#000000;stroke-opacity:1;text-rendering:geometricPrecision"
     id="g224"
     transform="matrix(0.6946754,-6.946754e-5,6.946754e-5,0.6946754,304.64346,150.37486)"
     font-size="14">
    <text
       style="stroke:none"
       id="text226"
       clip-path="url(#clipPath14)"
       y="13"
       xml:space="preserve"
       x="0">b) Multicast DNS</text>
  </g>
  <g
     id="g4565">
    <g
       font-size="11"
       transform="matrix(0.6946754,0,0,0.6946754,16.324872,34.386432)"
       id="g108"
       style="font-size:11px;font-family:sans-serif;fill:#ffffff;fill-opacity:1;stroke:#ffffff;stroke-opacity:1;text-rendering:geometricPrecision">
      <rect
         x="0"
         width="70"
         height="40"
         y="0"
         clip-path="url(#clipPath1)"
         id="rect110"
         style="stroke:none" />
    </g>
    <g
       font-size="11"
       transform="matrix(0.6946754,0,0,0.6946754,16.324872,34.386432)"
       stroke-miterlimit="0"
       id="g112"
       style="font-size:11px;font-family:sans-serif;fill:#000000;fill-opacity:1;stroke:#000000;stroke-linecap:butt;stroke-linejoin:round;stroke-miterlimit:0;stroke-opacity:1;text-rendering:geometricPrecision">
      <rect
         x="0"
         width="70"
         height="40"
         y="0"
         clip-path="url(#clipPath1)"
         id="rect114"
         style="fill:none" />
    </g>
    <g
       font-size="11"
       transform="matrix(0.6946754,0,0,0.6946754,16.324872,34.386432)"
       id="g116"
       style="font-size:11px;font-family:sans-serif;fill:#000000;fill-opacity:1;stroke:#000000;stroke-opacity:1;text-rendering:geometricPrecision">
      <text
         x="18"
         xml:space="preserve"
         y="24"
         clip-path="url(#clipPath2)"
         id="text118"
         style="stroke:none">VMR 1</text>
    </g>
    <g
       font-size="11"
       transform="matrix(0.6946754,0,0,0.6946754,137.89307,34.386432)"
       id="g120"
       style="font-size:11px;font-family:sans-serif;fill:#ffffff;fill-opacity:1;stroke:#ffffff;stroke-opacity:1;text-rendering:geometricPrecision">
      <rect
         x="0"
         width="70"
         height="40"
         y="0"
         clip-path="url(#clipPath1)"
         id="rect122"
         style="stroke:none" />
    </g>
    <g
       font-size="11"
       transform="matrix(0.6946754,0,0,0.6946754,137.89307,34.386432)"
       stroke-miterlimit="0"
       id="g124"
       style="font-size:11px;font-family:sans-serif;fill:#000000;fill-opacity:1;stroke:#000000;stroke-linecap:butt;stroke-linejoin:round;stroke-miterlimit:0;stroke-opacity:1;text-rendering:geometricPrecision">
      <rect
         x="0"
         width="70"
         height="40"
         y="0"
         clip-path="url(#clipPath1)"
         id="rect126"
         style="fill:none" />
    </g>
    <g
       font-size="11"
       transform="matrix(0.6946754,0,0,0.6946754,137.89307,34.386432)"
       id="g128"
       style="font-size:11px;font-family:sans-serif;fill:#000000;fill-opacity:1;stroke:#000000;stroke-opacity:1;text-rendering:geometricPrecision">
      <text
         x="24"
         xml:space="preserve"
         y="24"
         clip-path="url(#clipPath2)"
         id="text130"
         style="stroke:none">LDS</text>
    </g>
    <g
       font-size="11"
       transform="matrix(0.6946754,0,0,0.6946754,118.44216,54.532019)"
       id="g132"
       style="font-size:11px;font-family:sans-serif;fill:#000000;fill-opacity:1;stroke:#000000;stroke-opacity:1;text-rendering:geometricPrecision">
      <line
         y2="10"
         x1="20"
         clip-path="url(#clipPath4)"
         x2="0"
         y1="10"
         id="line134"
         style="fill:none" />
      <polygon
         points="8,16 20,10 8,4 "
         clip-path="url(#clipPath4)"
         id="polygon136"
         style="stroke:none" />
      <polygon
         points="8,16 20,10 8,4 "
         clip-path="url(#clipPath4)"
         id="polygon138"
         style="fill:none" />
    </g>
    <g
       font-size="11"
       transform="matrix(0.6946754,0,0,0.6946754,130.25164,108.02202)"
       id="g140"
       style="font-size:11px;font-family:sans-serif;fill:#ffffff;fill-opacity:1;stroke:#ffffff;stroke-opacity:1;text-rendering:geometricPrecision">
      <rect
         x="0"
         width="92"
         height="40"
         y="0"
         clip-path="url(#clipPath5)"
         id="rect142"
         style="stroke:none" />
    </g>
    <g
       font-size="11"
       transform="matrix(0.6946754,0,0,0.6946754,130.25164,108.02202)"
       stroke-miterlimit="0"
       id="g144"
       style="font-size:11px;font-family:sans-serif;fill:#000000;fill-opacity:1;stroke:#000000;stroke-linecap:butt;stroke-linejoin:round;stroke-miterlimit:0;stroke-opacity:1;text-rendering:geometricPrecision">
      <rect
         x="0"
         width="92"
         height="40"
         y="0"
         clip-path="url(#clipPath5)"
         id="rect146"
         style="fill:none" />
    </g>
    <g
       font-size="11"
       transform="matrix(0.6946754,0,0,0.6946754,130.25164,108.02202)"
       id="g148"
       style="font-size:11px;font-family:sans-serif;fill:#000000;fill-opacity:1;stroke:#000000;stroke-opacity:1;text-rendering:geometricPrecision">
      <text
         x="6"
         xml:space="preserve"
         y="24"
         clip-path="url(#clipPath6)"
         id="text150"
         style="stroke:none">Field-Device 2</text>
    </g>
    <g
       font-size="11"
       transform="matrix(0.6946754,0,0,0.6946754,142.06112,87.876438)"
       id="g152"
       style="font-size:11px;font-family:sans-serif;fill:#000000;fill-opacity:1;stroke:#000000;stroke-opacity:1;text-rendering:geometricPrecision">
      <line
         y2="20"
         x1="10"
         clip-path="url(#clipPath4)"
         x2="10"
         y1="0"
         id="line154"
         style="fill:none" />
      <polygon
         points="16,12 10,0 4,12 "
         clip-path="url(#clipPath4)"
         id="polygon156"
         style="stroke:none" />
      <polygon
         points="16,12 10,0 4,12 "
         clip-path="url(#clipPath4)"
         id="polygon158"
         style="fill:none" />
    </g>
    <g
       font-size="11"
       transform="matrix(0.6946754,0,0,0.6946754,166.37476,87.181762)"
       id="g160"
       style="font-size:11px;font-family:sans-serif;fill:#000000;fill-opacity:1;stroke:#000000;stroke-opacity:1;text-rendering:geometricPrecision">
      <line
         y2="0"
         x1="10"
         clip-path="url(#clipPath4)"
         x2="10"
         y1="20"
         id="line162"
         style="fill:none" />
      <polygon
         points="4,8 10,20 16,8 "
         clip-path="url(#clipPath4)"
         id="polygon164"
         style="stroke:none" />
      <polygon
         points="4,8 10,20 16,8 "
         clip-path="url(#clipPath4)"
         id="polygon166"
         style="fill:none" />
    </g>
    <g
       font-size="11"
       transform="matrix(0.6946754,0,0,0.6946754,44.806563,104.54865)"
       id="g168"
       style="font-size:11px;font-family:sans-serif;fill:#000000;fill-opacity:1;stroke:#000000;stroke-opacity:1;text-rendering:geometricPrecision">
      <line
         y2="10"
         x1="0"
         clip-path="url(#clipPath4)"
         x2="20"
         y1="10"
         id="line170"
         style="fill:none" />
      <polygon
         points="12,4 0,10 12,16 "
         clip-path="url(#clipPath4)"
         id="polygon172"
         style="stroke:none" />
      <polygon
         points="12,4 0,10 12,16 "
         clip-path="url(#clipPath4)"
         id="polygon174"
         style="fill:none" />
    </g>
    <g
       font-size="11"
       transform="matrix(0.6946754,0,0,0.6946754,58.700071,106.63267)"
       id="g268"
       style="font-size:11px;font-family:sans-serif;fill:#000000;fill-opacity:1;stroke:#000000;stroke-opacity:1;text-rendering:geometricPrecision">
      <text
         x="8"
         xml:space="preserve"
         y="11"
         clip-path="url(#clipPath16)"
         id="text270"
         style="stroke:none">4: use service</text>
    </g>
    <g
       font-size="11"
       transform="matrix(0.6946754,0,0,0.6946754,162.90138,73.288254)"
       id="g272"
       style="font-size:11px;font-family:sans-serif;fill:#000000;fill-opacity:1;stroke:#000000;stroke-opacity:1;text-rendering:geometricPrecision">
      <text
         x="9"
         xml:space="preserve"
         y="11"
         clip-path="url(#clipPath15)"
         id="text274"
         style="stroke:none">3: tell service</text>
    </g>
    <g
       font-size="11"
       transform="matrix(0.6946754,0,0,0.6946754,76.761632,73.98293)"
       id="g276"
       style="font-size:11px;font-family:sans-serif;fill:#000000;fill-opacity:1;stroke:#000000;stroke-opacity:1;text-rendering:geometricPrecision">
      <text
         x="8"
         xml:space="preserve"
         y="11"
         clip-path="url(#clipPath18)"
         id="text278"
         style="stroke:none">2: request service</text>
    </g>
    <g
       font-size="11"
       transform="matrix(0.6946754,0,0,0.6946754,63.562799,56.616045)"
       id="g280"
       style="font-size:11px;font-family:sans-serif;fill:#000000;fill-opacity:1;stroke:#000000;stroke-opacity:1;text-rendering:geometricPrecision">
      <text
         x="8"
         xml:space="preserve"
         y="11"
         clip-path="url(#clipPath19)"
         id="text282"
         style="stroke:none">1: register</text>
    </g>
    <g
       font-size="11"
       transform="matrix(0.6946754,0,0,0.6946754,30.913055,19.103573)"
       id="g284"
       style="font-size:11px;font-family:sans-serif;fill:#000000;fill-opacity:1;stroke:#000000;stroke-linecap:butt;stroke-linejoin:round;stroke-opacity:1;text-rendering:geometricPrecision">
      <line
         y2="50"
         x1="50"
         clip-path="url(#clipPath21)"
         x2="153"
         y1="50"
         id="line286"
         style="fill:none" />
    </g>
    <g
       font-size="11"
       transform="matrix(0.6946754,0,0,0.6946754,127.47294,28.134353)"
       id="g288"
       style="font-size:11px;font-family:sans-serif;fill:#000000;fill-opacity:1;stroke:#000000;stroke-linecap:butt;stroke-linejoin:round;stroke-opacity:1;text-rendering:geometricPrecision">
      <line
         y2="50"
         x1="50"
         clip-path="url(#clipPath23)"
         x2="50"
         y1="114"
         id="line290"
         style="fill:none" />
    </g>
    <g
       font-size="11"
       transform="matrix(0.6946754,0,0,0.6946754,4.5153901,28.134353)"
       id="g292"
       style="font-size:11px;font-family:sans-serif;fill:#000000;fill-opacity:1;stroke:#000000;stroke-linecap:butt;stroke-linejoin:round;stroke-opacity:1;text-rendering:geometricPrecision">
      <line
         y2="135"
         x1="180"
         clip-path="url(#clipPath25)"
         x2="50"
         y1="135"
         id="line294"
         style="fill:none" />
      <line
         y2="50"
         x1="50"
         clip-path="url(#clipPath25)"
         x2="50"
         y1="135"
         id="line296"
         style="fill:none" />
    </g>
  </g>
  <g
     id="g4521">
    <g
       font-size="11"
       transform="matrix(0.6946754,0,0,0.6946754,284.46958,34.386432)"
       id="g184"
       style="font-size:11px;font-family:sans-serif;fill:#ffffff;fill-opacity:1;stroke:#ffffff;stroke-opacity:1;text-rendering:geometricPrecision">
      <rect
         x="0"
         width="70"
         height="40"
         y="0"
         clip-path="url(#clipPath1)"
         id="rect186"
         style="stroke:none" />
    </g>
    <g
       font-size="11"
       transform="matrix(0.6946754,0,0,0.6946754,284.46958,34.386432)"
       stroke-miterlimit="0"
       id="g188"
       style="font-size:11px;font-family:sans-serif;fill:#000000;fill-opacity:1;stroke:#000000;stroke-linecap:butt;stroke-linejoin:round;stroke-miterlimit:0;stroke-opacity:1;text-rendering:geometricPrecision">
      <rect
         x="0"
         width="70"
         height="40"
         y="0"
         clip-path="url(#clipPath1)"
         id="rect190"
         style="fill:none" />
    </g>
    <g
       font-size="11"
       transform="matrix(0.6946754,0,0,0.6946754,284.46958,34.386432)"
       id="g192"
       style="font-size:11px;font-family:sans-serif;fill:#000000;fill-opacity:1;stroke:#000000;stroke-opacity:1;text-rendering:geometricPrecision">
      <text
         x="18"
         xml:space="preserve"
         y="24"
         clip-path="url(#clipPath2)"
         id="text194"
         style="stroke:none">VMR 1</text>
    </g>
    <g
       font-size="11"
       transform="matrix(0.6946754,0,0,0.6946754,276.82815,108.02202)"
       id="g196"
       style="font-size:11px;font-family:sans-serif;fill:#ffffff;fill-opacity:1;stroke:#ffffff;stroke-opacity:1;text-rendering:geometricPrecision">
      <rect
         x="0"
         width="92"
         height="40"
         y="0"
         clip-path="url(#clipPath5)"
         id="rect198"
         style="stroke:none" />
    </g>
    <g
       font-size="11"
       transform="matrix(0.6946754,0,0,0.6946754,276.82815,108.02202)"
       stroke-miterlimit="0"
       id="g200"
       style="font-size:11px;font-family:sans-serif;fill:#000000;fill-opacity:1;stroke:#000000;stroke-linecap:butt;stroke-linejoin:round;stroke-miterlimit:0;stroke-opacity:1;text-rendering:geometricPrecision">
      <rect
         x="0"
         width="92"
         height="40"
         y="0"
         clip-path="url(#clipPath5)"
         id="rect202"
         style="fill:none" />
    </g>
    <g
       font-size="11"
       transform="matrix(0.6946754,0,0,0.6946754,276.82815,108.02202)"
       id="g204"
       style="font-size:11px;font-family:sans-serif;fill:#000000;fill-opacity:1;stroke:#000000;stroke-opacity:1;text-rendering:geometricPrecision">
      <text
         x="6"
         xml:space="preserve"
         y="24"
         clip-path="url(#clipPath6)"
         id="text206"
         style="stroke:none">Field-Device 3</text>
    </g>
    <g
       font-size="11"
       transform="matrix(0.6946754,0,0,0.6946754,379.64011,108.02202)"
       id="g208"
       style="font-size:11px;font-family:sans-serif;fill:#ffffff;fill-opacity:1;stroke:#ffffff;stroke-opacity:1;text-rendering:geometricPrecision">
      <rect
         x="0"
         width="92"
         height="40"
         y="0"
         clip-path="url(#clipPath5)"
         id="rect210"
         style="stroke:none" />
    </g>
    <g
       font-size="11"
       transform="matrix(0.6946754,0,0,0.6946754,379.64011,108.02202)"
       stroke-miterlimit="0"
       id="g212"
       style="font-size:11px;font-family:sans-serif;fill:#000000;fill-opacity:1;stroke:#000000;stroke-linecap:butt;stroke-linejoin:round;stroke-miterlimit:0;stroke-opacity:1;text-rendering:geometricPrecision">
      <rect
         x="0"
         width="92"
         height="40"
         y="0"
         clip-path="url(#clipPath5)"
         id="rect214"
         style="fill:none" />
    </g>
    <g
       font-size="11"
       transform="matrix(0.6946754,0,0,0.6946754,379.64011,108.02202)"
       id="g216"
       style="font-size:11px;font-family:sans-serif;fill:#000000;fill-opacity:1;stroke:#000000;stroke-opacity:1;text-rendering:geometricPrecision">
      <text
         x="6"
         xml:space="preserve"
         y="24"
         clip-path="url(#clipPath6)"
         id="text218"
         style="stroke:none">Field-Device 2</text>
    </g>
    <g
       font-size="11"
       transform="matrix(0.6946754,0,0,0.6946754,312.95127,88.571113)"
       id="g228"
       style="font-size:11px;font-family:sans-serif;fill:#000000;fill-opacity:1;stroke:#000000;stroke-opacity:1;text-rendering:geometricPrecision">
      <line
         y2="20"
         x1="10"
         clip-path="url(#clipPath4)"
         x2="10"
         y1="0"
         id="line230"
         style="fill:none" />
      <polygon
         points="16,12 10,0 4,12 "
         clip-path="url(#clipPath4)"
         id="polygon232"
         style="stroke:none" />
      <polygon
         points="16,12 10,0 4,12 "
         clip-path="url(#clipPath4)"
         id="polygon234"
         style="fill:none" />
    </g>
    <g
       font-size="11"
       transform="matrix(0.6946754,0,0,0.6946754,353.24244,105.24332)"
       id="g236"
       style="font-size:11px;font-family:sans-serif;fill:#000000;fill-opacity:1;stroke:#000000;stroke-opacity:1;text-rendering:geometricPrecision">
      <line
         y2="10"
         x1="20"
         clip-path="url(#clipPath4)"
         x2="0"
         y1="10"
         id="line238"
         style="fill:none" />
      <polygon
         points="8,16 20,10 8,4 "
         clip-path="url(#clipPath4)"
         id="polygon240"
         style="stroke:none" />
      <polygon
         points="8,16 20,10 8,4 "
         clip-path="url(#clipPath4)"
         id="polygon242"
         style="fill:none" />
    </g>
    <g
       font-size="11"
       transform="matrix(0.6946754,0,0,0.6946754,290.02698,87.876438)"
       id="g244"
       style="font-size:11px;font-family:sans-serif;fill:#000000;fill-opacity:1;stroke:#000000;stroke-opacity:1;text-rendering:geometricPrecision">
      <line
         y2="0"
         x1="10"
         clip-path="url(#clipPath4)"
         x2="10"
         y1="20"
         id="line246"
         style="fill:none" />
      <polygon
         points="4,8 10,20 16,8 "
         clip-path="url(#clipPath4)"
         id="polygon248"
         style="stroke:none" />
      <polygon
         points="4,8 10,20 16,8 "
         clip-path="url(#clipPath4)"
         id="polygon250"
         style="fill:none" />
    </g>
    <g
       font-size="11"
       transform="matrix(0.6946754,0,0,0.6946754,240.01035,73.98293)"
       id="g252"
       style="font-size:11px;font-family:sans-serif;fill:#000000;fill-opacity:1;stroke:#000000;stroke-opacity:1;text-rendering:geometricPrecision">
      <text
         x="9"
         xml:space="preserve"
         y="11"
         clip-path="url(#clipPath15)"
         id="text254"
         style="stroke:none">2: tell service</text>
    </g>
    <g
       font-size="11"
       transform="matrix(0.6946754,0,0,0.6946754,309.47789,74.677605)"
       id="g256"
       style="font-size:11px;font-family:sans-serif;fill:#000000;fill-opacity:1;stroke:#000000;stroke-opacity:1;text-rendering:geometricPrecision">
      <text
         x="8"
         xml:space="preserve"
         y="11"
         clip-path="url(#clipPath16)"
         id="text258"
         style="stroke:none">3: use service</text>
    </g>
    <g
       font-size="11"
       transform="matrix(0.6946754,0,0,0.6946754,339.34893,128.16761)"
       id="g260"
       style="font-size:11px;font-family:sans-serif;fill:#000000;fill-opacity:1;stroke:#000000;stroke-opacity:1;text-rendering:geometricPrecision">
      <text
         x="10"
         xml:space="preserve"
         y="11"
         clip-path="url(#clipPath17)"
         id="text262"
         style="stroke:none">1: MSR</text>
    </g>
    <g
       font-size="11"
       transform="matrix(0.6946754,0,0,0.6946754,309.47789,64.95215)"
       id="g264"
       style="font-size:11px;font-family:sans-serif;fill:#000000;fill-opacity:1;stroke:#000000;stroke-opacity:1;text-rendering:geometricPrecision">
      <text
         x="10"
         xml:space="preserve"
         y="11"
         clip-path="url(#clipPath17)"
         id="text266"
         style="stroke:none">1: MSR</text>
    </g>
    <g
       font-size="11"
       transform="matrix(0.6946754,0,0,0.6946754,274.04945,28.134353)"
       id="g298"
       style="font-size:11px;font-family:sans-serif;fill:#000000;fill-opacity:1;stroke:#000000;stroke-linecap:butt;stroke-linejoin:round;stroke-opacity:1;text-rendering:geometricPrecision">
      <line
         y2="50"
         x1="50"
         clip-path="url(#clipPath26)"
         x2="50"
         y1="114"
         id="line300"
         style="fill:none" />
    </g>
    <g
       font-size="11"
       transform="matrix(0.6946754,0,0,0.6946754,306.69919,87.181762)"
       id="g302"
       style="font-size:11px;font-family:sans-serif;fill:#000000;fill-opacity:1;stroke:#000000;stroke-linecap:butt;stroke-linejoin:round;stroke-opacity:1;text-rendering:geometricPrecision">
      <line
         y2="50"
         x1="50"
         clip-path="url(#clipPath28)"
         x2="104"
         y1="50"
         id="line304"
         style="fill:none" />
    </g>
  </g>
</svg>
