<?xml version="1.0" encoding="UTF-8" standalone="no"?>
<!-- Created with Inkscape (http://www.inkscape.org/) -->

<svg
   xmlns:dc="http://purl.org/dc/elements/1.1/"
   xmlns:cc="http://creativecommons.org/ns#"
   xmlns:rdf="http://www.w3.org/1999/02/22-rdf-syntax-ns#"
   xmlns:svg="http://www.w3.org/2000/svg"
   xmlns="http://www.w3.org/2000/svg"
   xmlns:sodipodi="http://sodipodi.sourceforge.net/DTD/sodipodi-0.dtd"
   xmlns:inkscape="http://www.inkscape.org/namespaces/inkscape"
   id="svg2"
   version="1.1"
   inkscape:version="0.91 r13725"
   width="887.81451"
   height="200.53908"
   viewBox="0 0 887.81451 200.53907"
   sodipodi:docname="logo.svg">
  <metadata
     id="metadata8">
    <rdf:RDF>
      <cc:Work
         rdf:about="">
        <dc:format>image/svg+xml</dc:format>
        <dc:type
           rdf:resource="http://purl.org/dc/dcmitype/StillImage" />
        <dc:title></dc:title>
      </cc:Work>
    </rdf:RDF>
  </metadata>
  <defs
     id="defs6" />
  <sodipodi:namedview
     pagecolor="#ffffff"
     bordercolor="#666666"
     borderopacity="1"
     objecttolerance="10"
     gridtolerance="10"
     guidetolerance="10"
     inkscape:pageopacity="0"
     inkscape:pageshadow="2"
     inkscape:window-width="2560"
     inkscape:window-height="1411"
     id="namedview4"
     showgrid="false"
     fit-margin-top="0"
     fit-margin-left="0"
     fit-margin-right="0"
     fit-margin-bottom="0"
     inkscape:zoom="0.46773288"
     inkscape:cx="-325.81834"
     inkscape:cy="-387.50249"
     inkscape:window-x="0"
     inkscape:window-y="0"
     inkscape:window-maximized="1"
     inkscape:current-layer="svg2" />
  <path
     sodipodi:type="inkscape:offset"
     inkscape:radius="1.8184447"
     inkscape:original="M 186.98047 0 L 186.9043 97.800781 C 186.86209 151.59078 186.8921 195.76961 186.9707 195.97656 C 187.08433 196.27596 194.09696 196.33609 221.24609 196.27539 L 255.38086 196.19922 L 255.38086 98.099609 L 255.38086 0 L 221.17969 0 L 186.98047 0 z M 287.17969 0 L 287.17969 98.099609 L 287.17969 196.19922 L 321.38086 196.19922 L 355.58008 196.19922 L 355.73047 162.48828 L 355.88086 128.77539 L 373.30859 161.88672 C 389.06507 191.82241 390.80687 195 391.45898 195 C 392.11373 195 393.66052 192.1079 408.23047 163.63672 C 417.05809 146.38667 424.75258 131.38103 425.33008 130.29102 L 426.38086 128.30859 L 426.27539 162.18359 C 426.21741 180.81473 426.2475 196.26 426.3418 196.50586 C 426.49261 196.89892 430.72157 196.94395 461.39648 196.87695 L 496.28125 196.80078 L 496.28125 98.849609 L 496.28125 0.90039062 L 461.08789 0.90039062 L 425.89453 0.90039062 L 408.73828 34.107422 C 399.30184 52.372012 391.47368 67.211058 391.34375 67.082031 C 391.21382 66.953007 383.09343 51.806894 373.29688 33.423828 L 355.48438 0 L 321.33203 0 L 287.17969 0 z M 187.42969 0.44921875 L 221.17969 0.44921875 L 254.92969 0.44921875 L 254.92969 98.099609 L 254.92969 195.75 L 221.17969 195.75 L 187.42969 195.75 L 187.42969 98.099609 L 187.42969 0.44921875 z M 287.63086 0.44921875 L 321.30469 0.453125 L 354.98047 0.45507812 L 373.12109 34.505859 C 383.09804 53.23373 391.37646 68.518393 391.51953 68.470703 C 391.6626 68.423012 399.5651 53.303897 409.08008 34.873047 L 426.38086 1.3613281 L 461.10547 1.3554688 L 495.83008 1.3496094 L 495.83008 98.849609 L 495.83008 196.34961 L 461.29492 196.34961 L 426.75977 196.34961 L 426.87695 161.25 C 426.9417 141.945 426.91953 126.15039 426.82812 126.15039 C 426.73669 126.15039 418.78559 141.53961 409.1582 160.34961 C 399.53084 179.15961 391.56581 194.55078 391.45703 194.55078 C 391.34825 194.55078 383.24991 179.32836 373.46289 160.72461 C 363.67587 142.12086 355.54847 126.77198 355.40039 126.61523 C 355.24127 126.44682 355.13086 140.52809 355.13086 161.03906 L 355.13086 195.75 L 321.38086 195.75 L 287.63086 195.75 L 287.63086 98.099609 L 287.63086 0.44921875 z M 527.48047 0.90039062 L 527.48047 35.849609 L 527.48047 70.800781 L 550.50586 70.876953 L 573.53125 70.953125 L 573.53125 133.75195 C 573.53125 168.29092 573.62175 196.64128 573.73242 196.75195 C 573.84312 196.86265 589.87437 196.91885 609.35742 196.87695 L 644.78125 196.80078 L 644.85547 133.87695 L 644.93164 70.953125 L 667.50586 70.876953 L 690.08008 70.800781 L 690.08008 35.849609 L 690.08008 0.90039062 L 608.78125 0.90039062 L 527.48047 0.90039062 z M 721.58008 0.90039062 L 721.58008 35.849609 L 721.58008 70.800781 L 744.45508 70.876953 L 767.33008 70.953125 L 767.33008 133.75195 C 767.33008 168.29092 767.42058 196.64128 767.53125 196.75195 C 767.64195 196.86265 783.6732 196.91885 803.15625 196.87695 L 838.58008 196.80078 L 838.65625 133.87695 L 838.73242 70.953125 L 861.45703 70.876953 L 884.17969 70.800781 L 884.17969 35.849609 L 884.17969 0.90039062 L 802.88086 0.90039062 L 721.58008 0.90039062 z M 527.92969 1.3496094 L 608.78125 1.3496094 L 689.63086 1.3496094 L 689.63086 35.849609 L 689.63086 70.349609 L 666.98047 70.349609 L 644.33008 70.349609 L 644.33008 133.34961 L 644.33008 196.34961 L 609.23047 196.34961 L 574.13086 196.34961 L 574.13086 133.34961 L 574.13086 70.349609 L 551.03125 70.349609 L 527.92969 70.349609 L 527.92969 35.849609 L 527.92969 1.3496094 z M 722.03125 1.3496094 L 802.88086 1.3496094 L 883.73047 1.3496094 L 883.73047 35.849609 L 883.73047 70.349609 L 860.92969 70.349609 L 838.13086 70.349609 L 838.13086 133.34961 L 838.13086 196.34961 L 803.03125 196.34961 L 767.92969 196.34961 L 767.92969 133.34961 L 767.92969 70.349609 L 744.98047 70.349609 L 722.03125 70.349609 L 722.03125 35.849609 L 722.03125 1.3496094 z M 98.095703 2.2324219 C 78.120765 2.0745676 58.049668 8.0743043 41.019531 20.255859 C 36.098793 23.775635 33.042694 26.389903 28.427734 31.027344 C 16.78285 42.728964 8.4279683 56.691087 4 71.849609 C -5.9169625 105.79892 2.8940814 141.79821 27.230469 166.76172 C 32.267478 171.92853 35.596452 174.859 40.451172 178.40039 C 54.884058 188.92883 72.406 195.29724 90.623047 196.63672 C 95.257108 196.97746 103.29557 196.76934 108.53125 196.17188 C 125.71129 194.21135 141.57347 187.66199 155.60742 176.73438 C 159.55265 173.66239 165.23047 168.25066 165.23047 167.5625 C 165.23047 166.96049 117.37714 119.84961 116.76562 119.84961 C 116.54559 119.84961 115.5814 120.5383 114.62305 121.37891 C 109.93029 125.49516 103.97049 127.68267 97.398438 127.70117 C 92.711708 127.71439 88.89041 126.81883 84.679688 124.71875 C 81.861581 123.31323 80.357298 122.2491 77.861328 119.89453 C 75.196254 117.38044 73.463874 114.9466 71.816406 111.40625 C 68.060208 103.33433 68.152647 94.984985 72.085938 87 C 75.674693 79.714452 82.706507 74.077329 90.679688 72.095703 C 94.485875 71.149737 100.40125 71.159453 104.03125 72.117188 C 107.35096 72.993055 112.05389 75.249402 114.62109 77.199219 C 115.74358 78.051762 116.82788 78.75 117.0293 78.75 C 117.54299 78.75 164.92969 30.864784 164.92969 30.345703 C 164.92969 29.760385 158.73008 24.247551 154.59375 21.154297 C 137.9486 8.7066189 118.07064 2.3902762 98.095703 2.2324219 z M 98.939453 2.8574219 C 121.34228 3.2350994 143.40615 11.501449 161.00781 27.263672 L 164.31836 30.228516 L 163.5625 31.126953 C 163.1469 31.620867 152.50618 42.414627 139.91797 55.113281 L 117.03125 78.201172 L 114.95508 76.625 C 112.35945 74.653697 107.66865 72.397202 104.33008 71.513672 C 102.2587 70.965491 100.96322 70.837778 97.429688 70.830078 C 92.072176 70.818366 89.088703 71.47431 84.679688 73.636719 C 72.228775 79.743282 65.865697 93.709741 69.431641 107.09961 C 70.096618 109.59657 72.26335 114.1509 73.837891 116.35742 C 75.299413 118.40556 78.908163 121.95799 80.953125 123.36133 C 83.956074 125.4221 88.274477 127.19394 92.179688 127.96875 C 94.681945 128.46521 100.44482 128.39543 103.01562 127.83789 C 107.57013 126.85013 111.67097 124.83051 114.93359 121.96875 L 116.6875 120.43164 L 118.83398 122.45117 C 123.42127 126.76889 164.63086 167.37033 164.63086 167.57227 C 164.63086 167.99663 158.35988 173.75432 155.30469 176.13477 C 141.28607 187.05737 125.37862 193.62368 108.23047 195.56836 C 106.00297 195.82096 102.02086 196.09002 99.380859 196.16602 C 78.863174 196.75697 57.611656 190.10094 40.75 177.80078 C 35.917357 174.27549 32.562085 171.32516 27.679688 166.31055 C 15.751748 154.05962 7.2085269 138.494 3.1953125 121.70117 C -2.3527654 98.48589 1.1451161 73.421369 12.839844 52.59375 C 21.07365 37.929832 33.690692 24.965415 47.988281 16.478516 C 63.884708 7.0425644 81.515035 2.5636727 98.939453 2.8574219 z "
     style="fill:#000000;stroke:none;stroke-width:2;stroke-miterlimit:4;stroke-dasharray:none;stroke-opacity:1"
     id="path4161"
     d="m 186.98047,-1.8183594 a 1.8186266,1.8186266 0 0 0 -1.81836,1.81640627 l -0.0762,97.80078113 c -0.0211,26.895732 -0.0238,51.389882 -0.0117,69.185552 0.006,8.89783 0.0161,16.12119 0.0293,21.13476 0.007,2.50679 0.0132,4.45977 0.0215,5.79688 0.004,0.66855 0.009,1.1829 0.0137,1.53906 0.002,0.17808 0.005,0.31557 0.008,0.42187 0.001,0.0532 0.001,0.0958 0.004,0.14649 0.001,0.0254 0.004,0.0501 0.008,0.0977 0.002,0.0238 0.004,0.0528 0.0117,0.10743 0.008,0.0547 0.10126,0.39372 0.10156,0.39453 0.27788,0.73013 0.69667,0.89406 0.9043,1 0.20785,0.10604 0.32996,0.13777 0.4375,0.16601 0.21508,0.0565 0.36255,0.0734 0.53516,0.0937 0.34522,0.0408 0.75907,0.0675 1.33008,0.0918 1.14201,0.0487 2.88732,0.083 5.47656,0.10547 5.17847,0.045 13.71866,0.044 27.29492,0.0137 l 34.13477,-0.0762 a 1.8186266,1.8186266 0 0 0 1.81445,-1.81836 l 0,-98.099611 0,-98.099609 a 1.8186266,1.8186266 0 0 0 -1.81836,-1.8183594 l -34.20117,0 -34.19922,0 z m 100.19922,0 A 1.8186266,1.8186266 0 0 0 285.36133,0 l 0,98.099609 0,98.099611 a 1.8186266,1.8186266 0 0 0 1.81836,1.81836 l 34.20117,0 34.19922,0 a 1.8186266,1.8186266 0 0 0 1.81836,-1.81055 l 0.15039,-33.71094 0.11719,-26.42187 14.0332,26.66016 c 7.87875,14.96881 12.25128,23.24285 14.7539,27.80859 1.25132,2.28287 2.02726,3.62885 2.58985,4.48828 0.28129,0.42972 0.49724,0.73783 0.78906,1.03906 0.29182,0.30124 0.80703,0.74805 1.62695,0.74805 0.7512,0 1.30698,-0.41938 1.60352,-0.71875 0.29654,-0.29937 0.50405,-0.59684 0.76953,-1.00586 0.53097,-0.81803 1.24505,-2.08338 2.39844,-4.24023 2.30678,-4.31372 6.33365,-12.15208 13.61914,-26.38868 7.58811,-14.82792 12.62364,-24.63538 14.68945,-28.64453 l -0.082,26.35742 c -0.029,9.31812 -0.0355,17.83894 -0.0234,24.06446 0.006,3.11276 0.016,5.65246 0.0312,7.43359 0.008,0.89057 0.0173,1.5902 0.0274,2.08594 0.005,0.24787 0.009,0.44275 0.0156,0.59766 0.003,0.0774 0.006,0.14189 0.0117,0.21679 0.003,0.0375 0.006,0.0761 0.0137,0.13867 0.008,0.0626 -0.0319,0.068 0.11133,0.44141 a 1.8186266,1.8186266 0 0 0 0,0.002 c 0.26293,0.68529 0.743,0.94037 1.00781,1.06446 0.26482,0.12409 0.44156,0.16147 0.61719,0.19726 0.35127,0.0716 0.69458,0.10108 1.18164,0.13281 0.97412,0.0635 2.48581,0.10278 4.95313,0.12891 4.93462,0.0523 13.65756,0.0472 28.99609,0.0137 l 34.88477,-0.0762 a 1.8186266,1.8186266 0 0 0 1.81445,-1.81836 l 0,-97.951171 0,-97.94921838 a 1.8186266,1.8186266 0 0 0 -1.81836,-1.81835937 l -35.19336,0 -35.19336,0 a 1.8186266,1.8186266 0 0 0 -1.61523,0.984375 L 407.12305,33.273438 c -4.71628,9.128535 -9.03052,17.401342 -12.17969,23.371093 -1.49906,2.841699 -2.68642,5.066134 -3.57227,6.703125 -0.92799,-1.717244 -2.21912,-4.119373 -3.82226,-7.109375 -3.26981,-6.098489 -7.7488,-14.479496 -12.64649,-23.669922 l -17.8125,-33.42382775 a 1.8186266,1.8186266 0 0 0 -1.60546,-0.96289065 l -34.15235,0 -34.15234,0 z m 240.30078,0.90039065 a 1.8186266,1.8186266 0 0 0 -1.81836,1.81835937 l 0,34.94921838 0,34.951172 a 1.8186266,1.8186266 0 0 0 1.8125,1.81836 l 23.02539,0.07617 21.21289,0.07031 0,60.986325 c 0,17.27108 0.0221,32.9943 0.0586,44.41602 0.0182,5.71086 0.0404,10.34647 0.0645,13.56445 0.012,1.60899 0.0239,2.86205 0.0371,3.72461 0.007,0.43128 0.0142,0.76388 0.0215,1.00391 0.004,0.12001 0.006,0.21326 0.0117,0.30468 0.003,0.0457 0.005,0.0878 0.0137,0.16211 0.004,0.0372 0.008,0.078 0.0273,0.17383 0.01,0.0479 0.0197,0.10828 0.0586,0.22461 0.0388,0.11633 0.44097,0.71051 0.44141,0.71094 4.3e-4,4.3e-4 0.40051,0.3082 0.51367,0.36133 0.11316,0.0531 0.18618,0.078 0.24414,0.0957 0.11591,0.0355 0.17485,0.0441 0.22265,0.0527 0.0956,0.0172 0.13955,0.0211 0.1836,0.0254 0.0881,0.009 0.15512,0.0116 0.23437,0.0156 0.15851,0.008 0.3539,0.0153 0.60547,0.0215 0.50314,0.0124 1.219,0.0231 2.13477,0.0332 1.83153,0.0203 4.45639,0.0355 7.6875,0.0469 6.4622,0.0227 15.34354,0.0268 25.08789,0.006 l 35.42383,-0.0762 a 1.8186266,1.8186266 0 0 0 1.81445,-1.81641 l 0.0742,-62.92382 0.0742,-61.113285 20.76367,-0.07031 22.57422,-0.07617 a 1.8186266,1.8186266 0 0 0 1.8125,-1.81836 l 0,-34.951172 0,-34.94921838 a 1.8186266,1.8186266 0 0 0 -1.81836,-1.81835937 l -81.29883,0 -81.30078,0 z m 194.09961,0 a 1.8186266,1.8186266 0 0 0 -1.81836,1.81835937 l 0,34.94921838 0,34.951172 a 1.8186266,1.8186266 0 0 0 1.8125,1.81836 l 22.875,0.07617 21.0625,0.07031 0,60.986325 c 0,17.27108 0.0221,32.9943 0.0586,44.41602 0.0182,5.71086 0.0404,10.34647 0.0645,13.56445 0.012,1.60899 0.0239,2.86205 0.0371,3.72461 0.007,0.43128 0.0142,0.76388 0.0215,1.00391 0.004,0.12001 0.006,0.21326 0.0117,0.30468 0.003,0.0457 0.005,0.0878 0.0137,0.16211 0.004,0.0372 0.008,0.078 0.0273,0.17383 0.01,0.0479 0.0198,0.10828 0.0586,0.22461 0.0388,0.11633 0.44097,0.71051 0.4414,0.71094 4.4e-4,4.3e-4 0.40051,0.3082 0.51368,0.36133 0.11316,0.0531 0.18618,0.078 0.24414,0.0957 0.11591,0.0355 0.17485,0.0441 0.22265,0.0527 0.0956,0.0172 0.13955,0.0211 0.1836,0.0254 0.0881,0.009 0.15512,0.0116 0.23437,0.0156 0.15851,0.008 0.3539,0.0153 0.60547,0.0215 0.50314,0.0124 1.219,0.0231 2.13477,0.0332 1.83152,0.0203 4.45639,0.0355 7.6875,0.0469 6.4622,0.0227 15.34354,0.0268 25.08789,0.006 l 35.42382,-0.0762 a 1.8186266,1.8186266 0 0 0 1.81446,-1.81641 l 0.0762,-62.92382 0.0742,-61.113285 20.91406,-0.07031 22.72266,-0.07617 a 1.8186266,1.8186266 0 0 0 1.8125,-1.81836 l 0,-34.951172 0,-34.94921838 a 1.8186266,1.8186266 0 0 0 -1.81836,-1.81835937 l -81.29883,0 -81.30078,0 z M 98.109375,0.4140625 C 77.760716,0.25325483 57.31116,6.3668338 39.960938,18.777344 34.983431,22.337726 31.79574,25.064386 27.138672,29.744141 15.290393,41.650146 6.7702304,55.878848 2.2539062,71.339844 -7.8413533,105.89953 1.1345093,142.59913 25.927734,168.03125 c 5.076656,5.20748 8.530342,8.24828 13.451172,11.83789 14.71694,10.73565 32.558941,17.21789 51.111328,18.58203 4.841448,0.35599 12.851316,0.14318 18.248046,-0.47265 17.50803,-1.99796 33.7062,-8.6893 47.98633,-19.8086 2.04738,-1.59421 4.47376,-3.73723 6.42773,-5.59961 0.97699,-0.93119 1.83229,-1.78694 2.47461,-2.49219 0.32116,-0.35262 0.58648,-0.66187 0.8125,-0.96679 0.11302,-0.15246 0.21725,-0.29952 0.32422,-0.4961 0.10698,-0.19657 0.28516,-0.38457 0.28516,-1.05273 0,-0.75755 -0.17733,-0.79993 -0.24024,-0.91211 -0.0629,-0.11218 -0.10449,-0.16691 -0.14062,-0.2168 -0.0723,-0.0998 -0.1257,-0.16344 -0.1875,-0.23632 -0.12361,-0.14576 -0.27013,-0.30642 -0.45508,-0.50586 -0.3699,-0.3989 -0.88871,-0.94277 -1.54883,-1.6211 -1.32024,-1.35665 -3.19442,-3.24831 -5.44531,-5.50195 -4.50178,-4.50729 -10.50472,-10.45558 -16.52734,-16.38477 -6.02263,-5.92918 -12.06426,-11.8376 -16.64258,-16.26953 -2.28916,-2.21596 -4.21183,-4.06159 -5.58985,-5.36133 -0.689,-0.64986 -1.23944,-1.16326 -1.64453,-1.52734 -0.20254,-0.18204 -0.36594,-0.3239 -0.51367,-0.44531 -0.0739,-0.0607 -0.13993,-0.11513 -0.24023,-0.18555 -0.0502,-0.0352 -0.10541,-0.0742 -0.2168,-0.13476 -0.11139,-0.0606 -0.15621,-0.22852 -0.89063,-0.22852 -1.00362,0 -0.97059,0.2324 -1.19335,0.35937 -0.22276,0.12698 -0.43106,0.26557 -0.65821,0.42774 -0.45429,0.32433 -0.96885,0.73604 -1.49023,1.19336 -4.35908,3.82356 -9.85961,5.85372 -16.031252,5.87109 -4.452294,0.0126 -7.898112,-0.79489 -11.90039,-2.79101 -2.721348,-1.35726 -3.953195,-2.22756 -6.382813,-4.51953 -2.525078,-2.38203 -4.068293,-4.54632 -5.644531,-7.9336 -3.549018,-7.6267 -3.464288,-15.291585 0.251953,-22.835936 3.336979,-6.774416 9.969694,-12.094122 17.402344,-13.941406 3.37536,-0.838891 9.285509,-0.820522 12.447269,0.01367 2.98446,0.787416 7.70162,3.059961 9.95507,4.771484 0.59542,0.452225 1.17399,0.860193 1.66407,1.175782 0.24504,0.157794 0.46432,0.293057 0.68359,0.410156 0.10963,0.05855 0.21749,0.111511 0.36133,0.169922 0.14384,0.05841 0.24833,0.166015 0.79883,0.166015 0.002,0 0.59846,-0.09546 0.71875,-0.146484 0.12029,-0.05103 0.18438,-0.09001 0.23633,-0.121094 0.10388,-0.06218 0.15189,-0.09863 0.19726,-0.132812 0.0907,-0.06836 0.15148,-0.119789 0.2207,-0.179688 0.13845,-0.119797 0.29565,-0.26352 0.49219,-0.447265 0.39309,-0.367491 0.9323,-0.887178 1.60938,-1.546875 1.35415,-1.319395 3.24984,-3.194099 5.50976,-5.445313 4.51984,-4.502427 10.49343,-10.506927 16.45117,-16.527344 5.95775,-6.020417 11.89797,-12.055663 16.35352,-16.623046 2.22778,-2.283692 4.08498,-4.199977 5.39062,-5.56836 0.65283,-0.684191 1.16568,-1.229773 1.5293,-1.626953 0.18181,-0.19859 0.32495,-0.35831 0.44336,-0.498047 0.0592,-0.06987 0.11049,-0.129551 0.17774,-0.220703 0.0336,-0.04558 0.0702,-0.09567 0.13085,-0.199219 0.0303,-0.05177 0.0678,-0.115386 0.11719,-0.234375 0.0494,-0.118988 0.14063,-0.70305 0.14063,-0.705078 0,-0.839112 -0.2367,-0.954233 -0.35352,-1.138672 -0.11682,-0.184439 -0.22434,-0.319818 -0.34375,-0.46289 -0.23881,-0.286146 -0.5225,-0.586084 -0.86719,-0.931641 -0.68937,-0.691115 -1.61073,-1.545535 -2.66211,-2.480469 -2.10274,-1.869868 -4.70374,-4.038799 -6.83789,-5.634765 C 138.71866,7.0104423 118.45809,0.57487061 98.109375,0.4140625 Z m 91.138675,1.8535156 31.93164,0 31.93164,0 0,95.8320309 0,95.832031 -31.93164,0 -31.93164,0 0,-95.832031 0,-95.8320309 z m 100.20117,0 31.85547,0.00391 32.58398,0.00195 17.62695,33.0878905 c 4.99009,9.366957 9.55493,17.871388 12.89258,24.033203 1.66883,3.080908 3.03094,5.576381 3.98828,7.304688 0.47868,0.864153 0.85511,1.534049 1.125,2.001953 0.13495,0.233952 0.24165,0.414218 0.33399,0.5625 0.0462,0.07414 0.0847,0.135111 0.15039,0.226562 0.0328,0.04573 0.0635,0.09406 0.16602,0.205078 0.0513,0.05551 0.10752,0.127807 0.29101,0.257813 0.0917,0.065 0.45623,0.234094 0.45703,0.234375 8.1e-4,2.81e-4 1.17327,0.008 1.17383,0.0078 5.6e-4,-1.86e-4 0.4782,-0.236516 0.57422,-0.314453 0.096,-0.07794 0.14611,-0.129665 0.18555,-0.171875 0.0789,-0.08442 0.10958,-0.129566 0.13671,-0.166015 0.0543,-0.0729 0.0767,-0.108501 0.0996,-0.144531 0.0458,-0.07206 0.0803,-0.130449 0.1211,-0.201172 0.0817,-0.141446 0.18094,-0.321361 0.30859,-0.554688 0.2553,-0.466653 0.61564,-1.136645 1.07227,-1.996094 0.91326,-1.718897 2.21217,-4.191434 3.80468,-7.238281 3.18503,-6.093693 7.54018,-14.483504 12.29883,-23.701172 l 16.79297,-32.5273435 33.61719,-0.00586 32.90625,-0.00586 0,95.6816402 0,95.681641 -32.7168,0 -32.71094,0 0.11133,-33.27539 c 0.0324,-9.65486 0.044,-18.43074 0.0352,-24.79688 -0.004,-3.18306 -0.0153,-5.76299 -0.0293,-7.55273 -0.007,-0.89487 -0.0139,-1.59241 -0.0234,-2.07617 -0.005,-0.24188 -0.009,-0.42772 -0.0156,-0.57617 -0.003,-0.0742 -0.006,-0.13278 -0.0137,-0.21875 -0.004,-0.043 -0.007,-0.0846 -0.0274,-0.19922 -0.0104,-0.0573 -0.0151,-0.12094 -0.084,-0.3086 -0.0344,-0.0938 -0.24379,-0.45459 -0.24414,-0.45507 -3.6e-4,-4.9e-4 -1.46449,-0.74024 -1.46485,-0.74024 -3.5e-4,0 -1.1244,0.3882 -1.125,0.38867 -5.9e-4,4.7e-4 -0.19277,0.17384 -0.23632,0.22266 -0.0871,0.0977 -0.11192,0.1385 -0.13672,0.17383 -0.0496,0.0707 -0.0679,0.10191 -0.0879,0.13476 -0.0399,0.0657 -0.0712,0.11925 -0.10938,0.1875 -0.0763,0.13651 -0.17367,0.31703 -0.29883,0.55078 -0.2503,0.46752 -0.60677,1.14468 -1.0625,2.01563 -0.91144,1.74189 -2.21623,4.25462 -3.81836,7.35547 -3.20424,6.20168 -7.5995,14.75346 -12.41406,24.16015 -4.81266,9.40302 -9.20966,17.95115 -12.41601,24.14649 -1.54816,2.99135 -2.78336,5.36329 -3.6875,7.08594 -0.91864,-1.70315 -2.16962,-4.0417 -3.74024,-6.99414 -3.25958,-6.12736 -7.73061,-14.58103 -12.62304,-23.88086 -4.89414,-9.30307 -9.37355,-17.79405 -12.64844,-23.97852 -1.63745,-3.09224 -2.97254,-5.60799 -3.91016,-7.36328 -0.46881,-0.87765 -0.83854,-1.56336 -1.09765,-2.04102 -0.12956,-0.23882 -0.2319,-0.42501 -0.3086,-0.5625 -0.0383,-0.0687 -0.068,-0.1237 -0.0996,-0.17773 -0.0158,-0.027 -0.0324,-0.0533 -0.0566,-0.0918 -0.0242,-0.0385 0.0532,0.001 -0.22851,-0.29687 -6.3e-4,-6.6e-4 -0.70641,-0.46462 -0.70704,-0.46485 -6.2e-4,-2.2e-4 -1.2025,-0.01 -1.20312,-0.01 -6.2e-4,2.1e-4 -0.7279,0.46225 -0.72852,0.46289 -6.1e-4,6.4e-4 -0.21641,0.26473 -0.26953,0.35742 -0.21248,0.37078 -0.18586,0.45301 -0.20507,0.54102 -0.0384,0.17601 -0.0409,0.23825 -0.0488,0.32031 -0.0159,0.16412 -0.0234,0.32936 -0.0332,0.54883 -0.0196,0.43893 -0.0382,1.06311 -0.0547,1.8789 -0.033,1.63158 -0.0622,4.02106 -0.0859,7.05664 -0.0476,6.07117 -0.0742,14.72172 -0.0742,24.98047 l 0,32.89258 -31.93164,0 -31.93164,0 0,-95.832031 0,-95.8320309 z m 240.29883,0.9003907 79.0332,0 79.03125,0 0,32.6816402 0,32.681641 -20.83203,0 -22.65039,0 a 1.8186266,1.8186266 0 0 0 -1.81836,1.818359 l 0,63.000001 0,61.18164 -33.28125,0 -33.28125,0 0,-61.18164 0,-63.000001 a 1.8186266,1.8186266 0 0 0 -1.81836,-1.818359 l -23.09961,0 -21.2832,0 0,-32.681641 0,-32.6816402 z m 194.10156,0 79.03125,0 79.03125,0 0,32.6816402 0,32.681641 -20.98242,0 -22.79883,0 a 1.8186266,1.8186266 0 0 0 -1.81836,1.818359 l 0,63.000001 0,61.18164 -33.28125,0 -33.2832,0 0,-61.18164 0,-63.000001 a 1.8186266,1.8186266 0 0 0 -1.81836,-1.818359 l -22.94922,0 -21.13086,0 0,-32.681641 0,-32.6816402 z M 98.908203,4.6757812 C 120.88402,5.04626 142.52048,13.149943 159.79492,28.619141 l 1.96875,1.761718 c -0.0737,0.07806 -0.0435,0.04653 -0.12695,0.132813 -0.35088,0.362626 -0.84766,0.873209 -1.47266,1.511719 -1.24999,1.277018 -3.01234,3.069322 -5.15429,5.242187 -4.2839,4.34573 -10.08971,10.218091 -16.38282,16.566406 l -21.76562,21.955078 -0.80664,-0.613281 0,0.002 c -2.90371,-2.205276 -7.58818,-4.450215 -11.25977,-5.421875 -2.18513,-0.578284 -3.78495,-0.736347 -7.361326,-0.74414 -5.507414,-0.01204 -8.98502,0.750986 -13.554688,2.992187 -13.215183,6.481401 -19.990385,21.350891 -16.205078,35.564454 0.776261,2.91483 2.880007,7.3182 4.683594,9.8457 1.706142,2.39095 5.163901,5.79857 7.566406,7.44727 3.272612,2.24582 7.729057,4.06263 11.902344,4.89062 3.056939,0.60651 8.484028,0.53347 11.574218,-0.13672 4.83531,-1.04865 9.22077,-3.1991 12.73242,-6.27929 l 0.51172,-0.44922 0.94336,0.88867 c 2.20112,2.07177 13.71412,13.36091 24.58789,24.07422 5.43689,5.35666 10.73134,10.58641 14.66406,14.48633 1.96636,1.94995 3.5931,3.5675 4.72461,4.70117 0.25417,0.25465 0.38369,0.38604 0.58594,0.58984 -0.59558,0.59079 -1.37163,1.33171 -2.26758,2.1543 -1.92327,1.76581 -4.2526,3.79584 -5.69531,4.91992 -13.77124,10.72985 -29.34424,17.15332 -46.16211,19.06055 -2.13005,0.24155 -6.12809,0.51198 -8.697265,0.58594 -20.088779,0.57859 -40.979579,-5.96012 -57.505859,-18.01563 -4.766143,-3.47678 -7.99924,-6.31738 -12.839844,-11.28906 C 17.288796,153.0327 8.9014959,137.75176 4.9648438,121.2793 -0.47429318,98.519868 2.9601965,73.903904 14.425781,53.484375 22.495332,39.112986 34.913618,26.354646 48.916016,18.042969 64.522151,8.7793309 81.815939,4.3876317 98.908203,4.6757812 Z"
     transform="translate(1.8164912,1.8183519)" />
</svg>
