<?xml version="1.0" encoding="UTF-8" standalone="no"?>
<!-- Created with Inkscape (http://www.inkscape.org/) -->

<svg
   xmlns:dc="http://purl.org/dc/elements/1.1/"
   xmlns:cc="http://creativecommons.org/ns#"
   xmlns:rdf="http://www.w3.org/1999/02/22-rdf-syntax-ns#"
   xmlns:svg="http://www.w3.org/2000/svg"
   xmlns="http://www.w3.org/2000/svg"
   xmlns:sodipodi="http://sodipodi.sourceforge.net/DTD/sodipodi-0.dtd"
   xmlns:inkscape="http://www.inkscape.org/namespaces/inkscape"
   width="370.56192pt"
   height="68.506989pt"
   viewBox="0 0 463.20241 85.633735"
   id="svg2"
   version="1.1"
   inkscape:version="0.91 r13725"
   sodipodi:docname="opc-ua-logo.svg">
  <defs
     id="defs4" />
  <sodipodi:namedview
     id="base"
     pagecolor="#ffffff"
     bordercolor="#666666"
     borderopacity="1.0"
     inkscape:pageopacity="0.0"
     inkscape:pageshadow="2"
     inkscape:zoom="1.4"
     inkscape:cx="319.75758"
     inkscape:cy="48.686943"
     inkscape:document-units="pt"
     inkscape:current-layer="layer1"
     showgrid="false"
     units="pt"
     fit-margin-top="0"
     fit-margin-left="0"
     fit-margin-right="0"
     fit-margin-bottom="0"
     inkscape:window-width="2560"
     inkscape:window-height="1377"
     inkscape:window-x="0"
     inkscape:window-y="0"
     inkscape:window-maximized="1" />
  <metadata
     id="metadata7">
    <rdf:RDF>
      <cc:Work
         rdf:about="">
        <dc:format>image/svg+xml</dc:format>
        <dc:type
           rdf:resource="http://purl.org/dc/dcmitype/StillImage" />
        <dc:title></dc:title>
      </cc:Work>
    </rdf:RDF>
  </metadata>
  <g
     inkscape:label="Layer 1"
     inkscape:groupmode="layer"
     id="layer1"
     transform="translate(0,-536.055)">
    <path
       style="fill:#000000"
       d="m 346.6755,621.52701 c -13.02372,-1.50336 -21.63651,-7.12292 -25.51844,-16.64994 -2.51671,-6.17646 -2.57841,-6.99453 -2.58434,-34.26421 l -0.004,-23.2174 13.22773,0 13.22772,0 0.0141,20.46162 c 0.008,11.2539 0.11676,21.7939 0.24232,23.42222 0.29618,3.84088 1.09186,5.63095 3.00214,6.7539 1.18453,0.69633 1.52207,0.75747 4.18211,0.75747 3.26137,0 4.14231,-0.32869 5.53947,-2.06683 1.62224,-2.01816 1.62554,-2.07247 1.62554,-26.78893 l -3e-5,-22.53945 13.38425,0 13.38426,0 -0.11654,24.18192 c -0.10135,21.0316 -0.17568,24.47787 -0.57034,26.45355 -2.64362,13.23332 -10.6519,20.70486 -24.75416,23.09503 -3.01083,0.51029 -11.31424,0.74349 -14.28071,0.40105 z m -85.56575,-0.4298 c -13.35155,-2.25599 -23.99871,-11.16886 -28.4576,-23.82222 -0.45398,-1.28833 -0.97283,-3.08647 -1.15297,-3.99588 -0.55707,-2.81212 -0.40888,-2.75664 -2.3416,-0.87671 -1.99482,1.94033 -3.94243,3.19065 -6.7496,4.33302 -3.75166,1.52675 -5.16406,1.70211 -14.82917,1.8411 l -8.88738,0.12782 0,10.99737 0,10.99738 -30.23725,0 -30.23724,0 1.91655,-1.93136 1.91655,-1.93136 -5.09122,-5.09681 -5.09124,-5.09681 -5.09587,5.09587 -5.09588,5.09588 1.91749,1.93228 1.91748,1.93231 -62.755402,0 -62.755398,0 0,-0.68896 0,-0.68894 59.318072,-0.004 59.318078,-0.004 -2.20461,-0.89561 c -5.4825,-2.2272 -9.75451,-5.10075 -13.46214,-9.05522 l -2.52137,-2.68926 -2.804853,2.78639 -2.804851,2.78638 -3.120063,-2.93117 -3.120075,-2.93119 -4.573205,-0.007 c -4.239585,-0.007 -4.60989,0.0339 -5.075881,0.54884 l -0.502653,0.55542 -0.591238,-0.55542 c -0.54462,-0.51166 -0.958542,-0.55545 -5.250284,-0.55545 l -4.659078,0 -1.553503,1.5373 -1.553502,1.53728 -1.660464,-1.53728 -1.660463,-1.5373 -30.758956,0 -30.758961,0 0,-0.68894 0,-0.68895 26.51399,0 26.51398,0 0.582711,-0.73079 c 0.462313,-0.57977 0.73114,-0.69354 1.300979,-0.55051 0.395049,0.0991 0.796899,0.428 0.893006,0.73078 0.154665,0.48731 0.417566,0.55052 2.289648,0.55052 l 2.114936,0 -2.133045,-2.13305 -2.133045,-2.13305 4.336655,-4.34302 4.336655,-4.34302 -3.711302,0 -3.711313,0 -2.261981,2.25022 -2.261981,2.25023 -2.464827,-2.25023 -2.464827,-2.25022 -23.870115,0 -23.870124,0 0,-0.68894 0,-0.68895 24.46547,0 24.465475,0 1.775843,-1.79178 1.775854,-1.79177 1.805604,1.79177 1.805615,1.79178 6.262478,0 c 3.444359,0 6.262467,-0.096 6.262467,-0.21344 0,-0.11738 -1.612128,-1.73855 -3.582499,-3.60259 -1.970382,-1.86404 -3.58251,-3.53772 -3.58251,-3.7193 0,-0.18157 1.116088,-1.44103 2.480201,-2.79883 1.364103,-1.35779 2.48019,-2.56429 2.48019,-2.68113 0,-0.11685 -0.711724,-0.21243 -1.581613,-0.21243 l -1.581614,0 -4.556924,4.55101 -4.556924,4.55101 -4.520871,-4.55101 -4.520883,-4.55101 -1.465991,0 c -0.806302,0 -1.466001,0.0992 -1.466001,0.22046 0,0.45639 0.688298,0.88185 1.426648,0.88185 0.832442,0 1.803134,1.10946 1.458526,1.66705 -0.11065,0.17898 0.318967,0.83577 1.001628,1.53134 l 1.195314,1.21794 -3.156791,3.16578 -3.156784,3.16576 -3.241923,-3.23347 -3.24192,-3.23347 2.47977,-2.49012 c 1.36387,-1.36956 2.479756,-2.58079 2.479756,-2.69162 0,-0.11082 -2.306238,-0.2015 -5.124976,-0.2015 l -5.12498,0 -1.836908,1.77338 -1.836907,1.77339 -1.826392,-1.77339 c -1.753901,-1.703 -1.88133,-1.77338 -3.210545,-1.77338 l -1.384155,0 0.306845,0.81292 c 0.257681,0.68268 0.224926,0.90345 -0.204437,1.37788 -0.591802,0.65394 -0.959091,0.70256 -1.625627,0.21518 -0.517459,-0.37838 -0.648104,-1.15594 -0.323221,-1.92372 0.191866,-0.45343 -0.316682,-0.48226 -8.5061115,-0.48226 C 0.18371818,577.43375 0,577.42212 0,576.88259 c 0,-0.5413 0.18371818,-0.55115 10.271349,-0.55115 l 10.271349,0 2.330241,-2.34242 c 1.281633,-1.28833 2.468397,-2.3424 2.637253,-2.3424 0.168855,0 1.323948,1.05407 2.566872,2.3424 l 2.25986,2.34242 6.326594,0 c 3.47962,0 6.326575,-0.0637 6.326575,-0.14153 0,-0.0779 -0.148087,-0.37868 -0.329102,-0.66853 -0.2528,-0.40479 -0.254173,-0.69149 -0.0055,-1.23636 0.431489,-0.94702 1.537608,-0.95752 2.151619,-0.0204 0.418165,0.6382 0.418165,0.73969 0,1.37788 l -0.451415,0.68895 1.181536,0 c 1.147754,0 1.283713,-0.10245 4.756094,-3.58251 1.965996,-1.97038 3.694688,-3.58251 3.841511,-3.58251 0.146824,0 1.895032,1.61213 3.884908,3.58251 l 3.617954,3.58251 3.076601,0 3.076612,0 1.067608,-0.96452 c 0.587173,-0.53049 1.161554,-0.96452 1.276391,-0.96452 0.114825,0 0.689195,0.43403 1.27638,0.96452 l 1.067608,0.96452 3.30614,0 c 1.818364,0 3.30613,-0.0914 3.30613,-0.20298 0,-0.11164 -1.612527,-1.81884 -3.583396,-3.79377 l -3.583374,-3.59077 2.618862,-2.60798 c 1.440372,-1.43438 2.618862,-2.70343 2.618862,-2.8201 0,-0.11666 -1.32373,-0.21212 -2.941596,-0.21212 l -2.941617,0 0.613856,0.65341 0.613845,0.65341 -0.860907,1.27564 c -0.473501,0.70159 -1.004397,1.27562 -1.179764,1.27562 -0.175378,0 -1.283812,0.95931 -2.46321,2.13179 l -2.144365,2.13179 -3.361853,-3.36185 -3.361853,-3.36186 0.632585,-0.67335 0.632586,-0.67336 -14.544516,-0.0366 -14.544515,-0.0365 -2.50856,2.49813 -2.508561,2.49813 -2.433839,-2.48717 -2.433838,-2.48719 -10.712801,0 -10.7128010289,0 0,-0.68894 0,-0.68894 11.6351620289,0 11.635161,0 1.612546,-1.58458 1.612544,-1.58457 1.426799,1.58832 1.4268,1.58831 13.676242,-0.003 c 11.817342,-0.003 13.722874,-0.0599 14.019313,-0.41711 0.44118,-0.53162 1.487832,-0.53162 1.929035,0 0.214044,0.2579 0.820225,0.41335 1.61184,0.41335 1.205947,0 1.368012,-0.0986 3.273178,-1.99103 l 2.004419,-1.99103 2.004419,1.99103 2.004419,1.99103 4.527428,0 4.527429,0 0.908744,-0.88078 0.908756,-0.88079 0.908744,0.88079 c 0.825918,0.80051 1.066334,0.88078 2.637669,0.88078 1.571755,0 1.68956,-0.0393 1.295885,-0.43303 -0.828532,-0.82854 -0.266091,-2.04715 0.94483,-2.04715 1.21092,0 1.773361,1.21861 0.944841,2.04715 -0.393687,0.39367 -0.274686,0.43206 1.308988,0.42219 l 1.742038,-0.0111 -1.929035,-1.76743 -1.929047,-1.7674 3.30263,-3.31992 c 1.816437,-1.82595 3.430503,-3.31992 3.586808,-3.31992 0.156305,0 1.767613,1.48729 3.580671,3.30509 l 3.296496,3.3051 -1.777152,1.79309 -1.777161,1.79308 2.329279,0 2.329254,0 2.48539,-2.45672 c 4.44128,-4.39005 9.31135,-7.33498 15.57211,-9.41643 l 3.17234,-1.05468 -22.59127,-0.0121 -22.591277,-0.0122 2.332568,2.34475 2.33258,2.34475 -3.352029,3.35202 -3.352018,3.35203 -3.479735,-3.26468 -3.479725,-3.26467 2.219571,-2.23118 c 1.220767,-1.22714 2.219582,-2.32158 2.219582,-2.4321 0,-0.11054 -8.269854,-0.20092 -18.377466,-0.20092 l -18.377467,0 0.73609,0.76831 0.73609,0.76831 -2.337813,2.32567 -2.3378,2.32566 -2.135916,-2.11538 c -1.623985,-1.60834 -2.23801,-2.05695 -2.56186,-1.87168 -0.234269,0.13402 -0.593369,0.14019 -0.797996,0.0137 -0.556908,-0.34419 -0.127778,-1.11229 0.621422,-1.11229 0.360184,0 0.879335,-0.24802 1.153669,-0.55115 0.49728,-0.5495 0.481333,-0.55116 -5.269548,-0.55116 l -5.768336,0 -1.914261,1.92904 c -1.052844,1.06097 -2.044924,1.92904 -2.204621,1.92904 -0.159698,0 -1.151777,-0.86807 -2.204621,-1.92904 l -1.914261,-1.92904 -5.0366816,0 -5.0366824289,0 0,-0.68895 0,-0.68894 5.0361885289,0 5.0361875,0 2.053435,-2.06723 2.053435,-2.06724 2.079429,2.06724 2.079427,2.06723 6.456857,0 6.456858,0 0.908746,-0.8808 0.908746,-0.88079 0.908748,0.88079 0.908745,0.8808 19.980039,0 c 14.766192,0 20.063272,-0.0833 20.299048,-0.31901 0.238766,-0.23878 0.414055,-0.24014 0.696915,-0.006 0.279625,0.23206 18.005245,0.33664 68.148238,0.40206 62.26176,0.0813 67.95301,0.12618 70.01774,0.55278 9.77789,2.02024 15.93902,6.39127 19.36478,13.73836 0.59077,1.267 1.21902,2.84969 1.39613,3.51712 l 0.32201,1.21349 0.71589,-1.21349 c 2.8376,-4.81 7.3656,-9.50087 12.0854,-12.5201 9.8034,-6.27115 21.79929,-7.55507 35.42673,-3.79173 l 2.66393,0.73566 0.15537,2.7721 c 0.24245,4.32643 0.75721,24.45683 0.62867,24.58537 -0.0632,0.0632 -0.88025,-0.52438 -1.8155,-1.30588 -6.0879,-5.08692 -12.76817,-6.84287 -18.35503,-4.82473 -8.13448,2.93843 -11.80727,12.01771 -7.94747,19.64644 1.06294,2.10086 3.75058,4.72609 6.05566,5.91501 2.74665,1.41669 4.21926,1.74826 7.68309,1.72998 2.65374,-0.014 3.33211,-0.12163 5.44574,-0.86387 2.79609,-0.9819 4.77649,-2.11608 7.25582,-4.15548 l 1.76626,-1.45284 -0.01,1.17726 c -0.0516,5.98489 -0.80756,25.66262 -0.99238,25.83182 -0.38606,0.35339 -2.83211,1.07143 -5.19798,1.52586 -6.34128,1.21802 -15.02642,1.57799 -19.56601,0.81095 z m -87.77146,-8.2521 0,-6.47606 -3.11251,0 -3.11251,0 -1.0405,1.36439 c -3.15036,4.13101 -9.21363,8.44281 -15.16685,10.78567 l -1.95623,0.76986 12.1943,0.0161 12.1943,0.0161 0,-6.47608 z m -49.9456,-1.31174 5.02654,-5.03205 -5.09822,-5.09263 -5.09823,-5.09264 -5.09823,5.09264 -5.09822,5.09263 5.02654,5.03205 c 2.7646,2.76762 5.09105,5.03205 5.16991,5.03205 0.0789,0 2.40531,-2.26443 5.16991,-5.03205 z m -9.42167,-0.91256 c -0.23819,-0.23816 -0.43307,-0.6102 -0.43307,-0.82672 0,-0.44946 0.96393,-1.496 1.3779,-1.496 0.40355,0 1.37789,1.04157 1.37789,1.47297 0,0.49109 -0.89416,1.2828 -1.4488,1.2828 -0.24248,0 -0.63576,-0.19487 -0.87392,-0.43305 z m 0.17942,-4.95633 c -0.33687,-0.23595 -0.61249,-0.65076 -0.61249,-0.92181 0,-0.58354 0.83361,-1.40498 1.42578,-1.40498 0.53205,0 1.33001,0.87167 1.33001,1.45287 0,0.39144 -0.9639,1.3029 -1.37789,1.3029 -0.0841,0 -0.42856,-0.19303 -0.76541,-0.42898 z m 34.03817,0.0878 c 2.31318,-2.30958 4.20579,-4.32313 4.20579,-4.47457 0,-0.15144 -1.69437,-1.97297 -3.76528,-4.04784 l -3.76526,-3.7725 0.46469,-0.7092 0.4647,-0.70921 -12.00105,0 -12.00106,0 0.45434,0.8786 c 1.265,2.44624 5.06959,5.07692 8.31781,5.75136 1.59854,0.33191 6.04623,0.23004 7.08771,-0.16233 0.30619,-0.11534 -0.11968,0.48479 -0.95813,1.35024 l -1.50929,1.55789 4.26173,4.26839 c 2.34395,2.34762 4.32378,4.26838 4.39962,4.26838 0.0759,0 2.0305,-1.88964 4.34368,-4.19921 z m -7.03777,-2.46976 c -0.773,-0.77299 -0.19063,-2.1495 0.90941,-2.1495 0.73867,0 1.24009,0.50142 1.24009,1.24009 0,0.73868 -0.50142,1.2401 -1.24009,1.2401 -0.31829,0 -0.72753,-0.14881 -0.90941,-0.33069 z m 0,-4.96039 c -0.36778,-0.36779 -0.43143,-1.30111 -0.11979,-1.75625 0.63374,-0.9255 2.26929,-0.34362 2.26929,0.80736 0,0.77521 -0.48882,1.27958 -1.24009,1.27958 -0.31829,0 -0.72753,-0.14881 -0.90941,-0.33069 z m -65.367003,6.59146 c 0,-0.0426 -0.716807,-0.78684 -1.592888,-1.65379 l -1.592889,-1.57626 -1.636517,1.65379 -1.63654,1.65377 3.229417,0 c 1.776175,0 3.229417,-0.0349 3.229417,-0.0775 z m 10.738924,-0.62058 -0.655812,-0.69809 4.465868,-4.47202 c 2.456221,-2.45963 4.46517,-4.59467 4.464329,-4.74458 -8.31e-4,-0.14989 -0.130687,-0.73757 -0.288531,-1.30594 -0.475627,-1.71266 -1.337332,-1.45912 -3.981735,1.17155 l -2.216502,2.20498 -2.192036,-2.20498 -2.192036,-2.20497 -1.655634,0 -1.655624,0 3.298233,3.30684 3.298221,3.30683 -3.160247,3.16924 -3.160247,3.16923 3.143788,0 3.143788,0 -0.655823,-0.69809 z m 86.796879,-5.4335 c -0.0111,-3.58634 -0.11485,-5.90282 -0.2504,-5.58045 -0.12746,0.30314 -0.60991,1.79165 -1.07209,3.30782 -0.46219,1.51617 -1.46559,3.97365 -2.2298,5.46108 -0.76419,1.48743 -1.38945,2.75813 -1.38945,2.82377 0,0.0657 1.11609,0.11937 2.4802,0.11937 l 2.48019,0 -0.0187,-6.13159 z m -94.688332,1.42895 c 0.822739,-1.17462 -0.446164,-2.60642 -1.710305,-1.92988 -0.654904,0.35049 -0.804309,1.61919 -0.255325,2.16817 0.513252,0.51324 1.525159,0.39057 1.96563,-0.23829 z m 30.772992,-0.25775 c 0.69369,-0.6937 0.6966,-1.16083 0.0111,-1.78121 -0.75318,-0.68161 -1.87441,-0.36793 -2.11528,0.5918 -0.14168,0.56448 -0.0413,0.84633 0.4397,1.2359 0.78769,0.63783 0.98568,0.63231 1.66447,-0.0465 z m -35.962889,-5.23597 2.74545,-2.75578 -5.47989,0 -5.479868,0 2.591482,2.7272 c 1.425308,1.49996 2.655811,2.74007 2.73444,2.75577 0.07864,0.0157 1.378402,-1.21152 2.888386,-2.72719 z m 4.840737,0.81703 c 0.60412,-0.32332 0.726344,-1.6158 0.202348,-2.13981 -0.181891,-0.18188 -0.591117,-0.33069 -0.909409,-0.33069 -0.790896,0 -1.240095,0.51412 -1.240095,1.41931 0,1.09125 0.932081,1.59444 1.947156,1.05119 z m 31.447362,-0.95371 c 0.25895,-0.56832 0.22656,-0.78376 -0.18641,-1.2401 -0.89369,-0.98751 -2.34342,-0.56201 -2.34342,0.68784 0,1.35163 1.96969,1.78162 2.52983,0.55226 z m -0.32208,-4.70166 4.54389,-4.56275 -4.66761,-4.54748 -4.66762,-4.54749 -4.56215,4.56216 -4.56215,4.56214 4.54182,4.54809 c 2.498,2.50144 4.60664,4.54808 4.68587,4.54808 0.0792,0 2.18881,-2.05324 4.68795,-4.56275 z m -7.28626,-1.10627 c -1.08787,-1.08788 9.2e-4,-2.71547 1.39307,-2.08141 0.83967,0.38258 0.91681,1.8033 0.12105,2.2292 -0.7242,0.38756 -1.0063,0.36002 -1.51412,-0.14779 z m -0.10234,-5.13362 c -0.773,-0.773 -0.19063,-2.1495 0.9094,-2.1495 0.73868,0 1.2401,0.50143 1.2401,1.2401 0,0.73867 -0.50142,1.2401 -1.2401,1.2401 -0.31829,0 -0.72752,-0.14881 -0.9094,-0.3307 z m 14.56861,8.03718 c 0.60413,-0.32332 0.72636,-1.61581 0.20235,-2.13982 -0.18188,-0.18187 -0.59112,-0.33069 -0.9094,-0.33069 -0.7909,0 -1.24012,0.51413 -1.24012,1.41932 0,1.09124 0.9321,1.59444 1.94717,1.05119 z M 77.897599,590.2528 c 0.514958,-0.36068 0.622462,-0.36068 0.921803,0 0.2315,0.27893 0.870875,0.40829 2.018053,0.40829 l 1.679215,0 -1.499562,-1.51841 -1.499551,-1.51842 3.49676,-3.51087 3.496759,-3.51088 -1.506418,-1.56125 -1.506418,-1.56126 -4.996089,-0.0261 -4.996089,-0.0263 2.683036,2.79535 2.683048,2.79535 -3.610987,3.61844 c -1.986032,1.99011 -3.610986,3.70975 -3.610986,3.8214 0,0.11163 1.274519,0.20297 2.832252,0.20297 2.055923,0 2.992025,-0.11191 3.415174,-0.40829 z m 68.881811,-0.96959 c 0.20387,-0.68205 0.37255,-1.73095 0.37485,-2.3309 l 0.004,-1.09079 1.24545,1.22231 1.24544,1.22233 5.09377,-5.09378 5.09378,-5.09377 -5.09837,-5.09278 -5.09836,-5.09278 -3.24293,3.23449 c -1.78363,1.77896 -3.33709,3.23449 -3.45214,3.23449 -0.11505,0 -0.83835,-0.4328 -1.60733,-0.96177 -3.7886,-2.6061 -9.79704,-2.87292 -14.07971,-0.62526 -1.6721,0.87755 -3.79929,2.66817 -3.79929,3.19816 0,0.23356 2.35083,0.3179 8.86121,0.3179 8.82368,0 8.85908,0.002 8.36575,0.54745 -0.47229,0.52187 -0.91506,0.55082 -9.48124,0.62004 l -8.98581,0.0727 -0.62941,1.26773 c -1.10111,2.21786 -1.57027,5.25875 -1.22872,7.96411 0.16264,1.28834 0.42766,2.68469 0.5889,3.10303 l 0.29318,0.76063 12.58307,-0.0717 12.58306,-0.0717 0.37066,-1.2401 z m -1.09056,-8.56072 c -0.53801,-0.76814 -0.27113,-1.60325 0.58066,-1.81704 0.86722,-0.21765 1.54951,0.18427 1.66791,0.98255 0.19555,1.31826 -1.47538,1.93837 -2.24857,0.83449 z m 0.14682,-4.72211 c -0.60251,-0.60252 -0.39919,-1.85454 0.35712,-2.19915 1.28106,-0.58368 2.3661,1.09001 1.35933,2.09678 -0.51575,0.51576 -1.25876,0.56006 -1.71645,0.10234 z m -54.776952,10.64516 c 0.611342,-0.61135 0.53742,-1.39164 -0.179432,-1.89373 -0.773461,-0.54176 -1.165364,-0.54082 -1.71025,0.003 -0.835742,0.83575 -0.230869,2.32273 0.944841,2.32273 0.281486,0 0.706662,-0.19487 0.944841,-0.43305 z m 26.014022,-0.9227 c 0.11572,-0.77571 -0.40645,-1.40003 -1.17098,-1.40003 -0.81706,0 -1.26149,0.50798 -1.26149,1.44189 0,1.50734 2.20703,1.46937 2.43247,-0.0419 z m -47.131145,-0.0772 c 0.526156,-0.52615 0.384538,-1.52938 -0.281786,-1.99609 -0.336844,-0.23594 -0.708877,-0.42898 -0.826726,-0.42898 -0.36521,0 -1.316575,1.08101 -1.316575,1.49599 0,1.01166 1.693648,1.66053 2.425087,0.92908 z m 23.754781,-2.88115 c 0,-1.26536 -0.0078,-1.27603 -0.551154,-0.78403 -0.303129,0.27434 -0.551155,0.62482 -0.551155,0.77886 0,0.26355 0.801141,1.28797 1.007243,1.28797 0.05228,0 0.09503,-0.57726 0.09503,-1.2828 z m -2.628033,-1.18629 c 0.680202,-0.75162 0.367979,-1.8744 -0.58796,-2.11431 -1.410289,-0.35397 -2.279149,1.05555 -1.310461,2.12594 0.611652,0.67586 1.279958,0.67176 1.898421,-0.0116 z m -37.110241,-0.61738 c 0.181869,-0.18188 0.330687,-0.65312 0.330687,-1.04719 0,-1.45288 -1.568223,-1.90918 -2.367746,-0.68894 -0.418165,0.6382 -0.418165,0.73968 0,1.37789 0.483712,0.73824 1.481574,0.91373 2.037059,0.35824 z m 15.983493,-0.27557 c 0.784593,-0.78459 0.06723,-2.42509 -1.060519,-2.42509 -0.288819,0 -0.728261,0.31002 -0.976541,0.68894 -0.418165,0.63822 -0.418165,0.7397 0,1.3779 0.483713,0.73824 1.481586,0.91374 2.03706,0.35825 z m 136.582885,-1.18042 c 0.74633,-0.2598 1.69076,-0.71914 2.09873,-1.02079 2.37172,-1.75346 2.88217,-6.42449 0.95265,-8.71758 -1.25984,-1.49724 -3.13071,-2.06609 -7.23301,-2.19919 l -3.6514,-0.11847 0,6.40803 0,6.40804 3.23804,-0.14384 c 1.9941,-0.0886 3.75932,-0.3253 4.59499,-0.6162 z m -85.56426,-3.49935 c 0.37746,-0.67469 0.36855,-0.78861 -0.10235,-1.30899 -0.62328,-0.68871 -1.18242,-0.72303 -1.8555,-0.11391 -0.62859,0.56887 -0.64027,1.14114 -0.0369,1.80787 0.62352,0.68899 1.48722,0.52231 1.99478,-0.38497 z m -32.998394,-2.35765 2.731151,-2.68331 2.027977,2.20105 c 1.441335,1.56432 2.071639,2.08146 2.178889,1.78767 0.08307,-0.22736 0.415417,-1.21944 0.738682,-2.20462 0.815252,-2.48443 2.290535,-5.61298 3.582676,-7.59761 0.59897,-0.91996 1.089049,-1.75703 1.089049,-1.86014 0,-0.10312 -1.07918,-0.18747 -2.398191,-0.18747 -2.316376,0 -2.428709,0.0296 -3.293116,0.86741 l -0.894943,0.86741 -0.987916,-0.86741 -0.987916,-0.86741 -3.710715,0 c -2.040892,0 -3.710704,0.0955 -3.710704,0.21213 0,0.11667 1.178479,1.38571 2.618851,2.82009 l 2.618873,2.60798 -3.583385,3.59076 c -1.970859,1.97494 -3.583385,3.68213 -3.583385,3.79378 0,0.11163 0.637425,0.20299 1.416492,0.20299 l 1.416491,0 2.73114,-2.6833 z m -33.775491,1.67611 c 0.245135,-0.97671 -0.201296,-1.6108 -1.134064,-1.6108 -0.962186,0 -1.565642,0.84753 -1.226349,1.72236 0.186055,0.47971 0.4596,0.62005 1.208639,0.62005 0.817909,0 0.996643,-0.11353 1.151774,-0.73161 z m 119.088155,-5.67557 -0.074,-6.40719 -2.96245,-0.0782 c -1.62937,-0.043 -2.96247,0.0257 -2.96247,0.15272 0,0.12702 0.38854,0.8436 0.8634,1.5924 1.60903,2.53715 2.98045,5.47164 3.88483,8.31253 0.49561,1.55683 0.9964,2.83157 1.11288,2.83276 0.11647,9.2e-4 0.17847,-2.88107 0.13778,-6.40502 z m -90.307512,5.01959 c 0.604131,-0.32332 0.726344,-1.6158 0.202348,-2.13981 -0.466689,-0.46668 -1.329102,-0.41039 -1.921138,0.12538 -0.615839,0.55734 -0.630781,0.89369 -0.07487,1.68724 0.470354,0.67152 0.977493,0.76403 1.793741,0.32719 z M 120.703,571.37073 c 0.69368,-0.69369 0.69659,-1.16085 0.0111,-1.78121 -0.75318,-0.68162 -1.87441,-0.36793 -2.11528,0.5918 -0.14168,0.56448 -0.0413,0.84634 0.4397,1.2359 0.78768,0.63783 0.98568,0.6323 1.66447,-0.0465 z M 83.452274,568.6371 c 0.12445,-0.83421 -0.422861,-1.40004 -1.354189,-1.40004 -1.424168,0 -1.767192,1.95378 -0.433992,2.47183 0.756338,0.2939 1.665769,-0.25119 1.788181,-1.07179 z m 89.886026,-13.38766 0,-6.47607 -14.26113,0.0196 -14.26114,0.0196 2.86568,0.94684 c 6.37775,2.10728 11.35543,5.07692 15.46023,9.22346 l 2.61799,2.64461 3.78919,0.0491 3.78918,0.0491 0,-6.47607 z m 209.16339,65.1201 c 0,-0.31658 24.19529,-70.1771 24.9643,-72.08086 l 0.36274,-0.89804 14.65606,0.0713 14.65608,0.0713 13.03076,36.51403 13.03077,36.51402 -13.93829,0.0715 c -7.66605,0.0393 -14.00124,0.008 -14.07822,-0.0684 -0.077,-0.077 -0.65942,-2.09326 -1.29435,-4.48068 l -1.15446,-4.34075 -10.09261,-0.0722 -10.09262,-0.0722 -0.15495,0.62345 c -0.0852,0.34289 -0.56003,2.35958 -1.05512,4.48153 l -0.9001,3.85808 -13.97,0.0714 c -10.81223,0.0553 -13.96999,-0.004 -13.96999,-0.2632 z m 45.47029,-26.24235 c 0,-0.064 -0.79528,-3.75337 -1.76727,-8.19843 -0.97202,-4.44508 -2.04679,-9.41506 -2.3884,-11.04442 -0.50596,-2.41318 -0.71136,-2.96246 -1.10771,-2.96246 -0.26764,0 -0.55339,0.21703 -0.63505,0.48226 -0.3219,1.0458 -4.5735,20.89502 -4.5735,21.35208 0,0.44911 0.41184,0.48745 5.23596,0.48745 2.87979,0 5.23597,-0.0524 5.23597,-0.11648 z m -374.1999,6.75747 c -0.208395,-0.13203 -0.378911,-0.57826 -0.378911,-0.99165 0,-0.81798 0.440228,-1.2293 1.322767,-1.23589 0.724539,-0.006 1.226327,0.50029 1.226327,1.23589 0,1.06671 -1.191859,1.61132 -2.170183,0.99165 z m -7.3536,-6.66744 c -0.291222,-0.47121 0.627635,-1.26376 1.015495,-0.87589 0.172775,0.17277 0.239564,0.50849 0.148408,0.74602 -0.190729,0.49702 -0.888841,0.57491 -1.163903,0.12987 z m 0.234236,-4.68851 c -0.436651,-0.43665 -0.128593,-1.07218 0.51971,-1.07218 0.398405,0 0.517649,0.15762 0.452766,0.59847 -0.103672,0.70435 -0.532791,0.91341 -0.972476,0.47371 z m -14.351513,-1.65558 c -0.437923,-0.162 -0.60977,-0.45156 -0.60977,-1.02743 0,-1.01602 0.606531,-1.53554 1.523897,-1.30529 0.816731,0.20498 1.083201,0.71953 0.851248,1.64371 -0.187861,0.7485 -0.877232,1.01755 -1.765375,0.68901 z m -0.279077,-5.25884 c -0.772996,-0.773 -0.190627,-2.14951 0.909406,-2.14951 0.318292,0 0.727524,0.14882 0.909406,0.3307 0.181881,0.18188 0.330693,0.59112 0.330693,0.90941 0,0.31829 -0.148812,0.72752 -0.330693,0.9094 -0.181882,0.18189 -0.591114,0.33069 -0.909406,0.33069 -0.318293,0 -0.727526,-0.1488 -0.909406,-0.33069 z m -14.918982,-8.28107 c -0.471186,-1.21488 1.075768,-2.3927 2.064666,-1.57199 0.483515,0.40129 0.520054,1.4088 0.06751,1.86134 -0.577999,0.57801 -1.863428,0.40356 -2.13217,-0.28935 z m 17.682278,-3.58843 -2.267595,-2.27944 2.342571,-2.3304 2.342574,-2.33041 2.342573,2.33041 2.342575,2.3304 -2.267596,2.27944 c -1.247176,1.25369 -2.335072,2.27943 -2.417552,2.27943 -0.08245,0 -1.170377,-1.02574 -2.41755,-2.27943 z m 34.365898,0.5911 c -0.492418,-0.92006 0.07598,-1.89416 1.105355,-1.89416 1.226128,0 1.795015,1.21256 0.960436,2.04713 -0.62275,0.62275 -1.693072,0.54351 -2.065791,-0.15297 z m -12.198623,-3.1802 c -0.30447,-0.30447 -0.206701,-1.61211 0.146979,-1.96579 0.181879,-0.18188 0.591105,-0.3307 0.909397,-0.3307 0.318303,0 0.72753,0.14882 0.909409,0.3307 0.18188,0.18188 0.330697,0.59111 0.330697,0.9094 0,0.31829 -0.148817,0.72754 -0.330697,0.90941 -0.35368,0.35368 -1.661316,0.45145 -1.965785,0.14698 z m -37.294141,-3.00395 c -0.229683,-0.59854 0.353411,-1.16143 0.770777,-0.74406 0.352748,0.35276 0.13422,1.17595 -0.312169,1.17595 -0.161083,0 -0.367456,-0.19435 -0.458608,-0.43189 z m 13.592419,0.22731 c -0.07991,-0.1293 -0.04199,-0.40226 0.08428,-0.60657 0.279488,-0.45222 1.205949,-0.15999 1.043124,0.32903 -0.137901,0.41418 -0.923447,0.60755 -1.127406,0.27754 z m 0.124255,-4.30589 c -0.238236,-0.28706 -0.210672,-0.46149 0.115727,-0.73238 0.526714,-0.43713 1.114472,0.0238 0.863693,0.6773 -0.20412,0.53193 -0.566746,0.55232 -0.97942,0.055 z m -13.809222,-0.45 c 0,-0.36742 0.183718,-0.55115 0.551156,-0.55115 0.367436,0 0.551154,0.18373 0.551154,0.55115 0,0.36744 -0.183718,0.55116 -0.551154,0.55116 -0.367438,0 -0.551156,-0.18372 -0.551156,-0.55116 z m 23.355192,-0.022 c -0.593354,-0.3456 -0.63871,-1.70965 -0.07244,-2.17958 0.639264,-0.53053 1.756803,-0.11264 1.969972,0.73666 0.141674,0.56448 0.04131,0.84633 -0.439707,1.2359 -0.71343,0.57772 -0.800188,0.59003 -1.457795,0.20702 z m 5.231798,-2.39311 -2.407753,-2.41896 2.279581,-2.26775 c 1.253774,-1.24726 2.401007,-2.25174 2.549415,-2.23218 0.148397,0.0196 1.257385,1.07729 2.464396,2.35048 l 2.194583,2.31492 -2.336235,2.33622 -2.336223,2.33623 -2.407764,-2.41896 z m 19.143042,-1.7736 c -0.18188,-0.18188 -0.330697,-0.59111 -0.330697,-0.9094 0,-0.31829 0.148817,-0.72753 0.330697,-0.90941 0.181879,-0.18188 0.591117,-0.3307 0.909409,-0.3307 0.318292,0 0.727518,0.14882 0.909397,0.3307 0.181891,0.18188 0.330698,0.59112 0.330698,0.90941 0,0.31829 -0.148807,0.72752 -0.330698,0.9094 -0.181879,0.18189 -0.591105,0.33069 -0.909397,0.33069 -0.318292,0 -0.72753,-0.1488 -0.909409,-0.33069 z m 18.313513,-0.17326 c -0.60494,-0.66845 -0.575488,-1.2316 0.09614,-1.83947 1.13824,-1.03009 2.803499,0.67252 1.772254,1.81202 -0.604231,0.66767 -1.280068,0.67761 -1.868449,0.0275 z M 42.832215,555.4519 c -0.92551,-0.63374 -0.343634,-2.26931 0.807332,-2.26931 0.775223,0 1.279604,0.48881 1.279604,1.24011 0,1.02738 -1.21472,1.62644 -2.086936,1.0292 z m 17.519273,-0.61584 c 0,-0.36743 0.183719,-0.55116 0.551155,-0.55116 0.367436,0 0.551154,0.18373 0.551154,0.55116 0,0.36743 -0.183718,0.55115 -0.551154,0.55115 -0.367436,0 -0.551155,-0.18372 -0.551155,-0.55115 z m 384.706302,-4.68481 0,-2.20463 -0.82673,0 c -0.45471,0 -0.82674,-0.12401 -0.82674,-0.27557 0,-0.15923 0.87268,-0.27558 2.06683,-0.27558 1.19417,0 2.06684,0.11635 2.06684,0.27558 0,0.15156 -0.37204,0.27557 -0.82674,0.27557 l -0.82673,0 0,2.20463 c 0,1.77593 -0.0803,2.20462 -0.41337,2.20462 -0.33298,0 -0.41336,-0.42869 -0.41336,-2.20462 z m 3.03135,-0.27558 c 0,-2.21668 0.0534,-2.4802 0.50263,-2.4802 0.3843,0 0.65565,0.48787 1.15241,2.07185 0.35737,1.13952 0.7359,1.97658 0.84114,1.86015 0.10523,-0.11643 0.4671,-1.05549 0.80408,-2.08678 0.46217,-1.4144 0.72444,-1.85371 1.06753,-1.78816 0.65679,0.12552 0.84192,4.90334 0.18997,4.90334 -0.33774,0 -0.42847,-0.37881 -0.44562,-1.86016 l -0.0215,-1.86014 -0.62184,1.79125 c -0.84526,2.43479 -1.26491,2.42288 -2.10258,-0.0597 l -0.67729,-2.00712 -0.081,1.99794 c -0.1164,2.87226 -0.60798,2.48234 -0.60798,-0.48226 z m -380.7931,1.59835 c -0.524007,-0.524 -0.401772,-1.8165 0.202348,-2.13982 0.293171,-0.1569 0.656344,-0.28526 0.807044,-0.28526 0.500083,0 1.140112,0.85647 1.140112,1.52566 0,1.00998 -1.437459,1.61146 -2.149504,0.89942 z M 9.1204937,550.99431 c -0.4164732,-0.25739 -0.2246563,-1.11864 0.2491432,-1.11864 0.40349,0 0.6795521,0.80856 0.3787616,1.10935 -0.1382023,0.1382 -0.4127462,0.14226 -0.6279048,0.009 z m 51.3235353,-0.17264 c -0.229673,-0.59855 0.353414,-1.16143 0.770781,-0.74408 0.352749,0.35277 0.134219,1.17597 -0.312167,1.17597 -0.161079,0 -0.367448,-0.19436 -0.458614,-0.43189 z M 9.0022006,546.66059 C 8.6228509,546.28124 8.8385478,545.742 9.3696369,545.742 c 0.3674375,0 0.5511557,0.18372 0.5511557,0.55116 0,0.53109 -0.5392412,0.74678 -0.918592,0.36743 z m 18.2799794,-0.8891 c 0,-0.6669 0.68946,-0.94031 1.105888,-0.43855 0.404765,0.48771 0.123789,0.96022 -0.570997,0.96022 -0.341096,0 -0.534891,-0.189 -0.534891,-0.52167 z m -9.03228,-3.68759 -1.99124,-2.00462 2.025655,-2.01214 2.025653,-2.01214 1.832641,2.00798 c 1.007952,1.10439 1.83264,2.07819 1.83264,2.16401 0,0.0858 -0.840175,0.98977 -1.867055,2.00877 l -1.867054,1.85276 -1.99124,-2.00462 z m -3.747947,-0.89936 c -0.09365,-0.24404 0.01577,-0.49226 0.257979,-0.5852 0.539198,-0.20691 0.78525,0.0419 0.577317,0.58375 -0.209189,0.54514 -0.626386,0.54587 -0.835296,0.002 z m -0.03414,-3.70987 c -0.23067,-0.37323 0.08059,-0.82673 0.567418,-0.82673 0.218408,0 0.397104,0.24802 0.397104,0.55115 0,0.57054 -0.664833,0.76049 -0.964522,0.27558 z"
       id="path4147"
       inkscape:connector-curvature="0" />
  </g>
</svg>
