<?xml version="1.0" encoding="UTF-8" standalone="no"?>
<!-- Created with Inkscape (http://www.inkscape.org/) -->

<svg
   xmlns:dc="http://purl.org/dc/elements/1.1/"
   xmlns:cc="http://creativecommons.org/ns#"
   xmlns:rdf="http://www.w3.org/1999/02/22-rdf-syntax-ns#"
   xmlns:svg="http://www.w3.org/2000/svg"
   xmlns="http://www.w3.org/2000/svg"
   xmlns:sodipodi="http://sodipodi.sourceforge.net/DTD/sodipodi-0.dtd"
   xmlns:inkscape="http://www.inkscape.org/namespaces/inkscape"
   id="svg2"
   version="1.1"
   inkscape:version="0.91 r13725"
   xml:space="preserve"
   width="319"
   height="92.550003"
   viewBox="0 0 319 92.550003"
   sodipodi:docname="tud.svg"><metadata
     id="metadata8"><rdf:RDF><cc:Work
         rdf:about=""><dc:format>image/svg+xml</dc:format><dc:type
           rdf:resource="http://purl.org/dc/dcmitype/StillImage" /><dc:title></dc:title></cc:Work></rdf:RDF></metadata><defs
     id="defs6" /><sodipodi:namedview
     pagecolor="#ffffff"
     bordercolor="#666666"
     borderopacity="1"
     objecttolerance="10"
     gridtolerance="10"
     guidetolerance="10"
     inkscape:pageopacity="0"
     inkscape:pageshadow="2"
     inkscape:window-width="2077"
     inkscape:window-height="1270"
     id="namedview4"
     showgrid="false"
     inkscape:zoom="5.195794"
     inkscape:cx="110.28015"
     inkscape:cy="7.7097238"
     inkscape:window-x="0"
     inkscape:window-y="0"
     inkscape:window-maximized="0"
     inkscape:current-layer="g10" /><g
     id="g10"
     inkscape:groupmode="layer"
     inkscape:label="tud"
     transform="matrix(1.25,0,0,-1.25,0,92.55)"><g
       id="g12"
       transform="scale(0.1,0.1)"><path
         d="m 2259.86,471.379 34.5625,0 0,35.2773 -34.5625,0 0,-35.2773 z"
         style="fill:#000000;fill-opacity:1;fill-rule:evenodd;stroke:none"
         id="path14"
         inkscape:connector-curvature="0" /><path
         d="m 2354.18,471.379 34.5625,0 0,35.2773 -34.5625,0 0,-35.2773 z"
         style="fill:#000000;fill-opacity:1;fill-rule:evenodd;stroke:none"
         id="path16"
         inkscape:connector-curvature="0" /><path
         d="m 1823.54,269.062 -44.64,87.118 c 19.44,6.476 36,24.476 36,52.558 0,33.117 -23.76,61.2 -64.8,61.2 l -78.48,0 0,-200.879 38.88,0 0,80.636 28.08,0 39.6,-80.636 45.36,0 0,0.003 z m -47.52,139.68 c 0,-15.84 -11.52,-26.637 -28.08,-26.637 l -37.44,0 0,53.278 37.44,0 c 16.56,0 28.08,-11.52 28.08,-26.637"
         style="fill:#000000;fill-opacity:1;fill-rule:evenodd;stroke:none"
         id="path18"
         inkscape:connector-curvature="0" /><path
         d="m 2412.5,269.062 -73.44,200.879 -30.24,0 -73.44,-200.879 41.04,0 12.24,36 71.28,0 11.52,-36 41.04,0 z m -63.36,69.118 -49.68,0 25.2,72.718 24.47,-72.718"
         style="fill:#000000;fill-opacity:1;fill-rule:evenodd;stroke:none"
         id="path20"
         inkscape:connector-curvature="0" /><path
         d="m 1000.57,338.18 0,131.758 -38.875,0 0,-130.317 c 0,-23.039 -14.398,-36.719 -35.277,-36.719 -20.879,0 -34.559,13.68 -34.559,36.719 l 0,130.317 -38.879,0 0,-131.758 c 0,-42.477 32.399,-70.559 73.438,-70.559 41.039,0 74.152,28.078 74.152,70.559"
         style="fill:#000000;fill-opacity:1;fill-rule:evenodd;stroke:none"
         id="path22"
         inkscape:connector-curvature="0" /><path
         d="m 1200.02,269.062 0,200.879 -39.6,0 0,-122.398 -79.2,122.398 -35.28,0 0,-200.879 39.6,0 0,123.84 79.2,-123.84 35.28,0"
         style="fill:#000000;fill-opacity:1;fill-rule:evenodd;stroke:none"
         id="path24"
         inkscape:connector-curvature="0" /><path
         d="m 1246.82,269.062 39.6016,0 0,200.879 -39.6016,0 0,-200.879 z"
         style="fill:#000000;fill-opacity:1;fill-rule:evenodd;stroke:none"
         id="path26"
         inkscape:connector-curvature="0" /><path
         d="m 1474.34,469.941 -41.04,0 -40.32,-130.316 -40.32,130.316 -40.31,0 66.24,-200.879 28.79,0 66.96,200.879"
         style="fill:#000000;fill-opacity:1;fill-rule:evenodd;stroke:none"
         id="path28"
         inkscape:connector-curvature="0" /><path
         d="m 1632.02,269.781 0,34.559 -92.88,0 0,48.957 79.2,0 0,34.558 -79.2,0 0,47.52 92.88,0 0,34.559 -131.76,0 0,-200.157 131.76,0"
         style="fill:#000000;fill-opacity:1;fill-rule:evenodd;stroke:none"
         id="path30"
         inkscape:connector-curvature="0" /><path
         d="m 1986.98,328.82 c 0,17.278 -5.04,32.399 -15.84,42.477 -7.92,7.918 -19.44,12.957 -38.16,15.117 l -23.76,3.598 c -7.92,1.437 -14.4,4.316 -18.72,7.918 -3.59,3.597 -5.75,9.359 -5.75,14.398 0,13.68 10.07,25.199 30.95,25.199 13.68,0 28.8,-1.437 41.04,-13.679 l 25.2,24.476 c -17.28,16.559 -37.44,23.758 -64.8,23.758 -43.19,0 -69.84,-25.199 -69.84,-61.199 0,-16.559 4.32,-29.52 14.4,-39.598 8.64,-8.637 21.6,-13.68 38.88,-16.558 l 23.76,-3.598 c 9.36,-1.438 14.4,-2.879 18,-6.477 4.32,-4.316 6.48,-10.078 6.48,-17.277 0,-15.84 -12.96,-24.477 -36,-24.477 -18,0 -35.28,4.317 -48.24,16.559 l -25.2,-25.199 c 19.44,-20.156 42.48,-26.637 73.44,-26.637 41.75,0 74.15,22.317 74.15,61.199"
         style="fill:#000000;fill-opacity:1;fill-rule:evenodd;stroke:none"
         id="path32"
         inkscape:connector-curvature="0" /><path
         d="m 2025.14,269.062 38.875,0 0,200.879 -38.875,0 0,-200.879 z"
         style="fill:#000000;fill-opacity:1;fill-rule:evenodd;stroke:none"
         id="path34"
         inkscape:connector-curvature="0" /><path
         d="m 2241.86,435.379 0,34.559 -144,0 0,-34.559 52.55,0 0,-165.598 38.88,0 0,165.598 52.56,0"
         style="fill:#000000;fill-opacity:1;fill-rule:evenodd;stroke:none"
         id="path36"
         inkscape:connector-curvature="0" /><path
         d="m 2550.73,435.379 0,34.559 -144,0 0,-34.559 52.56,0 0,-166.317 38.88,0 0,166.317 52.56,0"
         style="fill:#000000;fill-opacity:1;fill-rule:evenodd;stroke:none"
         id="path38"
         inkscape:connector-curvature="0" /><path
         d="m 998.414,103.449 c 0,30.239 2.876,57.598 -20.156,79.918 -12.957,13.68 -31.68,19.438 -52.559,19.438 l -72.719,0 0,-200.87922 72.719,0 c 20.879,0 39.598,5.75781 52.559,19.43752 23.042,22.3164 20.156,51.8398 20.156,82.0777 l 0,0.008 z m -38.879,0 c 0,-30.9568 -1.437,-45.3592 -8.637,-53.9998 -6.476,-7.918 -15.839,-12.2383 -28.796,-12.2383 l -29.52,0 0,130.3161 29.52,0 c 12.957,0 22.316,-4.316 28.796,-12.238 7.2,-8.637 8.637,-21.598 8.637,-51.84"
         style="fill:#000000;fill-opacity:1;fill-rule:evenodd;stroke:none"
         id="path40"
         inkscape:connector-curvature="0" /><path
         d="m 1192.1,1.94141 -44.64,86.39839 c 19.44,7.1993 36.72,24.4762 36.72,52.5582 0,33.84 -24.48,61.918 -65.52,61.918 l -78.48,0 0,-200.8785 38.88,0 0,79.918 28.8,0 38.88,-79.918 45.36,0 0,0.00391 z M 1144.57,140.902 c 0,-15.117 -10.79,-25.918 -28.07,-25.918 l -37.44,0 0,52.559 37.44,0 c 17.27,0 28.07,-10.797 28.07,-26.637"
         style="fill:#000000;fill-opacity:1;fill-rule:evenodd;stroke:none"
         id="path42"
         inkscape:connector-curvature="0" /><path
         d="m 1358.42,1.94141 0,35.27739 -93.6,0 0,48.2382 79.2,0 0,35.277 -79.2,0 0,46.797 93.6,0 0,35.278 -132.48,0 0,-200.87931 132.48,0"
         style="fill:#000000;fill-opacity:1;fill-rule:evenodd;stroke:none"
         id="path44"
         inkscape:connector-curvature="0" /><path
         d="m 1527.62,60.9805 c 0,18 -5.04,32.3984 -15.84,42.4765 -8.64,7.918 -20.16,12.957 -38.16,15.84 l -23.76,3.598 c -7.91,0.718 -14.4,4.316 -18.72,7.917 -4.31,3.598 -5.75,9.36 -5.75,14.399 0,13.68 10.07,25.199 30.95,25.199 12.96,0 28.8,-2.156 41.04,-13.68 l 25.2,24.477 c -17.28,16.559 -37.44,23.039 -64.79,23.039 -43.92,0 -69.84,-25.199 -69.84,-60.476 0,-17.278 4.31,-30.239 13.67,-39.598 9.36,-8.6368 22.32,-14.3986 39.6,-16.5587 l 23.76,-3.5977 c 9.36,-1.4375 13.68,-3.5976 18,-7.1992 4.32,-3.5976 5.76,-9.3594 5.76,-16.5586 0,-16.5586 -12.24,-25.1992 -35.28,-25.1992 -18.72,0 -36,4.3164 -48.24,17.2773 l -25.2,-25.1992 C 1399.46,6.98047 1422.5,0.5 1452.74,0.5 c 42.48,0 74.88,21.5977 74.88,60.4766"
         style="fill:#000000;fill-opacity:1;fill-rule:evenodd;stroke:none"
         id="path46"
         inkscape:connector-curvature="0" /><path
         d="m 1711.21,103.449 c 0,30.239 2.16,57.598 -20.15,79.918 -12.96,13.68 -32.4,19.438 -53.28,19.438 l -72,0 0,-200.87922 72,0 c 20.88,0 40.32,5.75781 53.28,19.43752 22.32,22.3164 20.15,51.8398 20.15,82.0777 l 0,0.008 z m -38.87,0 c 0,-30.9568 -1.44,-45.3592 -8.64,-53.9998 -6.48,-7.918 -15.84,-12.2383 -29.52,-12.2383 l -29.52,0 0,130.3161 29.52,0 c 13.68,0 23.04,-4.316 29.52,-12.238 7.2,-8.637 8.64,-21.598 8.64,-51.84"
         style="fill:#000000;fill-opacity:1;fill-rule:evenodd;stroke:none"
         id="path48"
         inkscape:connector-curvature="0" /><path
         d="m 1884.73,1.94141 0,35.27739 -92.87,0 0,48.2382 79.19,0 0,35.277 -79.19,0 0,46.797 92.87,0 0,35.278 -131.75,0 0,-200.87931 131.75,0"
         style="fill:#000000;fill-opacity:1;fill-rule:evenodd;stroke:none"
         id="path50"
         inkscape:connector-curvature="0" /><path
         d="m 2078.42,1.94141 0,200.87859 -39.6,0 0,-123.1169 -79.2,123.1169 -35.28,0 0,-200.87859 39.6,0 0,123.11759 79.2,-123.11759 35.28,0"
         style="fill:#000000;fill-opacity:1;fill-rule:evenodd;stroke:none"
         id="path52"
         inkscape:connector-curvature="0" /><path
         d="m 996.977,703.219 0,34.558 -144,0 0,-34.558 52.558,0 0,-165.598 38.879,0 0,165.598 52.559,0"
         style="fill:#000000;fill-opacity:1;fill-rule:evenodd;stroke:none"
         id="path54"
         inkscape:connector-curvature="0" /><path
         d="m 1165.46,537.609 0,34.559 -93.6,0 0,48.957 79.2,0 0,34.559 -79.2,0 0,47.519 93.6,0 0,34.559 -132.48,0 0,-200.157 132.48,0"
         style="fill:#000000;fill-opacity:1;fill-rule:evenodd;stroke:none"
         id="path56"
         inkscape:connector-curvature="0" /><path
         d="m 1347.62,598.82 -39.6,0 c -4.32,-15.84 -14.4,-28.078 -33.84,-28.078 -10.8,0 -19.44,3.598 -25.2,10.078 -7.92,8.637 -10.08,18 -10.08,56.879 0,38.879 2.16,48.239 10.08,56.879 5.76,6.477 14.4,10.078 25.2,10.078 19.44,0 29.52,-12.238 33.84,-28.078 l 39.6,0 c -7.2,41.758 -36.72,63.36 -74.16,63.36 -21.6,0 -39.6,-7.918 -54,-22.317 -20.16,-20.156 -19.44,-45.359 -19.44,-79.918 0,-34.558 -0.72,-59.758 19.44,-79.918 14.4,-14.398 32.4,-22.316 54,-22.316 37.44,0 66.96,21.597 74.16,63.359"
         style="fill:#000000;fill-opacity:1;fill-rule:evenodd;stroke:none"
         id="path58"
         inkscape:connector-curvature="0" /><path
         d="m 1530.5,537.609 0,200.157 -38.88,0 0,-82.078 -68.4,0 0,82.078 -38.88,0 0,-200.157 38.88,0 0,83.52 68.4,0 0,-83.52 38.88,0"
         style="fill:#000000;fill-opacity:1;fill-rule:evenodd;stroke:none"
         id="path60"
         inkscape:connector-curvature="0" /><path
         d="m 1734.26,537.609 0,200.157 -38.88,0 0,-122.399 -79.92,122.399 -34.56,0 0,-200.157 38.88,0 0,123.118 79.92,-123.118 34.56,0"
         style="fill:#000000;fill-opacity:1;fill-rule:evenodd;stroke:none"
         id="path62"
         inkscape:connector-curvature="0" /><path
         d="m 1784.66,537.609 38.875,0 0,200.156 -38.875,0 0,-200.156 z"
         style="fill:#000000;fill-opacity:1;fill-rule:evenodd;stroke:none"
         id="path64"
         inkscape:connector-curvature="0" /><path
         d="m 2003.54,596.66 c 0,17.278 -5.04,32.399 -15.84,42.477 -7.92,7.918 -19.44,12.957 -38.16,15.117 l -23.76,3.598 c -7.92,1.437 -14.4,4.316 -18.72,7.918 -3.6,4.316 -5.76,9.359 -5.76,14.398 0,13.68 10.08,25.199 30.96,25.199 13.68,0 28.8,-1.437 41.04,-13.679 l 25.2,24.476 c -17.28,16.559 -37.44,23.758 -64.8,23.758 -43.2,0 -69.84,-25.199 -69.84,-61.199 0,-16.559 4.32,-29.52 14.4,-39.598 8.64,-8.637 21.6,-13.68 38.88,-16.559 l 23.76,-3.597 c 9.36,-1.438 14.4,-2.879 18,-6.477 4.31,-4.316 6.48,-10.078 6.48,-17.277 0,-15.84 -12.96,-24.477 -36,-24.477 -18,0 -35.28,4.317 -48.24,16.559 l -25.2,-25.199 c 19.44,-20.157 42.47,-26.637 73.44,-26.637 41.75,0 74.15,22.316 74.15,61.199"
         style="fill:#000000;fill-opacity:1;fill-rule:evenodd;stroke:none"
         id="path66"
         inkscape:connector-curvature="0" /><path
         d="m 2184.98,598.82 -39.6,0 c -3.6,-15.84 -14.4,-28.078 -33.84,-28.078 -10.8,0 -19.44,3.598 -25.2,10.078 -7.2,8.637 -9.36,18 -9.36,56.879 0,38.879 2.16,48.239 9.36,56.879 5.76,6.477 14.4,10.078 25.2,10.078 19.44,0 30.24,-12.238 33.84,-28.078 l 39.6,0 c -7.2,41.758 -36,63.36 -73.44,63.36 -22.32,0 -40.32,-7.918 -54.72,-22.317 -20.16,-20.156 -19.44,-45.359 -19.44,-79.918 0,-34.558 -0.72,-59.758 19.44,-79.918 14.4,-14.398 32.4,-22.316 54.72,-22.316 36.72,0 66.24,21.597 73.44,63.359"
         style="fill:#000000;fill-opacity:1;fill-rule:evenodd;stroke:none"
         id="path68"
         inkscape:connector-curvature="0" /><path
         d="m 2367.86,537.609 0,200.157 -38.88,0 0,-82.078 -67.68,0 0,82.078 -39.6,0 0,-200.157 39.6,0 0,83.52 67.68,0 0,-83.52 38.88,0"
         style="fill:#000000;fill-opacity:1;fill-rule:evenodd;stroke:none"
         id="path70"
         inkscape:connector-curvature="0" /><path
         d="m 2551.46,537.609 0,34.559 -93.6,0 0,48.957 79.2,0 0,34.559 -79.2,0 0,47.519 93.6,0 0,34.559 -132.48,0 0,-200.157 132.48,0"
         style="fill:#000000;fill-opacity:1;fill-rule:evenodd;stroke:none"
         id="path72"
         inkscape:connector-curvature="0" /><path
         d="m 45.1367,447.609 200.8793,0 0,-234 245.519,0 0,234 200.156,0 0,-205.199 -195.839,-195.8397 -254.879,0 -195.8402,195.8397 0,205.199 0.0039,0 z m 624.9613,-22.308 -156.239,0 0,-234 -290.156,0 0,234 -156.2382,0 0,-174.239 182.8792,-182.1558 236.879,0 182.156,182.1558 0.719,174.239 z m -4.321,66.961 -178.558,178.558 -236.879,0 -178.5588,-178.558 218.8788,0 0,-234 156.238,0 0,234 218.879,0 z m 25.918,-22.321 -222.476,0 0,-234 -200.879,0 0,234 -223.1994,0 0,27.36 195.8394,195.84 254.879,0 195.84,-195.84 0,-27.36 -0.004,0 z m -691.198906,44.641 0,-289.437 L 223.695,1.94531 l 290.157,0 222.476,223.19969 0,289.437 -222.476,223.199 -290.157,0 L 0.496094,514.582 Z m 22.320306,-8.641 0,-272.156 209.5196,-209.5194 272.156,0 209.52,209.5194 0,272.156 -209.52,209.52 -272.156,0 -209.5196,-209.52"
         style="fill:#000000;fill-opacity:1;fill-rule:evenodd;stroke:none"
         id="path74"
         inkscape:connector-curvature="0" /></g></g></svg>