<?xml version="1.0" encoding="UTF-8" standalone="no"?>
<svg
   xmlns:dc="http://purl.org/dc/elements/1.1/"
   xmlns:cc="http://creativecommons.org/ns#"
   xmlns:rdf="http://www.w3.org/1999/02/22-rdf-syntax-ns#"
   xmlns:svg="http://www.w3.org/2000/svg"
   xmlns="http://www.w3.org/2000/svg"
   xmlns:sodipodi="http://sodipodi.sourceforge.net/DTD/sodipodi-0.dtd"
   xmlns:inkscape="http://www.inkscape.org/namespaces/inkscape"
   width="370.23788pt"
   stroke-miterlimit="10"
   font-weight="normal"
   height="154.06998pt"
   font-style="normal"
   font-size="12"
   id="svg2"
   version="1.1"
   inkscape:version="0.91 r13725"
   sodipodi:docname="uc-produktionsleiter.svg"
   style="font-style:normal;font-weight:normal;font-size:12px;font-family:Dialog;color-interpolation:auto;fill:#000000;fill-opacity:0;stroke:#000000;stroke-width:1;stroke-linecap:square;stroke-linejoin:miter;stroke-miterlimit:10;stroke-dasharray:none;stroke-dashoffset:0;stroke-opacity:0;color-rendering:auto;image-rendering:auto;shape-rendering:auto;text-rendering:auto">
  <metadata
     id="metadata285">
    <rdf:RDF>
      <cc:Work
         rdf:about="">
        <dc:format>image/svg+xml</dc:format>
        <dc:type
           rdf:resource="http://purl.org/dc/dcmitype/StillImage" />
        <dc:title></dc:title>
      </cc:Work>
    </rdf:RDF>
  </metadata>
  <sodipodi:namedview
     pagecolor="#ffffff"
     bordercolor="#666666"
     borderopacity="1"
     objecttolerance="10"
     gridtolerance="10"
     guidetolerance="10"
     inkscape:pageopacity="0"
     inkscape:pageshadow="2"
     inkscape:window-width="1920"
     inkscape:window-height="1057"
     id="namedview283"
     showgrid="false"
     units="pt"
     inkscape:document-units="pt"
     fit-margin-top="0"
     fit-margin-left="0"
     fit-margin-right="0"
     fit-margin-bottom="0"
     inkscape:zoom="1.0163858"
     inkscape:cx="282.5746"
     inkscape:cy="70.518689"
     inkscape:window-x="1366"
     inkscape:window-y="23"
     inkscape:window-maximized="1"
     inkscape:current-layer="svg2" />
  <!--Generated by the Batik Graphics2D SVG Generator-->
  <defs
     id="genericDefs">
    <defs
       id="defs1">
      <clipPath
         id="clipPath1"
         clipPathUnits="userSpaceOnUse">
        <path
           id="path9"
           d="m -7,-7 114,0 0,58 -114,0 0,-58 z"
           inkscape:connector-curvature="0" />
      </clipPath>
      <clipPath
         id="clipPath2"
         clipPathUnits="userSpaceOnUse">
        <path
           id="path12"
           d="M 0,0 0,40 96,40 96,0 Z"
           inkscape:connector-curvature="0" />
      </clipPath>
      <clipPath
         id="clipPath3"
         clipPathUnits="userSpaceOnUse">
        <path
           id="path15"
           d="m -7,-7 138,0 0,58 -138,0 0,-58 z"
           inkscape:connector-curvature="0" />
      </clipPath>
      <clipPath
         id="clipPath4"
         clipPathUnits="userSpaceOnUse">
        <path
           id="path18"
           d="m 0,0 0,40 120,0 0,-40 z"
           inkscape:connector-curvature="0" />
      </clipPath>
      <clipPath
         id="clipPath5"
         clipPathUnits="userSpaceOnUse">
        <path
           id="path21"
           d="m -7,-7 48,0 0,78 -48,0 0,-78 z"
           inkscape:connector-curvature="0" />
      </clipPath>
      <clipPath
         id="clipPath6"
         clipPathUnits="userSpaceOnUse">
        <path
           id="path24"
           d="m -7,-7 149,0 0,68 -149,0 0,-68 z"
           inkscape:connector-curvature="0" />
      </clipPath>
      <clipPath
         id="clipPath7"
         clipPathUnits="userSpaceOnUse">
        <path
           id="path27"
           d="m 0,0 0,50 131,0 0,-50 z"
           inkscape:connector-curvature="0" />
      </clipPath>
      <clipPath
         id="clipPath8"
         clipPathUnits="userSpaceOnUse">
        <path
           id="path30"
           d="m -7,-7 98,0 0,58 -98,0 0,-58 z"
           inkscape:connector-curvature="0" />
      </clipPath>
      <clipPath
         id="clipPath9"
         clipPathUnits="userSpaceOnUse">
        <path
           id="path33"
           d="M 0,0 0,40 80,40 80,0 Z"
           inkscape:connector-curvature="0" />
      </clipPath>
      <clipPath
         id="clipPath10"
         clipPathUnits="userSpaceOnUse">
        <path
           id="path36"
           d="m -114,-14 342,0 0,42 -342,0 0,-42 z"
           inkscape:connector-curvature="0" />
      </clipPath>
      <clipPath
         id="clipPath11"
         clipPathUnits="userSpaceOnUse">
        <path
           id="path39"
           d="M 0,0 377,0 377,216 0,216 0,0 Z"
           inkscape:connector-curvature="0" />
      </clipPath>
      <clipPath
         id="clipPath12"
         clipPathUnits="userSpaceOnUse">
        <path
           id="path42"
           d="m 233,100 0,14 -97,0 0,-14 z m 13,47 0,14 -97,0 0,-14 z m -9,33 0,14 -97,0 0,-14 z M 0,0 0,216 377,216 377,0 Z"
           inkscape:connector-curvature="0" />
      </clipPath>
      <clipPath
         id="clipPath13"
         clipPathUnits="userSpaceOnUse">
        <path
           id="path45"
           d="M 0,0 325,0 325,219 0,219 0,0 Z"
           inkscape:connector-curvature="0" />
      </clipPath>
      <clipPath
         id="clipPath14"
         clipPathUnits="userSpaceOnUse">
        <path
           id="path48"
           d="m 142,153 0,14 -114,0 0,-14 z M 0,0 l 0,219 325,0 0,-72 -1,0 0,-14 1,0 0,-66 -5,0 0,-14 5,0 0,-53 z"
           inkscape:connector-curvature="0" />
      </clipPath>
      <clipPath
         id="clipPath15"
         clipPathUnits="userSpaceOnUse">
        <path
           id="path51"
           d="M 0,0 319,0 319,229 0,229 0,0 Z"
           inkscape:connector-curvature="0" />
      </clipPath>
      <clipPath
         id="clipPath16"
         clipPathUnits="userSpaceOnUse">
        <path
           id="path54"
           d="m 142,130 0,14 -114,0 0,-14 z M 0,0 0,229 319,229 319,0 Z"
           inkscape:connector-curvature="0" />
      </clipPath>
      <clipPath
         id="clipPath17"
         clipPathUnits="userSpaceOnUse">
        <path
           id="path57"
           d="M 0,0 376,0 376,219 0,219 0,0 Z"
           inkscape:connector-curvature="0" />
      </clipPath>
      <clipPath
         id="clipPath18"
         clipPathUnits="userSpaceOnUse">
        <path
           id="path60"
           d="m 232,53 0,14 -97,0 0,-14 z m 13,47 0,14 -97,0 0,-14 z m -9,33 0,14 -97,0 0,-14 z M 0,0 0,219 376,219 376,0 Z"
           inkscape:connector-curvature="0" />
      </clipPath>
      <clipPath
         id="clipPath19"
         clipPathUnits="userSpaceOnUse">
        <path
           id="path63"
           d="M 0,0 397,0 397,279 0,279 0,0 Z"
           inkscape:connector-curvature="0" />
      </clipPath>
      <clipPath
         id="clipPath20"
         clipPathUnits="userSpaceOnUse">
        <path
           id="path66"
           d="m 240,50 0,14 -97,0 0,-14 z m 13,47 0,14 -97,0 0,-14 z m -9,33 0,14 -97,0 0,-14 z M 0,0 0,279 397,279 397,0 Z"
           inkscape:connector-curvature="0" />
      </clipPath>
      <clipPath
         id="clipPath21"
         clipPathUnits="userSpaceOnUse">
        <path
           id="path69"
           d="m -97,-14 291,0 0,42 -291,0 0,-42 z"
           inkscape:connector-curvature="0" />
      </clipPath>
    </defs>
  </defs>
  <g
     style="fill:#ffffff;fill-opacity:1;stroke:#ffffff;stroke-opacity:1;text-rendering:geometricPrecision"
     id="g71"
     transform="matrix(0.8391611,0,0,0.8391611,0.41958055,0.41958055)">
    <rect
       style="stroke:none"
       id="rect73"
       y="0"
       height="229"
       width="551"
       x="0" />
    <rect
       style="fill:none;stroke:#000000"
       id="rect75"
       height="228"
       width="550"
       transform="translate(-654,-422)"
       y="422"
       x="654" />
    <text
       style="fill:#000000;stroke:none"
       id="text77"
       transform="translate(-654,-422)"
       y="438"
       xml:space="preserve"
       x="661">Produktionsleiter</text>
    <line
       style="fill:none;stroke:#000000"
       id="line79"
       y2="445"
       y1="445"
       x2="768"
       x1="654"
       transform="translate(-654,-422)" />
    <line
       style="fill:none;stroke:#000000"
       id="line81"
       y2="435"
       y1="422"
       x2="774"
       x1="774"
       transform="translate(-654,-422)" />
    <line
       style="fill:none;stroke:#000000"
       id="line83"
       y2="445"
       y1="435"
       x2="768"
       x1="774"
       transform="translate(-654,-422)" />
  </g>
  <g
     style="font-size:11px;font-family:sans-serif;fill:#ffffff;fill-opacity:1;stroke:#ffffff;stroke-opacity:1;text-rendering:geometricPrecision"
     id="g85"
     transform="matrix(0.8391611,0,0,0.8391611,370.48963,29.790219)"
     font-size="11">
    <ellipse
       style="stroke:none"
       id="ellipse87"
       cy="20"
       cx="48"
       clip-path="url(#clipPath1)"
       ry="20"
       rx="48" />
  </g>
  <g
     style="font-size:11px;font-family:sans-serif;fill:#000000;fill-opacity:1;stroke:#000000;stroke-linecap:butt;stroke-linejoin:round;stroke-miterlimit:0;stroke-opacity:1;text-rendering:geometricPrecision"
     id="g89"
     stroke-miterlimit="0"
     transform="matrix(0.8391611,0,0,0.8391611,370.48963,29.790219)"
     font-size="11">
    <ellipse
       style="fill:none"
       id="ellipse91"
       cy="20"
       cx="48"
       clip-path="url(#clipPath1)"
       ry="20"
       rx="48" />
  </g>
  <g
     style="font-size:11px;font-family:sans-serif;fill:#000000;fill-opacity:1;stroke:#000000;stroke-opacity:1;text-rendering:geometricPrecision"
     id="g93"
     transform="matrix(0.8391611,0,0,0.8391611,370.48963,29.790219)"
     font-size="11">
    <text
       style="stroke:none"
       id="text95"
       clip-path="url(#clipPath2)"
       y="24"
       xml:space="preserve"
       x="9">Überwachung</text>
  </g>
  <g
     style="font-size:11px;font-family:sans-serif;fill:#ffffff;fill-opacity:1;stroke:#ffffff;stroke-opacity:1;text-rendering:geometricPrecision"
     id="g97"
     transform="matrix(0.8391611,0,0,0.8391611,151.46858,54.965053)"
     font-size="11">
    <ellipse
       style="stroke:none"
       id="ellipse99"
       cy="20"
       cx="60"
       clip-path="url(#clipPath3)"
       ry="20"
       rx="60" />
  </g>
  <g
     style="font-size:11px;font-family:sans-serif;fill:#000000;fill-opacity:1;stroke:#000000;stroke-linecap:butt;stroke-linejoin:round;stroke-miterlimit:0;stroke-opacity:1;text-rendering:geometricPrecision"
     id="g101"
     stroke-miterlimit="0"
     transform="matrix(0.8391611,0,0,0.8391611,151.46858,54.965053)"
     font-size="11">
    <ellipse
       style="fill:none"
       id="ellipse103"
       cy="20"
       cx="60"
       clip-path="url(#clipPath3)"
       ry="20"
       rx="60" />
  </g>
  <g
     style="font-size:11px;font-family:sans-serif;fill:#000000;fill-opacity:1;stroke:#000000;stroke-opacity:1;text-rendering:geometricPrecision"
     id="g105"
     transform="matrix(0.8391611,0,0,0.8391611,151.46858,54.965053)"
     font-size="11">
    <text
       style="stroke:none"
       id="text107"
       clip-path="url(#clipPath4)"
       y="24"
       xml:space="preserve"
       x="5">Produktionsplanung</text>
  </g>
  <g
     style="font-size:11px;font-family:sans-serif;fill:#ffffff;fill-opacity:1;stroke:#ffffff;stroke-opacity:1;text-rendering:geometricPrecision"
     id="g109"
     transform="matrix(0.8391611,0,0,0.8391611,45.73428,80.13989)"
     font-size="11">
    <circle
       style="stroke:none"
       id="circle111"
       cy="7.5"
       cx="14.5"
       clip-path="url(#clipPath5)"
       r="7.5" />
  </g>
  <g
     style="font-size:11px;font-family:sans-serif;fill:#000000;fill-opacity:1;stroke:#000000;stroke-linecap:butt;stroke-linejoin:round;stroke-miterlimit:0;stroke-opacity:1;text-rendering:geometricPrecision"
     id="g113"
     stroke-miterlimit="0"
     transform="matrix(0.8391611,0,0,0.8391611,45.73428,80.13989)"
     font-size="11">
    <circle
       style="fill:none"
       id="circle115"
       cy="7.5"
       cx="14.5"
       clip-path="url(#clipPath5)"
       r="7.5" />
    <line
       style="fill:none"
       id="line117"
       y1="15"
       x2="15"
       clip-path="url(#clipPath5)"
       x1="15"
       y2="40" />
    <line
       style="fill:none"
       id="line119"
       y1="24"
       x2="30"
       clip-path="url(#clipPath5)"
       x1="0"
       y2="24" />
    <line
       style="fill:none"
       id="line121"
       y1="40"
       x2="0"
       clip-path="url(#clipPath5)"
       x1="15"
       y2="60" />
    <line
       style="fill:none"
       id="line123"
       y1="40"
       x2="30"
       clip-path="url(#clipPath5)"
       x1="15"
       y2="60" />
  </g>
  <g
     style="font-size:11px;font-family:sans-serif;fill:#ffffff;fill-opacity:1;stroke:#ffffff;stroke-opacity:1;text-rendering:geometricPrecision"
     id="g125"
     transform="matrix(0.8391611,0,0,0.8391611,147.27278,122.09794)"
     font-size="11">
    <ellipse
       style="stroke:none"
       id="ellipse127"
       cy="25"
       cx="65.5"
       clip-path="url(#clipPath6)"
       ry="25"
       rx="65.5" />
  </g>
  <g
     style="font-size:11px;font-family:sans-serif;fill:#000000;fill-opacity:1;stroke:#000000;stroke-linecap:butt;stroke-linejoin:round;stroke-miterlimit:0;stroke-opacity:1;text-rendering:geometricPrecision"
     id="g129"
     stroke-miterlimit="0"
     transform="matrix(0.8391611,0,0,0.8391611,147.27278,122.09794)"
     font-size="11">
    <ellipse
       style="fill:none"
       id="ellipse131"
       cy="25"
       cx="65.5"
       clip-path="url(#clipPath6)"
       ry="25"
       rx="65.5" />
  </g>
  <g
     style="font-size:11px;font-family:sans-serif;fill:#000000;fill-opacity:1;stroke:#000000;stroke-opacity:1;text-rendering:geometricPrecision"
     id="g133"
     transform="matrix(0.8391611,0,0,0.8391611,147.27278,122.09794)"
     font-size="11">
    <text
       style="stroke:none"
       id="text135"
       clip-path="url(#clipPath7)"
       y="22"
       xml:space="preserve"
       x="30">Vergabe von</text>
    <text
       style="stroke:none"
       id="text137"
       clip-path="url(#clipPath7)"
       y="36"
       xml:space="preserve"
       x="12">Wartungsaufträgen</text>
  </g>
  <g
     style="font-size:11px;font-family:sans-serif;fill:#ffffff;fill-opacity:1;stroke:#ffffff;stroke-opacity:1;text-rendering:geometricPrecision"
     id="g139"
     transform="matrix(0.8391611,0,0,0.8391611,370.48963,88.5315)"
     font-size="11">
    <ellipse
       style="stroke:none"
       id="ellipse141"
       cy="20"
       cx="48"
       clip-path="url(#clipPath1)"
       ry="20"
       rx="48" />
  </g>
  <g
     style="font-size:11px;font-family:sans-serif;fill:#000000;fill-opacity:1;stroke:#000000;stroke-linecap:butt;stroke-linejoin:round;stroke-miterlimit:0;stroke-opacity:1;text-rendering:geometricPrecision"
     id="g143"
     stroke-miterlimit="0"
     transform="matrix(0.8391611,0,0,0.8391611,370.48963,88.5315)"
     font-size="11">
    <ellipse
       style="fill:none"
       id="ellipse145"
       cy="20"
       cx="48"
       clip-path="url(#clipPath1)"
       ry="20"
       rx="48" />
  </g>
  <g
     style="font-size:11px;font-family:sans-serif;fill:#000000;fill-opacity:1;stroke:#000000;stroke-opacity:1;text-rendering:geometricPrecision"
     id="g147"
     transform="matrix(0.8391611,0,0,0.8391611,370.48963,88.5315)"
     font-size="11">
    <text
       style="stroke:none"
       id="text149"
       clip-path="url(#clipPath2)"
       y="24"
       xml:space="preserve"
       x="4">Dokumentation</text>
  </g>
  <g
     style="font-size:11px;font-family:sans-serif;fill:#ffffff;fill-opacity:1;stroke:#ffffff;stroke-opacity:1;text-rendering:geometricPrecision"
     id="g151"
     transform="matrix(0.8391611,0,0,0.8391611,370.48963,147.27278)"
     font-size="11">
    <ellipse
       style="stroke:none"
       id="ellipse153"
       cy="20"
       cx="40"
       clip-path="url(#clipPath8)"
       ry="20"
       rx="40" />
  </g>
  <g
     style="font-size:11px;font-family:sans-serif;fill:#000000;fill-opacity:1;stroke:#000000;stroke-linecap:butt;stroke-linejoin:round;stroke-miterlimit:0;stroke-opacity:1;text-rendering:geometricPrecision"
     id="g155"
     stroke-miterlimit="0"
     transform="matrix(0.8391611,0,0,0.8391611,370.48963,147.27278)"
     font-size="11">
    <ellipse
       style="fill:none"
       id="ellipse157"
       cy="20"
       cx="40"
       clip-path="url(#clipPath8)"
       ry="20"
       rx="40" />
  </g>
  <g
     style="font-size:11px;font-family:sans-serif;fill:#000000;fill-opacity:1;stroke:#000000;stroke-opacity:1;text-rendering:geometricPrecision"
     id="g159"
     transform="matrix(0.8391611,0,0,0.8391611,370.48963,147.27278)"
     font-size="11">
    <text
       style="stroke:none"
       id="text161"
       clip-path="url(#clipPath9)"
       y="24"
       xml:space="preserve"
       x="11">Erstellung</text>
  </g>
  <g
     style="font-size:11px;font-family:sans-serif;fill:#000000;fill-opacity:1;stroke:#000000;stroke-opacity:1;text-rendering:geometricPrecision"
     id="g163"
     transform="matrix(0.8391611,0,0,0.8391611,10.489514,130.48955)"
     font-size="11">
    <text
       style="stroke:none"
       id="text165"
       clip-path="url(#clipPath10)"
       y="11"
       xml:space="preserve"
       x="9">Produktionsleiter</text>
  </g>
  <g
     style="font-size:11px;font-family:sans-serif;fill:#000000;fill-opacity:1;stroke:#000000;stroke-linecap:butt;stroke-linejoin:round;stroke-dasharray:4;stroke-opacity:1;text-rendering:geometricPrecision"
     id="g167"
     transform="matrix(0.8391611,0,0,0.8391611,141.39865,-37.34267)"
     font-size="11">
    <line
       style="fill:none"
       id="line169"
       y1="112"
       x2="273"
       clip-path="url(#clipPath12)"
       x1="100"
       y2="100" />
    <line
       style="fill:none;stroke-dasharray:none"
       id="line171"
       y2="94"
       y1="100"
       x2="260"
       x1="273"
       clip-path="url(#clipPath12)" />
    <line
       style="fill:none;stroke-dasharray:none"
       id="line173"
       y2="106"
       y1="100"
       x2="261"
       x1="273"
       clip-path="url(#clipPath12)" />
  </g>
  <g
     style="font-size:11px;font-family:sans-serif;fill:#000000;fill-opacity:1;stroke:#000000;stroke-linecap:butt;stroke-linejoin:round;stroke-opacity:1;text-rendering:geometricPrecision"
     id="g175"
     transform="matrix(0.8391611,0,0,0.8391611,-13.006997,2.0979026)"
     font-size="11">
    <line
       style="fill:none"
       id="line177"
       y1="115"
       x2="221"
       clip-path="url(#clipPath14)"
       x1="100"
       y2="100" />
  </g>
  <g
     style="font-size:11px;font-family:sans-serif;fill:#000000;fill-opacity:1;stroke:#000000;stroke-linecap:butt;stroke-linejoin:round;stroke-opacity:1;text-rendering:geometricPrecision"
     id="g179"
     transform="matrix(0.8391611,0,0,0.8391611,-13.006997,21.398609)"
     font-size="11">
    <line
       style="fill:none"
       id="line181"
       y1="100"
       x2="215"
       clip-path="url(#clipPath16)"
       x1="100"
       y2="125" />
  </g>
  <g
     style="font-size:11px;font-family:sans-serif;fill:#000000;fill-opacity:1;stroke:#000000;stroke-linecap:butt;stroke-linejoin:round;stroke-dasharray:4;stroke-opacity:1;text-rendering:geometricPrecision"
     id="g183"
     transform="matrix(0.8391611,0,0,0.8391611,142.23781,2.0979026)"
     font-size="11">
    <line
       style="fill:none"
       id="line185"
       y1="100"
       x2="272"
       clip-path="url(#clipPath18)"
       x1="100"
       y2="115" />
    <line
       style="fill:none;stroke-dasharray:none"
       id="line187"
       y2="108"
       y1="115"
       x2="260"
       x1="272"
       clip-path="url(#clipPath18)" />
    <line
       style="fill:none;stroke-dasharray:none"
       id="line189"
       y2="120"
       y1="115"
       x2="259"
       x1="272"
       clip-path="url(#clipPath18)" />
  </g>
  <g
     style="font-size:11px;font-family:sans-serif;fill:#000000;fill-opacity:1;stroke:#000000;stroke-linecap:butt;stroke-linejoin:round;stroke-dasharray:4;stroke-opacity:1;text-rendering:geometricPrecision"
     id="g191"
     transform="matrix(0.8391611,0,0,0.8391611,135.52452,4.6153856)"
     font-size="11">
    <line
       style="fill:none"
       id="line193"
       y1="100"
       x2="293"
       clip-path="url(#clipPath20)"
       x1="100"
       y2="175" />
    <line
       style="fill:none;stroke-dasharray:none"
       id="line195"
       y2="165"
       y1="175"
       x2="284"
       x1="293"
       clip-path="url(#clipPath20)" />
    <line
       style="fill:none;stroke-dasharray:none"
       id="line197"
       y2="176"
       y1="175"
       x2="280"
       x1="293"
       clip-path="url(#clipPath20)" />
  </g>
  <g
     style="font-size:11px;font-family:sans-serif;fill:#000000;fill-opacity:1;stroke:#000000;stroke-opacity:1;text-rendering:geometricPrecision"
     id="g199"
     transform="matrix(0.8391611,0,0,0.8391611,258.8812,113.70633)"
     font-size="11">
    <text
       style="stroke:none"
       id="text201"
       clip-path="url(#clipPath21)"
       y="11"
       xml:space="preserve"
       x="10">&lt;&lt;Include&gt;&gt;</text>
  </g>
  <g
     style="font-size:11px;font-family:sans-serif;fill:#000000;fill-opacity:1;stroke:#000000;stroke-opacity:1;text-rendering:geometricPrecision"
     id="g203"
     transform="matrix(0.8391611,0,0,0.8391611,266.43365,86.01401)"
     font-size="11">
    <text
       style="stroke:none"
       id="text205"
       clip-path="url(#clipPath21)"
       y="11"
       xml:space="preserve"
       x="10">&lt;&lt;Include&gt;&gt;</text>
  </g>
  <g
     style="font-size:11px;font-family:sans-serif;fill:#000000;fill-opacity:1;stroke:#000000;stroke-opacity:1;text-rendering:geometricPrecision"
     id="g207"
     transform="matrix(0.8391611,0,0,0.8391611,255.52456,46.573441)"
     font-size="11">
    <text
       style="stroke:none"
       id="text209"
       clip-path="url(#clipPath21)"
       y="11"
       xml:space="preserve"
       x="10">&lt;&lt;Include&gt;&gt;</text>
  </g>
</svg>
