<?xml version="1.0" encoding="UTF-8" standalone="no"?>
<!-- Created with Inkscape (http://www.inkscape.org/) -->

<svg
   xmlns:dc="http://purl.org/dc/elements/1.1/"
   xmlns:cc="http://creativecommons.org/ns#"
   xmlns:rdf="http://www.w3.org/1999/02/22-rdf-syntax-ns#"
   xmlns:svg="http://www.w3.org/2000/svg"
   xmlns="http://www.w3.org/2000/svg"
   xmlns:sodipodi="http://sodipodi.sourceforge.net/DTD/sodipodi-0.dtd"
   xmlns:inkscape="http://www.inkscape.org/namespaces/inkscape"
   id="svg2"
   version="1.1"
   inkscape:version="0.91 r13725"
   xml:space="preserve"
   width="370.2905pt"
   height="204.77527pt"
   viewBox="0 0 462.86313 255.96907"
   sodipodi:docname="vgl-arch-ffz.svg"><metadata
     id="metadata8"><rdf:RDF><cc:Work
         rdf:about=""><dc:format>image/svg+xml</dc:format><dc:type
           rdf:resource="http://purl.org/dc/dcmitype/StillImage" /><dc:title></dc:title></cc:Work></rdf:RDF></metadata><defs
     id="defs6"><clipPath
       clipPathUnits="userSpaceOnUse"
       id="clipPath16"><path
         d="m 56.664,796.08 289.61,0 0,16.08 -289.61,0 0,-16.08 z"
         id="path18"
         inkscape:connector-curvature="0"
         style="clip-rule:evenodd" /></clipPath><clipPath
       clipPathUnits="userSpaceOnUse"
       id="clipPath24"><path
         d="m 56.64,796.08 289.63,0 0,16.08 -289.63,0 0,-16.08 z"
         id="path26"
         inkscape:connector-curvature="0"
         style="clip-rule:evenodd" /></clipPath><clipPath
       clipPathUnits="userSpaceOnUse"
       id="clipPath36"><path
         d="m 56.64,796.08 289.63,0 0,16.08 -289.63,0 0,-16.08 z"
         id="path38"
         inkscape:connector-curvature="0"
         style="clip-rule:evenodd" /></clipPath><clipPath
       clipPathUnits="userSpaceOnUse"
       id="clipPath44"><path
         d="m 56.64,796.08 289.63,0 0,16.08 -289.63,0 0,-16.08 z"
         id="path46"
         inkscape:connector-curvature="0"
         style="clip-rule:evenodd" /></clipPath><clipPath
       clipPathUnits="userSpaceOnUse"
       id="clipPath56"><path
         d="m 56.64,796.08 289.63,0 0,16.08 -289.63,0 0,-16.08 z"
         id="path58"
         inkscape:connector-curvature="0"
         style="clip-rule:evenodd" /></clipPath><clipPath
       clipPathUnits="userSpaceOnUse"
       id="clipPath68"><path
         d="m 56.64,796.08 289.63,0 0,16.08 -289.63,0 0,-16.08 z"
         id="path70"
         inkscape:connector-curvature="0"
         style="clip-rule:evenodd" /></clipPath><clipPath
       clipPathUnits="userSpaceOnUse"
       id="clipPath80"><path
         d="m 56.64,796.08 289.63,0 0,16.08 -289.63,0 0,-16.08 z"
         id="path82"
         inkscape:connector-curvature="0"
         style="clip-rule:evenodd" /></clipPath><clipPath
       clipPathUnits="userSpaceOnUse"
       id="clipPath92"><path
         d="m 56.64,796.08 289.63,0 0,16.08 -289.63,0 0,-16.08 z"
         id="path94"
         inkscape:connector-curvature="0"
         style="clip-rule:evenodd" /></clipPath><clipPath
       clipPathUnits="userSpaceOnUse"
       id="clipPath104"><path
         d="m 56.64,796.08 289.63,0 0,16.08 -289.63,0 0,-16.08 z"
         id="path106"
         inkscape:connector-curvature="0"
         style="clip-rule:evenodd" /></clipPath><clipPath
       clipPathUnits="userSpaceOnUse"
       id="clipPath116"><path
         d="m 56.64,796.08 289.63,0 0,16.08 -289.63,0 0,-16.08 z"
         id="path118"
         inkscape:connector-curvature="0"
         style="clip-rule:evenodd" /></clipPath><clipPath
       clipPathUnits="userSpaceOnUse"
       id="clipPath128"><path
         d="m 56.64,796.08 289.63,0 0,16.08 -289.63,0 0,-16.08 z"
         id="path130"
         inkscape:connector-curvature="0"
         style="clip-rule:evenodd" /></clipPath><clipPath
       clipPathUnits="userSpaceOnUse"
       id="clipPath140"><path
         d="m 56.64,796.08 289.63,0 0,16.08 -289.63,0 0,-16.08 z"
         id="path142"
         inkscape:connector-curvature="0"
         style="clip-rule:evenodd" /></clipPath><clipPath
       clipPathUnits="userSpaceOnUse"
       id="clipPath148"><path
         d="m 346.27,796.08 95.184,0 0,16.08 -95.184,0 0,-16.08 z"
         id="path150"
         inkscape:connector-curvature="0"
         style="clip-rule:evenodd" /></clipPath><clipPath
       clipPathUnits="userSpaceOnUse"
       id="clipPath156"><path
         d="m 346.27,796.08 95.184,0 0,16.08 -95.184,0 0,-16.08 z"
         id="path158"
         inkscape:connector-curvature="0"
         style="clip-rule:evenodd" /></clipPath><clipPath
       clipPathUnits="userSpaceOnUse"
       id="clipPath168"><path
         d="m 346.27,796.08 95.184,0 0,16.08 -95.184,0 0,-16.08 z"
         id="path170"
         inkscape:connector-curvature="0"
         style="clip-rule:evenodd" /></clipPath><clipPath
       clipPathUnits="userSpaceOnUse"
       id="clipPath180"><path
         d="m 346.27,796.08 95.184,0 0,16.08 -95.184,0 0,-16.08 z"
         id="path182"
         inkscape:connector-curvature="0"
         style="clip-rule:evenodd" /></clipPath><clipPath
       clipPathUnits="userSpaceOnUse"
       id="clipPath192"><path
         d="m 346.27,796.08 95.184,0 0,16.08 -95.184,0 0,-16.08 z"
         id="path194"
         inkscape:connector-curvature="0"
         style="clip-rule:evenodd" /></clipPath><clipPath
       clipPathUnits="userSpaceOnUse"
       id="clipPath204"><path
         d="m 346.27,796.08 95.184,0 0,16.08 -95.184,0 0,-16.08 z"
         id="path206"
         inkscape:connector-curvature="0"
         style="clip-rule:evenodd" /></clipPath><clipPath
       clipPathUnits="userSpaceOnUse"
       id="clipPath212"><path
         d="m 441.46,796.08 97.464,0 0,16.08 -97.464,0 0,-16.08 z"
         id="path214"
         inkscape:connector-curvature="0"
         style="clip-rule:evenodd" /></clipPath><clipPath
       clipPathUnits="userSpaceOnUse"
       id="clipPath220"><path
         d="m 441.46,796.08 97.464,0 0,16.08 -97.464,0 0,-16.08 z"
         id="path222"
         inkscape:connector-curvature="0"
         style="clip-rule:evenodd" /></clipPath><clipPath
       clipPathUnits="userSpaceOnUse"
       id="clipPath232"><path
         d="m 441.46,796.08 97.464,0 0,16.08 -97.464,0 0,-16.08 z"
         id="path234"
         inkscape:connector-curvature="0"
         style="clip-rule:evenodd" /></clipPath><clipPath
       clipPathUnits="userSpaceOnUse"
       id="clipPath244"><path
         d="m 441.46,796.08 97.464,0 0,16.08 -97.464,0 0,-16.08 z"
         id="path246"
         inkscape:connector-curvature="0"
         style="clip-rule:evenodd" /></clipPath><clipPath
       clipPathUnits="userSpaceOnUse"
       id="clipPath256"><path
         d="m 441.46,796.08 97.464,0 0,16.08 -97.464,0 0,-16.08 z"
         id="path258"
         inkscape:connector-curvature="0"
         style="clip-rule:evenodd" /></clipPath><clipPath
       clipPathUnits="userSpaceOnUse"
       id="clipPath264"><path
         d="m 441.46,796.08 97.464,0 0,16.08 -97.464,0 0,-16.08 z"
         id="path266"
         inkscape:connector-curvature="0"
         style="clip-rule:evenodd" /></clipPath><clipPath
       clipPathUnits="userSpaceOnUse"
       id="clipPath272"><path
         d="m 441.46,796.08 97.464,0 0,16.08 -97.464,0 0,-16.08 z"
         id="path274"
         inkscape:connector-curvature="0"
         style="clip-rule:evenodd" /></clipPath><clipPath
       clipPathUnits="userSpaceOnUse"
       id="clipPath424"><path
         d="m 59.184,289.49 477.1,0 0,257.9 -477.1,0 0,-257.9 z"
         id="path426"
         inkscape:connector-curvature="0"
         style="clip-rule:evenodd" /></clipPath><clipPath
       clipPathUnits="userSpaceOnUse"
       id="clipPath434"><path
         d="m 0,0 484.5,0 0,252.74 L 0,252.74 0,0 Z"
         id="path436"
         inkscape:connector-curvature="0" /></clipPath><clipPath
       clipPathUnits="userSpaceOnUse"
       id="clipPath654"><path
         d="m 59.184,289.49 477.1,0 0,257.9 -477.1,0 0,-257.9 z"
         id="path656"
         inkscape:connector-curvature="0"
         style="clip-rule:evenodd" /></clipPath></defs><sodipodi:namedview
     pagecolor="#ffffff"
     bordercolor="#666666"
     borderopacity="1"
     objecttolerance="10"
     gridtolerance="10"
     guidetolerance="10"
     inkscape:pageopacity="0"
     inkscape:pageshadow="2"
     inkscape:window-width="2560"
     inkscape:window-height="1355"
     id="namedview4"
     showgrid="false"
     inkscape:document-units="pt"
     units="pt"
     fit-margin-top="0"
     fit-margin-left="0"
     fit-margin-right="0"
     fit-margin-bottom="0"
     inkscape:zoom="1.268365"
     inkscape:cx="220.39166"
     inkscape:cy="99.582149"
     inkscape:window-x="1920"
     inkscape:window-y="0"
     inkscape:window-maximized="1"
     inkscape:current-layer="g10" /><g
     id="g10"
     inkscape:groupmode="layer"
     inkscape:label="Pauker et al. - 2013 - Information Architecture for Reconfigurable production systems"
     transform="matrix(1.25,0,0,-1.25,-93.498745,677.18804)"><g
       id="g420"
       transform="matrix(0.83028779,0,0,0.83028779,12.694303,91.941661)"><g
         id="g422"
         clip-path="url(#clipPath424)"><g
           id="g428"
           transform="matrix(6.2146,0,0,3.5049,73.76,292.28)"><g
             id="g430"
             transform="scale(0.14861,0.28487)"><g
               id="g432"
               clip-path="url(#clipPath434)"><path
                 d="m 359.5,100.55 14.173,0 0,45.354 -14.173,0 0,-45.354 z"
                 style="fill:#bfbfbf;fill-opacity:1;fill-rule:evenodd;stroke:none"
                 id="path438"
                 inkscape:connector-curvature="0" /><path
                 d="m 249.66,145.9 233.86,0 0,103.46 -233.86,0 0,-103.46 z"
                 style="fill:#ffffff;fill-opacity:1;fill-rule:evenodd;stroke:none"
                 id="path440"
                 inkscape:connector-curvature="0" /><path
                 d="m 249.66,145.9 233.86,0 0,103.46 -233.86,0 0,-103.46 z"
                 style="fill:none;stroke:#000000;stroke-width:1;stroke-linecap:round;stroke-linejoin:round;stroke-miterlimit:10;stroke-dasharray:none;stroke-opacity:1"
                 id="path442"
                 inkscape:connector-curvature="0" /><text
                 transform="matrix(1,0,0,-1,254.05,234.52)"
                 style="font-variant:normal;font-weight:normal;font-size:12.05000019px;font-family:Calibri;-inkscape-font-specification:Calibri;writing-mode:lr-tb;fill:#000000;fill-opacity:1;fill-rule:nonzero;stroke:none"
                 id="text444"><tspan
                   x="0 6.73595 11.98975 14.97815 17.966551 20.2199 26.955851 32.956749 39.692699 43.44025 47.922852 53.923752 56.912151 59.900551 65.901451"
                   y="0"
                   sodipodi:role="line"
                   id="tspan446">Cell Controller</tspan></text>
<path
                 d="m 309.89,100.55 14.173,0 0,18.585 -14.173,0 0,-18.585 z"
                 style="fill:#bfbfbf;fill-opacity:1;fill-rule:evenodd;stroke:none"
                 id="path448"
                 inkscape:connector-curvature="0" /><path
                 d="m 409.11,100.55 14.173,0 0,18.585 -14.173,0 0,-18.585 z"
                 style="fill:#bfbfbf;fill-opacity:1;fill-rule:evenodd;stroke:none"
                 id="path450"
                 inkscape:connector-curvature="0" /><path
                 d="m 458.71,100.55 14.173,0 0,18.585 -14.173,0 0,-18.585 z"
                 style="fill:#bfbfbf;fill-opacity:1;fill-rule:evenodd;stroke:none"
                 id="path452"
                 inkscape:connector-curvature="0" /><path
                 d="m 260.29,100.55 14.173,0 0,18.585 -14.173,0 0,-18.585 z"
                 style="fill:#bfbfbf;fill-opacity:1;fill-rule:evenodd;stroke:none"
                 id="path454"
                 inkscape:connector-curvature="0" /><path
                 d="m 68.948,52.006 14.173,0 0,26.22 -14.173,0 0,-26.22 z"
                 style="fill:#bfbfbf;fill-opacity:1;fill-rule:evenodd;stroke:none"
                 id="path456"
                 inkscape:connector-curvature="0" /><path
                 d="m 1.625,39.764 162.99,0 0,14.173 -162.99,0 0,-14.173 z"
                 style="fill:#bfbfbf;fill-opacity:1;fill-rule:evenodd;stroke:none"
                 id="path458"
                 inkscape:connector-curvature="0" /><text
                 transform="matrix(1,0,0,-1,5.625,42.618)"
                 style="font-variant:normal;font-weight:normal;font-size:12.02499962px;font-family:Calibri;-inkscape-font-specification:Calibri;writing-mode:lr-tb;fill:#000000;fill-opacity:1;fill-rule:nonzero;stroke:none"
                 id="text460"><tspan
                   x="0 7.5253749"
                   y="0"
                   sodipodi:role="line"
                   id="tspan462">DI</tspan></text>
<text
                 transform="matrix(1,0,0,-1,16.05,42.618)"
                 style="font-variant:normal;font-weight:normal;font-size:12.02499962px;font-family:Calibri;-inkscape-font-specification:Calibri;writing-mode:lr-tb;fill:#000000;fill-opacity:1;fill-rule:nonzero;stroke:none"
                 id="text464"><tspan
                   x="0"
                   y="0"
                   id="tspan466">/</tspan></text>
<text
                 transform="matrix(1,0,0,-1,20.7,42.618)"
                 style="font-variant:normal;font-weight:normal;font-size:12.02499962px;font-family:Calibri;-inkscape-font-specification:Calibri;writing-mode:lr-tb;fill:#000000;fill-opacity:1;fill-rule:nonzero;stroke:none"
                 id="text468"><tspan
                   x="0 7.5003748"
                   y="0"
                   sodipodi:role="line"
                   id="tspan470">DO</tspan></text>
<path
                 d="m 178.79,171.42 14.173,0 0,38.268 -14.173,0 0,-38.268 z"
                 style="fill:#bfbfbf;fill-opacity:1;fill-rule:evenodd;stroke:none"
                 id="path472"
                 inkscape:connector-curvature="0" /><path
                 d="m 104.13,121.81 21.756,0 0,14.173 -21.756,0 0,-14.173 z"
                 style="fill:#bfbfbf;fill-opacity:1;fill-rule:evenodd;stroke:none"
                 id="path474"
                 inkscape:connector-curvature="0" /><path
                 d="m 51.231,164.33 14.173,0 0,24.803 -14.173,0 0,-24.803 z"
                 style="fill:#bfbfbf;fill-opacity:1;fill-rule:evenodd;stroke:none"
                 id="path476"
                 inkscape:connector-curvature="0" /><path
                 d="m 122.1,98.423 14.173,0 0,60.945 -14.173,0 0,-60.945 z"
                 style="fill:#bfbfbf;fill-opacity:1;fill-rule:evenodd;stroke:none"
                 id="path478"
                 inkscape:connector-curvature="0" /><path
                 d="m 115.01,195.51 63.78,0 0,14.173 -63.78,0 0,-14.173 z"
                 style="fill:#bfbfbf;fill-opacity:1;fill-rule:evenodd;stroke:none"
                 id="path480"
                 inkscape:connector-curvature="0" /><text
                 transform="matrix(1,0,0,-1,131.98,198.84)"
                 style="font-variant:normal;font-weight:normal;font-size:12.05000019px;font-family:Calibri;-inkscape-font-specification:Calibri;writing-mode:lr-tb;fill:#000000;fill-opacity:1;fill-rule:nonzero;stroke:none"
                 id="text482"><tspan
                   x="0 6.7501502"
                   y="0"
                   sodipodi:role="line"
                   id="tspan484">RS</tspan></text>
<text
                 transform="matrix(1,0,0,-1,144.02,198.84)"
                 style="font-variant:normal;font-weight:normal;font-size:12.05000019px;font-family:Calibri;-inkscape-font-specification:Calibri;writing-mode:lr-tb;fill:#000000;fill-opacity:1;fill-rule:nonzero;stroke:none"
                 id="text486"><tspan
                   x="0 6.00035 12.0007"
                   y="0"
                   sodipodi:role="line"
                   id="tspan488">232</tspan></text>
<path
                 d="m 207.14,171.42 14.173,0 0,70.866 -14.173,0 0,-70.866 z"
                 style="fill:#bfbfbf;fill-opacity:1;fill-rule:evenodd;stroke:none"
                 id="path490"
                 inkscape:connector-curvature="0" /><path
                 d="m 51.231,213.93 14.173,0 0,24.803 -14.173,0 0,-24.803 z"
                 style="fill:#bfbfbf;fill-opacity:1;fill-rule:evenodd;stroke:none"
                 id="path492"
                 inkscape:connector-curvature="0" /><path
                 d="m 1.625,185.59 113.39,0 0,34.016 -113.39,0 0,-34.016 z"
                 style="fill:#ffffff;fill-opacity:1;fill-rule:evenodd;stroke:none"
                 id="path494"
                 inkscape:connector-curvature="0" /><path
                 d="m 1.625,185.59 113.39,0 0,34.016 -113.39,0 0,-34.016 z"
                 style="fill:none;stroke:#000000;stroke-width:1;stroke-linecap:round;stroke-linejoin:round;stroke-miterlimit:10;stroke-dasharray:none;stroke-opacity:1"
                 id="path496"
                 inkscape:connector-curvature="0" /><text
                 transform="matrix(1,0,0,-1,49.45,206.07)"
                 style="font-variant:normal;font-weight:normal;font-size:12.05000019px;font-family:Calibri;-inkscape-font-specification:Calibri;writing-mode:lr-tb;fill:#000000;fill-opacity:1;fill-rule:nonzero;stroke:none"
                 id="text498"><tspan
                   x="0 6.7600498 12.03795 15.02635"
                   y="0"
                   sodipodi:role="line"
                   id="tspan500">Cell</tspan></text>
<text
                 transform="matrix(1,0,0,-1,33.75,191.62)"
                 style="font-variant:normal;font-weight:normal;font-size:12.05000019px;font-family:Calibri;-inkscape-font-specification:Calibri;writing-mode:lr-tb;fill:#000000;fill-opacity:1;fill-rule:nonzero;stroke:none"
                 id="text502"><tspan
                   x="0 6.7600498 12.78505 18.810049 23.3288 27.100451 33.8605 36.11385 39.102249 45.103149"
                   y="0"
                   sodipodi:role="line"
                   id="tspan504">Controller</tspan></text>
<path
                 d="m 242.57,249.37 0,-246.4568"
                 style="fill:none;stroke:#000000;stroke-width:0.14;stroke-linecap:square;stroke-linejoin:miter;stroke-miterlimit:2;stroke-dasharray:none;stroke-opacity:1"
                 id="path506"
                 inkscape:connector-curvature="0" /><path
                 d="m 1.625,235.19 219.69,0 0,14.173 -219.69,0 0,-14.173 z"
                 style="fill:#bfbfbf;fill-opacity:1;fill-rule:evenodd;stroke:none"
                 id="path508"
                 inkscape:connector-curvature="0" /><text
                 transform="matrix(1,0,0,-1,5.625,238.64)"
                 style="font-variant:normal;font-weight:normal;font-size:12.05000019px;font-family:Calibri;-inkscape-font-specification:Calibri;writing-mode:lr-tb;fill:#000000;fill-opacity:1;fill-rule:nonzero;stroke:none"
                 id="text510"><tspan
                   x="0 6.0129499 9.7846003 16.544649 22.545549 26.341299 33.101349 38.37925"
                   y="0"
                   sodipodi:role="line"
                   id="tspan512">Ethernet</tspan></text>
<path
                 d="m 164.62,29.683 70.866,0 0,141.73 -70.866,0 0,-141.73 z"
                 style="fill:#ffffff;fill-opacity:1;fill-rule:evenodd;stroke:none"
                 id="path514"
                 inkscape:connector-curvature="0" /><path
                 d="m 164.62,29.683 70.866,0 0,141.73 -70.866,0 0,-141.73 z"
                 style="fill:none;stroke:#000000;stroke-width:1;stroke-linecap:round;stroke-linejoin:round;stroke-miterlimit:2;stroke-dasharray:none;stroke-opacity:1"
                 id="path516"
                 inkscape:connector-curvature="0" /><text
                 transform="matrix(1,0,0,-1,179.13,103.69)"
                 style="font-variant:normal;font-weight:normal;font-size:12.02499962px;font-family:Calibri;-inkscape-font-specification:Calibri;writing-mode:lr-tb;fill:#000000;fill-opacity:1;fill-rule:nonzero;stroke:none"
                 id="text518"><tspan
                   x="0 10.4858 15.740725 20.983625 27.717625 29.966299 36.700298"
                   y="0"
                   sodipodi:role="line"
                   id="tspan520">Machine</tspan></text>
<text
                 transform="matrix(1,0,0,-1,189.73,89.268)"
                 style="font-variant:normal;font-weight:normal;font-size:12.05000019px;font-family:Calibri;-inkscape-font-specification:Calibri;writing-mode:lr-tb;fill:#000000;fill-opacity:1;fill-rule:nonzero;stroke:none"
                 id="text522"><tspan
                   x="0 5.9888501 11.98975 18.7257"
                   y="0"
                   sodipodi:role="line"
                   id="tspan524">Tool</tspan></text>
<path
                 d="m 1.625,72.203 148.82,0 0,28.346 -148.82,0 0,-28.346 z"
                 style="fill:#ffffff;fill-opacity:1;fill-rule:evenodd;stroke:none"
                 id="path526"
                 inkscape:connector-curvature="0" /><path
                 d="m 1.625,72.203 148.82,0 0,28.346 -148.82,0 0,-28.346 z"
                 style="fill:none;stroke:#000000;stroke-width:1;stroke-linecap:round;stroke-linejoin:round;stroke-miterlimit:2;stroke-dasharray:none;stroke-opacity:1"
                 id="path528"
                 inkscape:connector-curvature="0" /><text
                 transform="matrix(1,0,0,-1,61.375,82.268)"
                 style="font-variant:normal;font-weight:normal;font-size:12.05000019px;font-family:Calibri;-inkscape-font-specification:Calibri;writing-mode:lr-tb;fill:#000000;fill-opacity:1;fill-rule:nonzero;stroke:none"
                 id="text530"><tspan
                   x="0 6.7600498 12.78505 19.545099 25.570101"
                   y="0"
                   sodipodi:role="line"
                   id="tspan532">Robot</tspan></text>
<path
                 d="m 1.625,114.72 106.3,0 0,28.346 -106.3,0 0,-28.346 z"
                 style="fill:#ffffff;fill-opacity:1;fill-rule:evenodd;stroke:none"
                 id="path534"
                 inkscape:connector-curvature="0" /><path
                 d="m 1.625,114.72 106.3,0 0,28.346 -106.3,0 0,-28.346 z"
                 style="fill:none;stroke:#000000;stroke-width:1;stroke-linecap:round;stroke-linejoin:round;stroke-miterlimit:2;stroke-dasharray:none;stroke-opacity:1"
                 id="path536"
                 inkscape:connector-curvature="0" /><text
                 transform="matrix(1,0,0,-1,29.725,132.14)"
                 style="font-variant:normal;font-weight:normal;font-size:12.05000019px;font-family:Calibri;-inkscape-font-specification:Calibri;writing-mode:lr-tb;fill:#000000;fill-opacity:1;fill-rule:nonzero;stroke:none"
                 id="text538"><tspan
                   x="0 6.7480001 13.48395 19.48485 22.473249 26.2208 29.2092 35.210098 41.946049 47.199848"
                   y="0"
                   sodipodi:role="line"
                   id="tspan540">Additional</tspan></text>
<text
                 transform="matrix(1,0,0,-1,28.125,117.69)"
                 style="font-variant:normal;font-weight:normal;font-size:12.05000019px;font-family:Calibri;-inkscape-font-specification:Calibri;writing-mode:lr-tb;fill:#000000;fill-opacity:1;fill-rule:nonzero;stroke:none"
                 id="text542"><tspan
                   x="0 5.9888501 11.98975 18.7257 20.97905 27.715 36.716351 42.717251 49.453201"
                   y="0"
                   sodipodi:role="line"
                   id="tspan544">Equipment</tspan></text>
<path
                 d="m 1.625,157.24 134.65,0 0,14.173 -134.65,0 0,-14.173 z"
                 style="fill:#bfbfbf;fill-opacity:1;fill-rule:evenodd;stroke:none"
                 id="path546"
                 inkscape:connector-curvature="0" /><text
                 transform="matrix(1,0,0,-1,5.625,160.44)"
                 style="font-variant:normal;font-weight:normal;font-size:12.02499962px;font-family:Calibri;-inkscape-font-specification:Calibri;writing-mode:lr-tb;fill:#000000;fill-opacity:1;fill-rule:nonzero;stroke:none"
                 id="text548"><tspan
                   x="0 5.278975 8.2972498 14.30975 17.328026 23.352551 29.377075 36.135124"
                   y="0"
                   sodipodi:role="line"
                   id="tspan550">Fieldbus</tspan></text>
<path
                 d="m 263.83,157.24 205.51,0 0,28.346 -205.51,0 0,-28.346 z"
                 style="fill:#ffffff;fill-opacity:1;fill-rule:evenodd;stroke:none"
                 id="path552"
                 inkscape:connector-curvature="0" /><path
                 d="m 263.83,157.24 205.51,0 0,28.346 -205.51,0 0,-28.346 z"
                 style="fill:none;stroke:#000000;stroke-width:1;stroke-linecap:round;stroke-linejoin:round;stroke-miterlimit:2;stroke-dasharray:none;stroke-opacity:1"
                 id="path554"
                 inkscape:connector-curvature="0" /><text
                 transform="matrix(1,0,0,-1,321.85,167.57)"
                 style="font-variant:normal;font-weight:normal;font-size:12.05000019px;font-family:Calibri;-inkscape-font-specification:Calibri;writing-mode:lr-tb;fill:#000000;fill-opacity:1;fill-rule:nonzero;stroke:none"
                 id="text556"><tspan
                   x="0 3.0004499 9.0254498 12.78505 19.545099 23.31675 33.077251 39.090199 42.861851 45.85025 51.875252 58.6353 60.888649 67.648697 72.926598 78.192451 84.952499"
                   y="0"
                   sodipodi:role="line"
                   id="tspan558">Information Cache</tspan></text>
<path
                 d="m 249.66,29.683 35.433,0 0,70.866 -35.433,0 0,-70.866 z"
                 style="fill:#ffffff;fill-opacity:1;fill-rule:evenodd;stroke:none"
                 id="path560"
                 inkscape:connector-curvature="0" /><path
                 d="m 249.66,29.683 35.433,0 0,70.866 -35.433,0 0,-70.866 z"
                 style="fill:none;stroke:#000000;stroke-width:0.14;stroke-linecap:round;stroke-linejoin:round;stroke-miterlimit:2;stroke-dasharray:none;stroke-opacity:1"
                 id="path562"
                 inkscape:connector-curvature="0" /><text
                 transform="matrix(0,1,1,0,264.17,43.268)"
                 style="font-variant:normal;font-weight:normal;font-size:12.02499962px;font-family:Calibri;-inkscape-font-specification:Calibri;writing-mode:lr-tb;fill:#000000;fill-opacity:1;fill-rule:nonzero;stroke:none"
                 id="text564"><tspan
                   x="0 10.5339 15.812875 21.079824 27.837875 30.1106 36.868649"
                   y="0"
                   sodipodi:role="line"
                   id="tspan566">Machine</tspan></text>
<text
                 transform="matrix(0,1,1,0,278.6,53.893)"
                 style="font-variant:normal;font-weight:normal;font-size:12.02499962px;font-family:Calibri;-inkscape-font-specification:Calibri;writing-mode:lr-tb;fill:#000000;fill-opacity:1;fill-rule:nonzero;stroke:none"
                 id="text568"><tspan
                   x="0 6.0124998 12.037025 18.795074"
                   y="0"
                   sodipodi:role="line"
                   id="tspan570">Tool</tspan></text>
<path
                 d="m 299.26,29.683 35.433,0 0,70.866 -35.433,0 0,-70.866 z"
                 style="fill:#ffffff;fill-opacity:1;fill-rule:evenodd;stroke:none"
                 id="path572"
                 inkscape:connector-curvature="0" /><path
                 d="m 299.26,29.683 35.433,0 0,70.866 -35.433,0 0,-70.866 z"
                 style="fill:none;stroke:#000000;stroke-width:0.14;stroke-linecap:round;stroke-linejoin:round;stroke-miterlimit:2;stroke-dasharray:none;stroke-opacity:1"
                 id="path574"
                 inkscape:connector-curvature="0" /><text
                 transform="matrix(0,1,1,0,321.08,49.768)"
                 style="font-variant:normal;font-weight:normal;font-size:12.02499962px;font-family:Calibri;-inkscape-font-specification:Calibri;writing-mode:lr-tb;fill:#000000;fill-opacity:1;fill-rule:nonzero;stroke:none"
                 id="text576"><tspan
                   x="0 6.7340002 12.734475 19.468475 25.46895"
                   y="0"
                   sodipodi:role="line"
                   id="tspan578">Robot</tspan></text>
<path
                 d="m 348.87,29.683 35.433,0 0,70.866 -35.433,0 0,-70.866 z"
                 style="fill:#ffffff;fill-opacity:1;fill-rule:evenodd;stroke:none"
                 id="path580"
                 inkscape:connector-curvature="0" /><path
                 d="m 348.87,29.683 35.433,0 0,70.866 -35.433,0 0,-70.866 z"
                 style="fill:none;stroke:#000000;stroke-width:0.14;stroke-linecap:round;stroke-linejoin:round;stroke-miterlimit:2;stroke-dasharray:none;stroke-opacity:1"
                 id="path582"
                 inkscape:connector-curvature="0" /><text
                 transform="matrix(0,1,1,0,363.55,39.368)"
                 style="font-variant:normal;font-weight:normal;font-size:12.02499962px;font-family:Calibri;-inkscape-font-specification:Calibri;writing-mode:lr-tb;fill:#000000;fill-opacity:1;fill-rule:nonzero;stroke:none"
                 id="text584"><tspan
                   x="0 6.7700748 13.528125 19.55265 22.534849 26.28665 29.26885 35.293373 42.051426 47.330399"
                   y="0"
                   sodipodi:role="line"
                   id="tspan586">Additional</tspan></text>
<text
                 transform="matrix(0,1,1,0,377.98,37.768)"
                 style="font-variant:normal;font-weight:normal;font-size:12.02499962px;font-family:Calibri;-inkscape-font-specification:Calibri;writing-mode:lr-tb;fill:#000000;fill-opacity:1;fill-rule:nonzero;stroke:none"
                 id="text588"><tspan
                   x="0 6.0124998 12.037025 18.795074 21.043751 27.8018 36.832577 42.845074 49.603127"
                   y="0"
                   sodipodi:role="line"
                   id="tspan590">Equipment</tspan></text>
<path
                 d="m 263.83,196.22 56.693,0 0,28.346 -56.693,0 0,-28.346 z"
                 style="fill:#ffffff;fill-opacity:1;fill-rule:evenodd;stroke:none"
                 id="path592"
                 inkscape:connector-curvature="0" /><path
                 d="m 263.83,196.22 56.693,0 0,28.346 -56.693,0 0,-28.346 z"
                 style="fill:none;stroke:#000000;stroke-width:0.75075001;stroke-linecap:round;stroke-linejoin:round;stroke-miterlimit:2;stroke-dasharray:none;stroke-opacity:1"
                 id="path594"
                 inkscape:connector-curvature="0" /><text
                 transform="matrix(1,0,0,-1,272.85,213.27)"
                 style="font-variant:normal;font-weight:normal;font-size:9.77499962px;font-family:Calibri;-inkscape-font-specification:Calibri;writing-mode:lr-tb;fill:#000000;fill-opacity:1;fill-rule:nonzero;stroke:none"
                 id="text596"><tspan
                   x="0 4.4867249 9.7358999 14.9753 20.214701 24.711201 29.9506 34.437325"
                   y="0"
                   sodipodi:role="line"
                   id="tspan598">Sequence</tspan></text>
<text
                 transform="matrix(1,0,0,-1,277.48,201.24)"
                 style="font-variant:normal;font-weight:normal;font-size:9.77499962px;font-family:Calibri;-inkscape-font-specification:Calibri;writing-mode:lr-tb;fill:#000000;fill-opacity:1;fill-rule:nonzero;stroke:none"
                 id="text600"><tspan
                   x="0 5.2393999 10.4788 15.7182 19.462025 22.46295 27.702351"
                   y="0"
                   sodipodi:role="line"
                   id="tspan602">Control</tspan></text>
<path
                 d="m 398.48,29.842 35.433,0 0,70.866 -35.433,0 0,-70.866 z"
                 style="fill:#ffffff;fill-opacity:1;fill-rule:evenodd;stroke:none"
                 id="path604"
                 inkscape:connector-curvature="0" /><path
                 d="m 398.48,29.842 35.433,0 0,70.866 -35.433,0 0,-70.866 z"
                 style="fill:none;stroke:#000000;stroke-width:0.14;stroke-linecap:round;stroke-linejoin:round;stroke-miterlimit:2;stroke-dasharray:none;stroke-opacity:1"
                 id="path606"
                 inkscape:connector-curvature="0" /><text
                 transform="matrix(0,1,1,0,420.45,60.143)"
                 style="font-variant:normal;font-weight:normal;font-size:12px;font-family:Calibri;-inkscape-font-specification:Calibri;writing-mode:lr-tb;fill:#000000;fill-opacity:1;fill-rule:nonzero;stroke:none"
                 id="text608"><tspan
                   x="0 3.0250001 6.0500002"
                   y="0"
                   sodipodi:role="line"
                   id="tspan610">...</tspan></text>
<path
                 d="m 260.29,114.88 223.23,0 0,14.173 -223.23,0 0,-14.173 z"
                 style="fill:#bfbfbf;fill-opacity:1;fill-rule:evenodd;stroke:none"
                 id="path612"
                 inkscape:connector-curvature="0" /><text
                 transform="matrix(1,0,0,-1,437.55,117.97)"
                 style="font-variant:normal;font-weight:normal;font-size:12.05000019px;font-family:Calibri;-inkscape-font-specification:Calibri;writing-mode:lr-tb;fill:#000000;fill-opacity:1;fill-rule:nonzero;stroke:none"
                 id="text614"><tspan
                   x="0 6.0129499 9.7846003 16.544649 22.545549 26.341299 33.101349 38.37925"
                   y="0"
                   sodipodi:role="line"
                   id="tspan616">Ethernet</tspan></text>
<path
                 d="m 449.5,106.22 c 10.48,12.43 20.82,-7.203 31.18,2.83"
                 style="fill:none;stroke:#000000;stroke-width:0.99589002;stroke-linecap:round;stroke-linejoin:round;stroke-miterlimit:2;stroke-dasharray:none;stroke-opacity:1"
                 id="path618"
                 inkscape:connector-curvature="0" /><path
                 d="m 338.24,196.22 56.693,0 0,28.346 -56.693,0 0,-28.346 z"
                 style="fill:#ffffff;fill-opacity:1;fill-rule:evenodd;stroke:none"
                 id="path620"
                 inkscape:connector-curvature="0" /><path
                 d="m 338.24,196.22 56.693,0 0,28.346 -56.693,0 0,-28.346 z"
                 style="fill:none;stroke:#000000;stroke-width:0.75075001;stroke-linecap:round;stroke-linejoin:round;stroke-miterlimit:2;stroke-dasharray:none;stroke-opacity:1"
                 id="path622"
                 inkscape:connector-curvature="0" /><text
                 transform="matrix(1,0,0,-1,358.5,207.24)"
                 style="font-variant:normal;font-weight:normal;font-size:9.77499962px;font-family:Calibri;-inkscape-font-specification:Calibri;writing-mode:lr-tb;fill:#000000;fill-opacity:1;fill-rule:nonzero;stroke:none"
                 id="text624"><tspan
                   x="0 6.0018501 14.99485"
                   y="0"
                   sodipodi:role="line"
                   id="tspan626">HMI</tspan></text>
<path
                 d="m 412.65,196.22 56.693,0 0,28.346 -56.693,0 0,-28.346 z"
                 style="fill:#ffffff;fill-opacity:1;fill-rule:evenodd;stroke:none"
                 id="path628"
                 inkscape:connector-curvature="0" /><path
                 d="m 412.65,196.22 56.693,0 0,28.346 -56.693,0 0,-28.346 z"
                 style="fill:none;stroke:#000000;stroke-width:0.75075001;stroke-linecap:round;stroke-linejoin:round;stroke-miterlimit:2;stroke-dasharray:none;stroke-opacity:1"
                 id="path630"
                 inkscape:connector-curvature="0" /><text
                 transform="matrix(1,0,0,-1,437.88,207.24)"
                 style="font-variant:normal;font-weight:normal;font-size:9.77499962px;font-family:Calibri;-inkscape-font-specification:Calibri;writing-mode:lr-tb;fill:#000000;fill-opacity:1;fill-rule:nonzero;stroke:none"
                 id="text632"><tspan
                   x="0 2.277575 5.2882748"
                   y="0"
                   sodipodi:role="line"
                   id="tspan634">...</tspan></text>
<path
                 d="m 448.08,29.842 35.433,0 0,70.866 -35.433,0 0,-70.866 z"
                 style="fill:#ffffff;fill-opacity:1;fill-rule:evenodd;stroke:none"
                 id="path636"
                 inkscape:connector-curvature="0" /><g
                 id="g638"><path
                   d="m 448.08,29.842 35.433,0 0,70.866 -35.433,0 0,-70.866 z"
                   style="fill:none;stroke:#000000;stroke-width:0.14;stroke-linecap:round;stroke-linejoin:round;stroke-miterlimit:2;stroke-dasharray:0.98, 0.7;stroke-dashoffset:0;stroke-opacity:1"
                   id="path640"
                   inkscape:connector-curvature="0" /></g><text
                 transform="matrix(1,0,0,-1,22.4,6.4679)"
                 style="font-variant:normal;font-weight:normal;font-size:14.27499962px;font-family:Calibri;-inkscape-font-specification:Calibri;writing-mode:lr-tb;fill:#000000;fill-opacity:1;fill-rule:nonzero;stroke:none"
                 id="text642"><tspan
                   x="0 6.7378001 11.234425 17.9865 22.483126 29.235201 32.97525 39.727325 44.209675 47.207424 52.44635 59.198425 66.678528 69.676277 76.428352 80.924973 86.163902 89.161652 100.4389 107.19097 113.94305 121.43742 125.93405 132.68613 138.72446 143.19252 150.6869 155.1978 158.93785 165.68993 172.41345 175.43974 181.47807 188.92963 191.92737"
                   y="0"
                   sodipodi:role="line"
                   id="tspan644">State of the art manufacturing cell</tspan></text>
<text
                 transform="matrix(1,0,0,-1,307.6,6.4679)"
                 style="font-variant:normal;font-weight:normal;font-size:14.27499962px;font-family:Calibri;-inkscape-font-specification:Calibri;writing-mode:lr-tb;fill:#000000;fill-opacity:1;fill-rule:nonzero;stroke:none"
                 id="text646"><tspan
                   x="0 8.2509499 15.73105 20.984249 23.982 29.220924 35.973 43.467377 46.479401 53.231476 58.470402 64.508728 71.217972 74.958023 79.454651 86.206726 92.245049 96.713127 104.2075 109.44643"
                   y="0"
                   sodipodi:role="line"
                   id="tspan648">Desired architecture</tspan></text>
</g></g></g><g
           id="g650"><g
             id="g652"
             clip-path="url(#clipPath654)" /></g></g></g></g></svg>