<?xml version="1.0" encoding="UTF-8" standalone="no"?>
<!-- Created with Inkscape (http://www.inkscape.org/) -->

<svg
   xmlns:dc="http://purl.org/dc/elements/1.1/"
   xmlns:cc="http://creativecommons.org/ns#"
   xmlns:rdf="http://www.w3.org/1999/02/22-rdf-syntax-ns#"
   xmlns:svg="http://www.w3.org/2000/svg"
   xmlns="http://www.w3.org/2000/svg"
   xmlns:sodipodi="http://sodipodi.sourceforge.net/DTD/sodipodi-0.dtd"
   xmlns:inkscape="http://www.inkscape.org/namespaces/inkscape"
   id="svg2"
   version="1.1"
   inkscape:version="0.91 r13725"
   xml:space="preserve"
   width="370.13187pt"
   height="121.51177pt"
   viewBox="0 0 462.66483 151.88971"
   sodipodi:docname="wang-cps-architecture.svg"><metadata
     id="metadata8"><rdf:RDF><cc:Work
         rdf:about=""><dc:format>image/svg+xml</dc:format><dc:type
           rdf:resource="http://purl.org/dc/dcmitype/StillImage" /><dc:title></dc:title></cc:Work></rdf:RDF></metadata><defs
     id="defs6"><clipPath
       clipPathUnits="userSpaceOnUse"
       id="clipPath18"><path
         d="m 0,0 2384,0 0,3370 L 0,3370 0,0 Z"
         id="path20"
         inkscape:connector-curvature="0" /></clipPath></defs><sodipodi:namedview
     pagecolor="#ffffff"
     bordercolor="#666666"
     borderopacity="1"
     objecttolerance="10"
     gridtolerance="10"
     guidetolerance="10"
     inkscape:pageopacity="0"
     inkscape:pageshadow="2"
     inkscape:window-width="1981"
     inkscape:window-height="1270"
     id="namedview4"
     showgrid="false"
     fit-margin-top="0"
     fit-margin-left="0"
     fit-margin-right="0"
     fit-margin-bottom="0"
     units="pt"
     inkscape:document-units="pt"
     inkscape:zoom="2.5368505"
     inkscape:cx="199.14304"
     inkscape:cy="22.364053"
     inkscape:window-x="125"
     inkscape:window-y="47"
     inkscape:window-maximized="0"
     inkscape:current-layer="g10" /><g
     id="g10"
     inkscape:groupmode="layer"
     inkscape:label="Wang, Vuran, Goddard - 2008 - Cyber-physical systems in industrial process control"
     transform="matrix(1.25035,0,0,-1.25035,-4.7132441,7.9162032)"><g
       id="g12"
       transform="matrix(1.1167275,0,0,1.1610688,40.482011,-116.36415)"><g
         id="g14"
         transform="translate(-211,-501)"><g
           id="g16"
           clip-path="url(#clipPath18)"><g
             id="g22"
             transform="scale(0.229721,0.229721)"><path
               d="m 940.27,2447.67 250.738,0 0,94.0273 -250.738,0 0,-94.0273 z"
               style="fill:#e8eef7;fill-opacity:1;fill-rule:evenodd;stroke:none"
               id="path24"
               inkscape:connector-curvature="0" /><path
               d="m 940.27,2447.67 250.738,0 0,94.0273 -250.738,0 0,-94.0273 z"
               style="fill:none;stroke:#000000;stroke-width:3.13423991;stroke-linecap:round;stroke-linejoin:round;stroke-miterlimit:10;stroke-dasharray:none;stroke-opacity:1"
               id="path26"
               inkscape:connector-curvature="0" /><g
               id="g28"
               transform="scale(4.35312,4.35312)"><text
                 transform="matrix(1,0,0,-1,220.319,570.68)"
                 style="font-variant:normal;font-weight:normal;font-size:8.03999996px;font-family:Arial;-inkscape-font-specification:Arial;writing-mode:lr-tb;fill:#000000;fill-opacity:1;fill-rule:nonzero;stroke:none"
                 id="text30"><tspan
                   x="0 5.4000602 7.5614014 12.000178 16.438955 20.877731 23.159065 28.917732 33.35651 37.795258 40.076618 42.71656 47.155334"
                   y="0"
                   sodipodi:role="line"
                   id="tspan32">Stage Control</tspan></text>
</g><path
               d="m 1049.97,2576.18 c 17.76,0 31.34,13.58 31.34,31.34 0,17.24 -13.58,31.34 -31.34,31.34 l -94.029,0 c -17.238,0 -31.343,-14.1 -31.343,-31.34 0,-17.76 14.105,-31.34 31.343,-31.34 l 94.029,0"
               style="fill:#e8eef7;fill-opacity:1;fill-rule:evenodd;stroke:none"
               id="path34"
               inkscape:connector-curvature="0" /><path
               d="m 1049.97,2576.18 c 17.76,0 31.34,13.58 31.34,31.34 0,17.24 -13.58,31.34 -31.34,31.34 l -94.029,0 c -17.238,0 -31.343,-14.1 -31.343,-31.34 0,-17.76 14.105,-31.34 31.343,-31.34 l 94.029,0 z"
               style="fill:none;stroke:#000000;stroke-width:3.13423991;stroke-linecap:round;stroke-linejoin:round;stroke-miterlimit:10;stroke-dasharray:none;stroke-opacity:1"
               id="path36"
               inkscape:connector-curvature="0" /><g
               id="g38"
               transform="scale(4.35312,4.35312)"><text
                 transform="matrix(1,0,0,-1,217.679,596.6)"
                 style="font-variant:normal;font-weight:normal;font-size:8.03999996px;font-family:Arial;-inkscape-font-specification:Arial;writing-mode:lr-tb;fill:#000000;fill-opacity:1;fill-rule:nonzero;stroke:none"
                 id="text40"><tspan
                   x="0 5.4000602 9.8388367 14.277614 18.237631 22.67638"
                   y="0"
                   sodipodi:role="line"
                   id="tspan42">Sensor</tspan></text>
</g><path
               d="m 1501.3,2576.18 c 17.76,0 31.34,13.58 31.34,31.34 0,17.24 -13.58,31.34 -31.34,31.34 l -94.03,0 c -17.24,0 -31.34,-14.1 -31.34,-31.34 0,-17.76 14.1,-31.34 31.34,-31.34 l 94.03,0"
               style="fill:#e8eef7;fill-opacity:1;fill-rule:evenodd;stroke:none"
               id="path44"
               inkscape:connector-curvature="0" /><path
               d="m 1501.3,2576.18 c 17.76,0 31.34,13.58 31.34,31.34 0,17.24 -13.58,31.34 -31.34,31.34 l -94.03,0 c -17.24,0 -31.34,-14.1 -31.34,-31.34 0,-17.76 14.1,-31.34 31.34,-31.34 l 94.03,0 z"
               style="fill:none;stroke:#000000;stroke-width:3.13423991;stroke-linecap:round;stroke-linejoin:round;stroke-miterlimit:10;stroke-dasharray:none;stroke-opacity:1"
               id="path46"
               inkscape:connector-curvature="0" /><g
               id="g48"
               transform="scale(4.35312,4.35312)"><text
                 transform="matrix(1,0,0,-1,321.359,596.6)"
                 style="font-variant:normal;font-weight:normal;font-size:8.03999996px;font-family:Arial;-inkscape-font-specification:Arial;writing-mode:lr-tb;fill:#000000;fill-opacity:1;fill-rule:nonzero;stroke:none"
                 id="text50"><tspan
                   x="0 5.4000602 9.8388367 14.277586 18.237604 22.676352"
                   y="0"
                   sodipodi:role="line"
                   id="tspan52">Sensor</tspan></text>
</g><path
               d="m 1746.81,2638.86 -108.13,0 -54.32,-31.34 54.32,-31.34 108.13,0 54.33,31.34 -54.33,31.34"
               style="fill:#e8eef7;fill-opacity:1;fill-rule:evenodd;stroke:none"
               id="path54"
               inkscape:connector-curvature="0" /><path
               d="m 1746.81,2638.86 -108.13,0 -54.32,-31.34 54.32,-31.34 108.13,0 54.33,31.34 -54.33,31.34 z"
               style="fill:none;stroke:#000000;stroke-width:3.13423991;stroke-linecap:round;stroke-linejoin:round;stroke-miterlimit:10;stroke-dasharray:none;stroke-opacity:1"
               id="path56"
               inkscape:connector-curvature="0" /><g
               id="g58"
               transform="scale(4.35312,4.35312)"><text
                 transform="matrix(1,0,0,-1,372.596,596.6)"
                 style="font-variant:normal;font-weight:normal;font-size:8.03999996px;font-family:Arial;-inkscape-font-specification:Arial;writing-mode:lr-tb;fill:#000000;fill-opacity:1;fill-rule:nonzero;stroke:none"
                 id="text60"><tspan
                   x="0 5.2839942 9.3639755 11.525345 15.964094 18.604061 23.04281 25.324173 29.76292"
                   y="0"
                   sodipodi:role="line"
                   id="tspan62">Acturator</tspan></text>
</g><path
               d="m 1276.68,2638.86 -108.13,0 -54.33,-31.34 54.33,-31.34 108.13,0 54.32,31.34 -54.32,31.34"
               style="fill:#e8eef7;fill-opacity:1;fill-rule:evenodd;stroke:none"
               id="path64"
               inkscape:connector-curvature="0" /><path
               d="m 1276.68,2638.86 -108.13,0 -54.33,-31.34 54.33,-31.34 108.13,0 54.32,31.34 -54.32,31.34 z"
               style="fill:none;stroke:#000000;stroke-width:3.13423991;stroke-linecap:round;stroke-linejoin:round;stroke-miterlimit:10;stroke-dasharray:none;stroke-opacity:1"
               id="path66"
               inkscape:connector-curvature="0" /><g
               id="g68"
               transform="scale(4.35312,4.35312)"><text
                 transform="matrix(1,0,0,-1,264.596,596.6)"
                 style="font-variant:normal;font-weight:normal;font-size:8.03999996px;font-family:Arial;-inkscape-font-specification:Arial;writing-mode:lr-tb;fill:#000000;fill-opacity:1;fill-rule:nonzero;stroke:none"
                 id="text70"><tspan
                   x="0 5.2839942 9.3639755 11.525345 15.964094 18.604061 23.04281 25.324173 29.76292"
                   y="0"
                   sodipodi:role="line"
                   id="tspan72">Acturator</tspan></text>
</g><path
               d="m 940.27,2319.17 877.586,0 0,94.0273 -877.586,0 0,-94.0273 z"
               style="fill:#e8eef7;fill-opacity:1;fill-rule:evenodd;stroke:none"
               id="path74"
               inkscape:connector-curvature="0" /><path
               d="m 940.27,2319.17 877.586,0 0,94.0273 -877.586,0 0,-94.0273 z"
               style="fill:none;stroke:#000000;stroke-width:3.13423991;stroke-linecap:round;stroke-linejoin:round;stroke-miterlimit:10;stroke-dasharray:none;stroke-opacity:1"
               id="path76"
               inkscape:connector-curvature="0" /><g
               id="g78"
               transform="scale(4.35312,4.35312)"><text
                 transform="matrix(1,0,0,-1,293.879,541.16)"
                 style="font-variant:normal;font-weight:normal;font-size:8.03999996px;font-family:Arial;-inkscape-font-specification:Arial;writing-mode:lr-tb;fill:#000000;fill-opacity:1;fill-rule:nonzero;stroke:none"
                 id="text80"><tspan
                   x="0 5.7586665 10.197415 12.478777 18.237444 22.676193 25.31616 29.396143 31.557512 37.316151 41.754929 43.553577"
                   y="0"
                   sodipodi:role="line"
                   id="tspan82">Network Unit</tspan></text>
</g><path
               d="m 1253.69,2447.67 250.742,0 0,94.0273 -250.742,0 0,-94.0273 z"
               style="fill:#e8eef7;fill-opacity:1;fill-rule:evenodd;stroke:none"
               id="path84"
               inkscape:connector-curvature="0" /><path
               d="m 1253.69,2447.67 250.742,0 0,94.0273 -250.742,0 0,-94.0273 z"
               style="fill:none;stroke:#000000;stroke-width:3.13423991;stroke-linecap:round;stroke-linejoin:round;stroke-miterlimit:10;stroke-dasharray:none;stroke-opacity:1"
               id="path86"
               inkscape:connector-curvature="0" /><g
               id="g88"
               transform="scale(4.35312,4.35312)"><text
                 transform="matrix(1,0,0,-1,292.319,570.68)"
                 style="font-variant:normal;font-weight:normal;font-size:8.03999996px;font-family:Arial;-inkscape-font-specification:Arial;writing-mode:lr-tb;fill:#000000;fill-opacity:1;fill-rule:nonzero;stroke:none"
                 id="text90"><tspan
                   x="0 5.4000602 7.5614014 12.000178 16.438927 20.877705 23.159037 28.917704 33.35648 37.795231 40.076591 42.71653 47.155308"
                   y="0"
                   sodipodi:role="line"
                   id="tspan92">Stage Control</tspan></text>
</g><path
               d="m 1567.12,2447.67 250.738,0 0,94.0273 -250.738,0 0,-94.0273 z"
               style="fill:#e8eef7;fill-opacity:1;fill-rule:evenodd;stroke:none"
               id="path94"
               inkscape:connector-curvature="0" /><path
               d="m 1567.12,2447.67 250.738,0 0,94.0273 -250.738,0 0,-94.0273 z"
               style="fill:none;stroke:#000000;stroke-width:3.13423991;stroke-linecap:round;stroke-linejoin:round;stroke-miterlimit:10;stroke-dasharray:none;stroke-opacity:1"
               id="path96"
               inkscape:connector-curvature="0" /><g
               id="g98"
               transform="scale(4.35312,4.35312)"><text
                 transform="matrix(1,0,0,-1,364.319,570.68)"
                 style="font-variant:normal;font-weight:normal;font-size:8.03999996px;font-family:Arial;-inkscape-font-specification:Arial;writing-mode:lr-tb;fill:#000000;fill-opacity:1;fill-rule:nonzero;stroke:none"
                 id="text100"><tspan
                   x="0 5.4000602 7.5614014 12.000178 16.438927 20.877705 23.159037 28.917704 33.35648 37.795231 40.076591 42.71653 47.155308"
                   y="0"
                   sodipodi:role="line"
                   id="tspan102">Stage Control</tspan></text>
</g><path
               d="m 940.27,2187.53 407.449,0 0,94.0273 -407.449,0 0,-94.0273 z"
               style="fill:#e8eef7;fill-opacity:1;fill-rule:evenodd;stroke:none"
               id="path104"
               inkscape:connector-curvature="0" /><path
               d="m 940.27,2187.53 407.449,0 0,94.0273 -407.449,0 0,-94.0273 z"
               style="fill:none;stroke:#000000;stroke-width:3.13423991;stroke-linecap:round;stroke-linejoin:round;stroke-miterlimit:10;stroke-dasharray:none;stroke-opacity:1"
               id="path106"
               inkscape:connector-curvature="0" /><g
               id="g108"
               transform="scale(4.35312,4.35312)"><text
                 transform="matrix(1,0,0,-1,235.199,510.92)"
                 style="font-variant:normal;font-weight:normal;font-size:8.03999996px;font-family:Arial;-inkscape-font-specification:Arial;writing-mode:lr-tb;fill:#000000;fill-opacity:1;fill-rule:nonzero;stroke:none"
                 id="text110"><tspan
                   x="0 5.7586665 10.197415 16.917337 21.356113 25.794891 28.076223 29.874872 34.313648 38.752426 40.913769 46.672436 51.111183 52.909859"
                   y="0"
                   sodipodi:role="line"
                   id="tspan112">Computing Unit</tspan></text>
</g><path
               d="m 1410.41,2187.53 407.449,0 0,94.0273 -407.449,0 0,-94.0273 z"
               style="fill:#e8eef7;fill-opacity:1;fill-rule:evenodd;stroke:none"
               id="path114"
               inkscape:connector-curvature="0" /><path
               d="m 1410.41,2187.53 407.449,0 0,94.0273 -407.449,0 0,-94.0273 z"
               style="fill:none;stroke:#000000;stroke-width:3.13423991;stroke-linecap:round;stroke-linejoin:round;stroke-miterlimit:10;stroke-dasharray:none;stroke-opacity:1"
               id="path116"
               inkscape:connector-curvature="0" /><g
               id="g118"
               transform="scale(4.35312,4.35312)"><text
                 transform="matrix(1,0,0,-1,343.199,510.92)"
                 style="font-variant:normal;font-weight:normal;font-size:8.03999996px;font-family:Arial;-inkscape-font-specification:Arial;writing-mode:lr-tb;fill:#000000;fill-opacity:1;fill-rule:nonzero;stroke:none"
                 id="text120"><tspan
                   x="0 5.7586665 10.197415 16.917337 21.356113 25.794891 28.076223 29.874872 34.313648 38.752426 40.913769 46.672436 51.111183 52.909859"
                   y="0"
                   sodipodi:role="line"
                   id="tspan122">Computing Unit</tspan></text>
</g><path
               d="m 1893.08,2439.84 175.52,0 0,159.848 -175.52,0 0,-159.848 z"
               style="fill:#e8eef7;fill-opacity:1;fill-rule:evenodd;stroke:none"
               id="path124"
               inkscape:connector-curvature="0" /><path
               d="m 1893.08,2439.84 175.52,0 0,159.848 -175.52,0 0,-159.848 z"
               style="fill:none;stroke:#000000;stroke-width:3.13423991;stroke-linecap:round;stroke-linejoin:round;stroke-miterlimit:10;stroke-dasharray:none;stroke-opacity:1"
               id="path126"
               inkscape:connector-curvature="0" /><g
               id="g128"
               transform="scale(4.35312,4.35312)"><text
                 transform="matrix(1,0,0,-1,443.639,586.04)"
                 style="font-variant:normal;font-weight:normal;font-size:8.03999996px;font-family:Arial;-inkscape-font-specification:Arial;writing-mode:lr-tb;fill:#000000;fill-opacity:1;fill-rule:nonzero;stroke:none"
                 id="text130"><tspan
                   x="0 5.4000602 9.8388367 15.597476 20.036253"
                   y="0"
                   sodipodi:role="line"
                   id="tspan132">Power</tspan><tspan
                   x="-4.4400702 2.2798519 6.7186289 11.157377 15.596154 20.034931 24.474241"
                   y="9.5998001"
                   sodipodi:role="line"
                   id="tspan134">Manage-</tspan><tspan
                   x="2.5206399 9.1205702 13.559319 18.118088"
                   y="19.1996"
                   sodipodi:role="line"
                   id="tspan136">ment</tspan></text>
</g><path
               d="m 1893.08,2187.53 175.52,0 0,156.715 -175.52,0 0,-156.715 z"
               style="fill:#e8eef7;fill-opacity:1;fill-rule:evenodd;stroke:none"
               id="path138"
               inkscape:connector-curvature="0" /><path
               d="m 1893.08,2187.53 175.52,0 0,156.715 -175.52,0 0,-156.715 z"
               style="fill:none;stroke:#000000;stroke-width:3.13423991;stroke-linecap:round;stroke-linejoin:round;stroke-miterlimit:10;stroke-dasharray:none;stroke-opacity:1"
               id="path140"
               inkscape:connector-curvature="0" /><g
               id="g142"
               transform="scale(4.35312,4.35312)"><text
                 transform="matrix(1,0,0,-1,440.159,527.72)"
                 style="font-variant:normal;font-weight:normal;font-size:8.03999996px;font-family:Arial;-inkscape-font-specification:Arial;writing-mode:lr-tb;fill:#000000;fill-opacity:1;fill-rule:nonzero;stroke:none"
                 id="text144"><tspan
                   x="0 5.2800684 9.7188168 13.798827 15.477484 18.237444 22.676191 27.115446"
                   y="0"
                   sodipodi:role="line"
                   id="tspan146">Environ-</tspan><tspan
                   x="6.0005498 12.60048 17.039228 21.597998 23.759338"
                   y="9.5998001"
                   sodipodi:role="line"
                   id="tspan148">ment </tspan><tspan
                   x="1.92032 7.7989788 12.237756 16.676504 18.837845 21.477814 26.036583"
                   y="19.1996"
                   sodipodi:role="line"
                   id="tspan150">Control</tspan></text>
</g><path
               d="m 1454.29,2576.18 0,-15.68 -75.23,0 0,-18.8"
               style="fill:none;stroke:#000000;stroke-width:3.13423991;stroke-linecap:round;stroke-linejoin:round;stroke-miterlimit:10;stroke-dasharray:none;stroke-opacity:1"
               id="path152"
               inkscape:connector-curvature="0" /><path
               d="m 1692.49,2576.18 0,-34.48"
               style="fill:none;stroke:#000000;stroke-width:3.13423991;stroke-linecap:round;stroke-linejoin:round;stroke-miterlimit:10;stroke-dasharray:none;stroke-opacity:1"
               id="path154"
               inkscape:connector-curvature="0" /><path
               d="m 1144,2281.55 0,34.48"
               style="fill:none;stroke:#000000;stroke-width:3.13423991;stroke-linecap:round;stroke-linejoin:round;stroke-miterlimit:10;stroke-dasharray:none;stroke-opacity:1"
               id="path156"
               inkscape:connector-curvature="0" /><path
               d="m 1614.13,2281.55 0,34.48"
               style="fill:none;stroke:#000000;stroke-width:3.13423991;stroke-linecap:round;stroke-linejoin:round;stroke-miterlimit:10;stroke-dasharray:none;stroke-opacity:1"
               id="path158"
               inkscape:connector-curvature="0" /><path
               d="m 1692.49,2447.67 0,-34.47"
               style="fill:none;stroke:#000000;stroke-width:3.13423991;stroke-linecap:round;stroke-linejoin:round;stroke-miterlimit:10;stroke-dasharray:none;stroke-opacity:1"
               id="path160"
               inkscape:connector-curvature="0" /><path
               d="m 1379.06,2447.67 0,-34.47"
               style="fill:none;stroke:#000000;stroke-width:3.13423991;stroke-linecap:round;stroke-linejoin:round;stroke-miterlimit:10;stroke-dasharray:none;stroke-opacity:1"
               id="path162"
               inkscape:connector-curvature="0" /><path
               d="m 1065.64,2447.67 0,-34.47"
               style="fill:none;stroke:#000000;stroke-width:3.13423991;stroke-linecap:round;stroke-linejoin:round;stroke-miterlimit:10;stroke-dasharray:none;stroke-opacity:1"
               id="path164"
               inkscape:connector-curvature="0" /><path
               d="m 1893.08,2519.76 -43.88,0 0,-122.24"
               style="fill:none;stroke:#000000;stroke-width:3.13423991;stroke-linecap:round;stroke-linejoin:round;stroke-miterlimit:10;stroke-dasharray:none;stroke-opacity:1"
               id="path166"
               inkscape:connector-curvature="0" /><path
               d="m 1893.08,2265.89 -43.88,0 0,72.08"
               style="fill:none;stroke:#000000;stroke-width:3.13423991;stroke-linecap:round;stroke-linejoin:round;stroke-miterlimit:10;stroke-dasharray:none;stroke-opacity:1"
               id="path168"
               inkscape:connector-curvature="0" /><path
               d="m 1849.2,2397.52 -31.34,0"
               style="fill:none;stroke:#000000;stroke-width:3.13423991;stroke-linecap:round;stroke-linejoin:round;stroke-miterlimit:10;stroke-dasharray:none;stroke-opacity:1"
               id="path170"
               inkscape:connector-curvature="0" /><path
               d="m 1849.2,2337.97 -31.34,0"
               style="fill:none;stroke:#000000;stroke-width:3.13423991;stroke-linecap:round;stroke-linejoin:round;stroke-miterlimit:10;stroke-dasharray:none;stroke-opacity:1"
               id="path172"
               inkscape:connector-curvature="0" /><path
               d="m 1002.95,2576.18 0,-31.35"
               style="fill:none;stroke:#000000;stroke-width:3.13423991;stroke-linecap:round;stroke-linejoin:round;stroke-miterlimit:10;stroke-dasharray:none;stroke-opacity:1"
               id="path174"
               inkscape:connector-curvature="0" /><path
               d="m 1222.35,2576.18 0,-18.81 -94.03,0"
               style="fill:none;stroke:#000000;stroke-width:3.13423991;stroke-linecap:round;stroke-linejoin:round;stroke-miterlimit:10;stroke-dasharray:none;stroke-opacity:1"
               id="path176"
               inkscape:connector-curvature="0" /><path
               d="m 1128.32,2544.83 0,12.54"
               style="fill:none;stroke:#000000;stroke-width:3.13423991;stroke-linecap:round;stroke-linejoin:round;stroke-miterlimit:10;stroke-dasharray:none;stroke-opacity:1"
               id="path178"
               inkscape:connector-curvature="0" /></g></g></g></g></g></svg>